Sudo.pi.glyphspackage
{
glyphname = exclam;
layers = (
{
layerId = "C21910D5-47BB-472B-A83D-89B2B42B8F2A";
shapes = (
{
closed = 1;
nodes = (
(239,192,l),
(341,640,l),
(273,640,l),
(197,192,l)
);
},
{
closed = 1;
nodes = (
(207,-10,o),
(232,6,o),
(239,38,cs),
(246,73,o),
(224,94,o),
(195,94,cs),
(168,94,o),
(143,77,o),
(136,46,cs),
(129,10,o),
(151,-10,o),
(181,-10,cs)
);
}
);
width = 448;
},
{
layerId = "BA106321-29DE-4FD0-898D-B7B08A4D4215";
shapes = (
{
closed = 1;
nodes = (
(250,192,l),
(353,640,l),
(261,640,l),
(186,192,l)
);
},
{
closed = 1;
nodes = (
(215,-10,o),
(245,9,o),
(253,48,cs),
(262,92,o),
(235,118,o),
(198,118,cs),
(165,118,o),
(135,98,o),
(127,60,cs),
(118,15,o),
(145,-10,o),
(182,-10,cs)
);
}
);
width = 448;
},
{
layerId = "EBAB10B0-9FDE-44C7-9B16-DD2313400F4E";
shapes = (
{
closed = 1;
nodes = (
(272,212,l),
(373,640,l),
(241,640,l),
(172,212,l)
);
},
{
closed = 1;
nodes = (
(226,-10,o),
(265,11,o),
(274,55,cs),
(285,107,o),
(250,138,o),
(200,138,cs),
(158,138,o),
(118,115,o),
(110,73,cs),
(99,19,o),
(134,-10,o),
(184,-10,cs)
);
}
);
width = 448;
}
);
unicode = 33;
}
{
glyphname = numbersign;
layers = (
{
layerId = "C21910D5-47BB-472B-A83D-89B2B42B8F2A";
shapes = (
{
closed = 1;
nodes = (
(125,0,l),
(158,138,l),
(246,138,l),
(213,0,l),
(259,0,l),
(292,138,l),
(360,138,l),
(369,182,l),
(303,182,l),
(338,330,l),
(408,330,l),
(417,374,l),
(349,374,l),
(382,512,l),
(336,512,l),
(303,374,l),
(215,374,l),
(248,512,l),
(202,512,l),
(169,374,l),
(101,374,l),
(92,330,l),
(158,330,l),
(123,182,l),
(53,182,l),
(44,138,l),
(112,138,l),
(79,0,l)
);
},
{
closed = 1;
nodes = (
(204,330,l),
(292,330,l),
(257,182,l),
(169,182,l)
);
}
);
width = 448;
},
{
layerId = "BA106321-29DE-4FD0-898D-B7B08A4D4215";
shapes = (
{
closed = 1;
nodes = (
(131,0,l),
(162,128,l),
(238,128,l),
(207,0,l),
(275,0,l),
(306,128,l),
(370,128,l),
(383,192,l),
(321,192,l),
(352,320,l),
(418,320,l),
(431,384,l),
(367,384,l),
(398,512,l),
(330,512,l),
(299,384,l),
(223,384,l),
(254,512,l),
(186,512,l),
(155,384,l),
(91,384,l),
(78,320,l),
(140,320,l),
(109,192,l),
(43,192,l),
(30,128,l),
(94,128,l),
(63,0,l)
);
},
{
closed = 1;
nodes = (
(208,320,l),
(284,320,l),
(253,192,l),
(177,192,l)
);
}
);
width = 448;
},
{
layerId = "EBAB10B0-9FDE-44C7-9B16-DD2313400F4E";
shapes = (
{
closed = 1;
nodes = (
(141,0,l),
(170,120,l),
(226,120,l),
(197,0,l),
(305,0,l),
(334,120,l),
(388,120,l),
(404,200,l),
(353,200,l),
(380,312,l),
(437,312,l),
(453,392,l),
(399,392,l),
(428,512,l),
(319,512,l),
(290,392,l),
(235,392,l),
(264,512,l),
(155,512,l),
(126,392,l),
(73,392,l),
(57,312,l),
(107,312,l),
(81,200,l),
(24,200,l),
(8,120,l),
(62,120,l),
(33,0,l)
);
},
{
closed = 1;
nodes = (
(216,312,l),
(271,312,l),
(245,200,l),
(189,200,l)
);
}
);
width = 448;
}
);
unicode = 35;
}
{
glyphname = ampersand;
layers = (
{
background = {
shapes = (
{
closed = 1;
nodes = (
(373,531,l),
(347,537,o),
(308,542,o),
(274,542,cs),
(170,542,o),
(108,485,o),
(93,408,cs),
(81,347,o),
(107,293,o),
(188,279,c),
(188,299,l),
(76,271,o),
(36,201,o),
(26,147,cs),
(9,65,o),
(38,-10,o),
(165,-10,cs),
(208,-10,o),
(270,0,o),
(322,17,c),
(375,288,l),
(327,288,l),
(275,26,l),
(318,63,l),
(274,42,o),
(213,34,o),
(160,34,cs),
(75,34,o),
(62,83,o),
(73,137,cs),
(85,199,o),
(130,266,o),
(235,266,cs),
(430,266,l),
(439,310,l),
(227,310,ls),
(144,310,o),
(130,352,o),
(139,400,cs),
(150,452,o),
(187,498,o),
(265,498,cs),
(298,498,o),
(331,495,o),
(361,490,c)
);
}
);
};
layerId = "C21910D5-47BB-472B-A83D-89B2B42B8F2A";
shapes = (
{
closed = 1;
nodes = (
(373,531,l),
(347,537,o),
(308,542,o),
(274,542,cs),
(170,542,o),
(108,485,o),
(93,408,cs),
(83,357,o),
(99,310,o),
(154,288,c),
(68,256,o),
(35,196,o),
(26,147,cs),
(9,65,o),
(38,-10,o),
(165,-10,cs),
(208,-10,o),
(270,0,o),
(322,17,c),
(371,266,l),
(430,266,l),
(439,310,l),
(227,310,ls),
(144,310,o),
(130,352,o),
(139,400,cs),
(150,452,o),
(187,498,o),
(265,498,cs),
(298,498,o),
(331,495,o),
(361,490,c)
);
},
{
closed = 1;
nodes = (
(85,199,o),
(130,266,o),
(235,266,cs),
(323,266,l),
(280,49,l),
(241,38,o),
(199,34,o),
(160,34,cs),
(75,34,o),
(62,83,o),
(73,137,cs)
);
}
);
width = 448;
},
{
background = {
shapes = (
{
closed = 1;
nodes = (
(379,528,l),
(351,535,o),
(310,542,o),
(274,542,cs),
(165,542,o),
(102,485,o),
(87,408,cs),
(74,343,o),
(102,288,o),
(188,274,c),
(189,307,l),
(71,278,o),
(31,206,o),
(20,151,cs),
(4,67,o),
(35,-10,o),
(166,-10,cs),
(211,-10,o),
(275,0,o),
(329,17,c),
(381,288,l),
(309,288,l),
(257,26,l),
(321,83,l),
(272,63,o),
(217,54,o),
(165,54,cs),
(87,54,o),
(83,100,o),
(91,141,cs),
(102,196,o),
(142,256,o),
(247,256,cs),
(434,256,l),
(447,320,l),
(243,320,ls),
(158,320,o),
(148,354,o),
(156,393,cs),
(164,434,o),
(195,478,o),
(270,478,cs),
(300,478,o),
(332,473,o),
(359,468,c)
);
}
);
};
layerId = "BA106321-29DE-4FD0-898D-B7B08A4D4215";
shapes = (
{
closed = 1;
nodes = (
(379,528,l),
(351,535,o),
(310,542,o),
(274,542,cs),
(165,542,o),
(102,485,o),
(87,408,cs),
(77,358,o),
(91,314,o),
(138,290,c),
(58,255,o),
(29,196,o),
(20,151,cs),
(4,67,o),
(35,-10,o),
(166,-10,cs),
(211,-10,o),
(275,0,o),
(329,17,c),
(375,256,l),
(434,256,l),
(447,320,l),
(243,320,ls),
(158,320,o),
(148,354,o),
(156,393,cs),
(164,434,o),
(195,478,o),
(270,478,cs),
(300,478,o),
(332,473,o),
(359,468,c)
);
},
{
closed = 1;
nodes = (
(102,196,o),
(142,256,o),
(247,256,cs),
(303,256,l),
(265,65,l),
(231,57,o),
(198,54,o),
(165,54,cs),
(87,54,o),
(83,100,o),
(91,141,cs)
);
}
);
width = 448;
},
{
background = {
shapes = (
{
closed = 1;
nodes = (
(390,525,l),
(358,534,o),
(314,542,o),
(274,542,cs),
(158,542,o),
(92,484,o),
(77,407,cs),
(63,338,o),
(94,281,o),
(187,267,c),
(190,315,l),
(64,285,o),
(23,212,o),
(12,158,cs),
(-6,70,o),
(28,-10,o),
(168,-10,cs),
(214,-10,o),
(282,0,o),
(340,17,c),
(391,288,l),
(279,288,l),
(227,26,l),
(324,99,l),
(264,81,o),
(222,70,o),
(172,70,cs),
(115,70,o),
(115,109,o),
(122,143,cs),
(132,194,o),
(169,248,o),
(268,248,cs),
(443,248,l),
(459,328,l),
(267,328,ls),
(188,328,o),
(178,355,o),
(184,386,cs),
(192,423,o),
(221,462,o),
(288,462,cs),
(314,462,o),
(342,458,o),
(366,453,c)
);
}
);
};
layerId = "EBAB10B0-9FDE-44C7-9B16-DD2313400F4E";
shapes = (
{
closed = 1;
nodes = (
(390,525,l),
(358,534,o),
(314,542,o),
(274,542,cs),
(158,542,o),
(92,484,o),
(77,407,cs),
(67,358,o),
(80,316,o),
(120,290,c),
(48,254,o),
(21,201,o),
(12,158,cs),
(-6,70,o),
(28,-10,o),
(168,-10,cs),
(214,-10,o),
(282,0,o),
(340,17,c),
(383,248,l),
(443,248,l),
(459,328,l),
(267,328,ls),
(188,328,o),
(178,355,o),
(184,386,cs),
(192,423,o),
(221,462,o),
(288,462,cs),
(314,462,o),
(342,458,o),
(366,453,c)
);
},
{
closed = 1;
nodes = (
(132,194,o),
(169,248,o),
(268,248,cs),
(271,248,l),
(237,76,l),
(216,72,o),
(194,70,o),
(172,70,cs),
(115,70,o),
(115,109,o),
(122,143,cs)
);
}
);
width = 448;
}
);
unicode = 38;
}
{
glyphname = parenleft;
kernRight = parenleft;
layers = (
{
layerId = "C21910D5-47BB-472B-A83D-89B2B42B8F2A";
shapes = (
{
closed = 1;
nodes = (
(406,718,l),
(294,610,o),
(217,480,o),
(186,324,cs),
(154,164,o),
(181,32,o),
(250,-76,c),
(285,-53,l),
(222,48,o),
(207,177,o),
(234,316,cs),
(263,459,o),
(332,590,o),
(435,691,c)
);
}
);
width = 448;
},
{
layerId = "BA106321-29DE-4FD0-898D-B7B08A4D4215";
shapes = (
{
closed = 1;
nodes = (
(399,725,l),
(286,615,o),
(206,484,o),
(174,326,cs),
(142,162,o),
(172,28,o),
(242,-82,c),
(296,-45,l),
(232,54,o),
(219,179,o),
(246,314,cs),
(274,455,o),
(341,583,o),
(444,682,c)
);
}
);
width = 448;
},
{
layerId = "EBAB10B0-9FDE-44C7-9B16-DD2313400F4E";
shapes = (
{
closed = 1;
nodes = (
(379,726,l),
(265,616,o),
(186,485,o),
(155,329,cs),
(122,163,o),
(153,29,o),
(223,-81,c),
(315,-46,l),
(252,53,o),
(239,178,o),
(265,311,cs),
(294,454,o),
(362,582,o),
(464,681,c)
);
}
);
width = 448;
}
);
unicode = 40;
}
{
glyphname = asterisk;
layers = (
{
layerId = "C21910D5-47BB-472B-A83D-89B2B42B8F2A";
shapes = (
{
closed = 1;
nodes = (
(407,409,l),
(267,331,l),
(300,487,l),
(253,497,l),
(224,340,l),
(125,465,l),
(88,435,l),
(202,295,l),
(43,209,l),
(65,167,l),
(205,245,l),
(172,89,l),
(219,79,l),
(248,236,l),
(347,111,l),
(384,141,l),
(270,281,l),
(429,367,l)
);
}
);
width = 448;
},
{
layerId = "BA106321-29DE-4FD0-898D-B7B08A4D4215";
shapes = (
{
closed = 1;
nodes = (
(407,422,l),
(279,346,l),
(314,491,l),
(244,505,l),
(220,358,l),
(132,477,l),
(75,433,l),
(192,297,l),
(32,217,l),
(67,154,l),
(195,230,l),
(160,85,l),
(230,71,l),
(254,218,l),
(342,99,l),
(399,143,l),
(282,279,l),
(442,359,l)
);
}
);
width = 448;
},
{
layerId = "EBAB10B0-9FDE-44C7-9B16-DD2313400F4E";
shapes = (
{
closed = 1;
nodes = (
(405,444,l),
(301,376,l),
(335,497,l),
(225,519,l),
(210,394,l),
(140,498,l),
(53,428,l),
(172,301,l),
(13,230,l),
(67,132,l),
(171,200,l),
(137,79,l),
(247,57,l),
(262,182,l),
(332,78,l),
(419,148,l),
(300,275,l),
(459,346,l)
);
}
);
width = 448;
}
);
unicode = 42;
}
{
glyphname = plus;
layers = (
{
layerId = "C21910D5-47BB-472B-A83D-89B2B42B8F2A";
shapes = (
{
closed = 1;
nodes = (
(446,308,l),
(263,308,l),
(300,494,l),
(256,494,l),
(219,308,l),
(36,308,l),
(28,268,l),
(211,268,l),
(173,77,l),
(217,77,l),
(255,268,l),
(438,268,l)
);
}
);
width = 448;
},
{
layerId = "BA106321-29DE-4FD0-898D-B7B08A4D4215";
shapes = (
{
closed = 1;
nodes = (
(448,320,l),
(278,320,l),
(313,493,l),
(243,493,l),
(208,320,l),
(38,320,l),
(25,256,l),
(195,256,l),
(160,78,l),
(230,78,l),
(265,256,l),
(435,256,l)
);
}
);
width = 448;
},
{
layerId = "EBAB10B0-9FDE-44C7-9B16-DD2313400F4E";
shapes = (
{
closed = 1;
nodes = (
(451,336,l),
(300,336,l),
(332,492,l),
(224,492,l),
(192,336,l),
(41,336,l),
(22,240,l),
(173,240,l),
(141,79,l),
(249,79,l),
(281,240,l),
(432,240,l)
);
}
);
width = 448;
}
);
unicode = 43;
}
{
glyphname = zero;
layers = (
{
background = {
shapes = (
{
closed = 1;
nodes = (
(306,-10,o),
(385,109,o),
(419,281,cs),
(456,466,o),
(420,586,o),
(291,586,cs),
(171,586,o),
(90,472,o),
(54,293,cs),
(18,115,o),
(57,-10,o),
(182,-10,cs)
);
},
{
closed = 1;
nodes = (
(110,56,o),
(94,125,o),
(125,281,cs),
(158,445,o),
(208,520,o),
(288,520,cs),
(364,520,o),
(379,451,o),
(348,293,cs),
(315,131,o),
(266,56,o),
(185,56,cs)
);
},
{
closed = 1;
nodes = (
(361,187,l),
(137,466,l),
(120,389,l),
(343,111,l)
);
}
);
};
layerId = "BA106321-29DE-4FD0-898D-B7B08A4D4215";
shapes = (
{
closed = 1;
nodes = (
(306,-10,o),
(385,109,o),
(419,281,cs),
(456,466,o),
(420,586,o),
(291,586,cs),
(171,586,o),
(90,472,o),
(54,293,cs),
(18,115,o),
(57,-10,o),
(182,-10,cs)
);
},
{
closed = 1;
nodes = (
(110,56,o),
(94,125,o),
(125,281,cs),
(131,311,o),
(137,335,o),
(144,359,c),
(307,156,l),
(277,88,o),
(238,56,o),
(185,56,cs)
);
},
{
closed = 1;
nodes = (
(199,490,o),
(237,520,o),
(288,520,cs),
(364,520,o),
(379,451,o),
(348,293,cs),
(343,268,o),
(337,245,o),
(331,224,c),
(169,426,l)
);
}
);
width = 448;
},
{
background = {
shapes = (
{
closed = 1;
nodes = (
(313,-10,o),
(395,108,o),
(429,278,cs),
(466,465,o),
(426,586,o),
(290,586,cs),
(164,586,o),
(80,473,o),
(44,296,cs),
(8,116,o),
(51,-10,o),
(184,-10,cs)
);
},
{
closed = 1;
nodes = (
(133,72,o),
(128,135,o),
(157,278,cs),
(188,433,o),
(226,504,o),
(286,504,cs),
(340,504,o),
(345,441,o),
(316,296,cs),
(286,143,o),
(247,72,o),
(187,72,cs)
);
},
{
closed = 1;
nodes = (
(363,197,l),
(140,476,l),
(118,379,l),
(341,101,l)
);
}
);
};
layerId = "EBAB10B0-9FDE-44C7-9B16-DD2313400F4E";
shapes = (
{
closed = 1;
nodes = (
(313,-10,o),
(395,108,o),
(429,278,cs),
(466,465,o),
(426,586,o),
(290,586,cs),
(164,586,o),
(80,473,o),
(44,296,cs),
(8,116,o),
(51,-10,o),
(184,-10,cs)
);
},
{
closed = 1;
nodes = (
(133,72,o),
(128,135,o),
(157,278,cs),
(160,293,o),
(163,306,o),
(166,319,c),
(284,173,l),
(259,105,o),
(228,72,o),
(187,72,cs)
);
},
{
closed = 1;
nodes = (
(217,473,o),
(247,504,o),
(286,504,cs),
(340,504,o),
(345,441,o),
(316,296,cs),
(314,286,o),
(311,274,o),
(309,264,c),
(193,410,l)
);
}
);
width = 448;
},
{
background = {
shapes = (
{
closed = 1;
nodes = (
(301,-10,o),
(379,110,o),
(414,283,cs),
(451,467,o),
(417,586,o),
(293,586,cs),
(176,586,o),
(95,471,o),
(59,291,cs),
(24,114,o),
(60,-10,o),
(181,-10,cs)
);
},
{
closed = 1;
nodes = (
(95,32,o),
(77,120,o),
(110,283,cs),
(144,452,o),
(201,544,o),
(291,544,cs),
(379,544,o),
(396,456,o),
(363,291,cs),
(330,124,o),
(273,32,o),
(182,32,cs)
);
},
{
closed = 1;
nodes = (
(358,174,l),
(134,453,l),
(123,402,l),
(346,124,l)
);
}
);
};
layerId = "C21910D5-47BB-472B-A83D-89B2B42B8F2A";
shapes = (
{
closed = 1;
nodes = (
(301,-10,o),
(379,110,o),
(414,283,cs),
(451,467,o),
(417,586,o),
(293,586,cs),
(176,586,o),
(95,471,o),
(59,291,cs),
(24,114,o),
(60,-10,o),
(181,-10,cs)
);
},
{
closed = 1;
nodes = (
(95,32,o),
(77,120,o),
(110,283,cs),
(118,322,o),
(127,356,o),
(137,385,c),
(323,153,l),
(289,73,o),
(243,32,o),
(182,32,cs)
);
},
{
closed = 1;
nodes = (
(187,505,o),
(232,544,o),
(291,544,cs),
(379,544,o),
(396,456,o),
(363,291,cs),
(356,256,o),
(348,225,o),
(339,197,c),
(153,429,l)
);
}
);
width = 448;
}
);
unicode = 48;
}
{
glyphname = three;
layers = (
{
background = {
shapes = (
{
closed = 1;
nodes = (
(148,277,l),
(294,258,o),
(328,228,o),
(316,170,cs),
(302,100,o),
(242,51,o),
(30,33,c),
(29,-9,l),
(233,8,o),
(345,53,o),
(366,158,cs),
(386,258,o),
(310,301,o),
(158,318,c)
);
},
{
closed = 1;
nodes = (
(171,533,l),
(196,537,o),
(227,540,o),
(254,540,cs),
(358,540,o),
(365,490,o),
(356,443,cs),
(346,392,o),
(320,341,o),
(277,292,c),
(314,268,l),
(358,319,o),
(391,371,o),
(404,432,cs),
(424,534,o),
(374,582,o),
(260,582,cs),
(229,582,o),
(189,576,o),
(169,572,c)
);
}
);
};
layerId = "C21910D5-47BB-472B-A83D-89B2B42B8F2A";
shapes = (
{
closed = 1;
nodes = (
(148,277,l),
(294,258,o),
(328,228,o),
(316,170,cs),
(302,100,o),
(242,51,o),
(30,33,c),
(29,-9,l),
(233,8,o),
(345,53,o),
(366,158,cs),
(377,212,o),
(359,249,o),
(319,274,c),
(361,324,o),
(392,374,o),
(404,432,cs),
(424,534,o),
(374,582,o),
(260,582,cs),
(229,582,o),
(189,576,o),
(169,572,c),
(171,533,l),
(196,537,o),
(227,540,o),
(254,540,cs),
(358,540,o),
(365,490,o),
(356,443,cs),
(346,392,o),
(320,341,o),
(278,293,c),
(247,304,o),
(205,313,o),
(158,318,c)
);
}
);
width = 448;
},
{
background = {
shapes = (
{
closed = 1;
nodes = (
(133,266,l),
(281,249,o),
(315,226,o),
(305,173,cs),
(293,115,o),
(252,79,o),
(20,57,c),
(18,-9,l),
(240,6,o),
(356,50,o),
(378,160,cs),
(399,262,o),
(315,314,o),
(147,329,c)
);
},
{
closed = 1;
nodes = (
(156,512,l),
(184,516,o),
(210,519,o),
(237,519,cs),
(350,519,o),
(350,474,o),
(343,438,cs),
(333,387,o),
(303,338,o),
(267,293,c),
(326,265,l),
(365,314,o),
(404,373,o),
(416,434,cs),
(436,533,o),
(380,582,o),
(255,582,cs),
(222,582,o),
(179,578,o),
(154,573,c)
);
}
);
};
layerId = "BA106321-29DE-4FD0-898D-B7B08A4D4215";
shapes = (
{
closed = 1;
nodes = (
(133,266,l),
(281,249,o),
(315,226,o),
(305,173,cs),
(293,115,o),
(252,79,o),
(20,57,c),
(18,-9,l),
(240,6,o),
(356,50,o),
(378,160,cs),
(388,210,o),
(374,248,o),
(335,276,c),
(371,323,o),
(405,378,o),
(416,434,cs),
(436,533,o),
(380,582,o),
(255,582,cs),
(222,582,o),
(179,578,o),
(154,573,c),
(156,512,l),
(184,516,o),
(210,519,o),
(237,519,cs),
(350,519,o),
(350,474,o),
(343,438,cs),
(334,392,o),
(308,346,o),
(276,305,c),
(240,317,o),
(199,324,o),
(147,329,c)
);
}
);
width = 448;
},
{
background = {
shapes = (
{
closed = 1;
nodes = (
(112,258,l),
(260,243,o),
(295,223,o),
(286,177,cs),
(275,126,o),
(234,92,o),
(3,73,c),
(-1,-9,l),
(247,6,o),
(376,51,o),
(399,164,cs),
(420,269,o),
(322,322,o),
(128,337,c)
);
},
{
closed = 1;
nodes = (
(134,495,l),
(161,499,o),
(187,503,o),
(215,503,cs),
(327,503,o),
(328,462,o),
(321,431,cs),
(311,381,o),
(286,337,o),
(257,297,c),
(335,258,l),
(380,308,o),
(423,370,o),
(435,431,cs),
(456,532,o),
(390,582,o),
(247,582,cs),
(210,582,o),
(161,576,o),
(133,570,c)
);
}
);
};
layerId = "EBAB10B0-9FDE-44C7-9B16-DD2313400F4E";
shapes = (
{
closed = 1;
nodes = (
(112,258,l),
(260,243,o),
(295,223,o),
(286,177,cs),
(275,126,o),
(234,92,o),
(3,73,c),
(-1,-9,l),
(247,6,o),
(376,51,o),
(399,164,cs),
(409,214,o),
(393,251,o),
(353,279,c),
(391,325,o),
(425,379,o),
(435,431,cs),
(456,532,o),
(390,582,o),
(247,582,cs),
(210,582,o),
(161,576,o),
(133,570,c),
(134,495,l),
(161,499,o),
(187,503,o),
(215,503,cs),
(327,503,o),
(328,462,o),
(321,431,cs),
(312,388,o),
(293,351,o),
(269,315,c),
(230,326,o),
(182,333,o),
(128,337,c)
);
}
);
width = 448;
}
);
unicode = 51;
}
{
glyphname = four;
layers = (
{
background = {
shapes = (
{
closed = 1;
nodes = (
(282,0,l),
(310,138,l),
(400,138,l),
(409,182,l),
(319,182,l),
(400,592,l),
(343,548,l),
(313,392,l),
(271,182,l),
(90,180,l),
(149,380,o),
(236,497,o),
(371,531,c),
(399,593,l),
(209,543,o),
(96,405,o),
(30,140,c),
(262,138,l),
(234,0,l)
);
}
);
};
layerId = "C21910D5-47BB-472B-A83D-89B2B42B8F2A";
shapes = (
{
closed = 1;
nodes = (
(282,0,l),
(310,138,l),
(400,138,l),
(409,182,l),
(319,182,l),
(400,592,l),
(209,542,o),
(95,404,o),
(29,138,c),
(262,138,l),
(234,0,l)
);
},
{
closed = 1;
nodes = (
(144,364,o),
(222,477,o),
(338,521,c),
(313,392,l),
(271,182,l),
(90,182,l)
);
}
);
width = 448;
},
{
background = {
shapes = (
{
closed = 1;
nodes = (
(294,0,l),
(320,128,l),
(404,128,l),
(417,192,l),
(333,192,l),
(412,592,l),
(325,518,l),
(301,392,l),
(261,192,l),
(111,189,l),
(166,366,o),
(248,480,o),
(380,514,c),
(411,593,l),
(207,549,o),
(89,403,o),
(22,131,c),
(248,128,l),
(222,0,l)
);
}
);
};
layerId = "BA106321-29DE-4FD0-898D-B7B08A4D4215";
shapes = (
{
closed = 1;
nodes = (
(294,0,l),
(320,128,l),
(404,128,l),
(417,192,l),
(333,192,l),
(412,592,l),
(207,548,o),
(88,401,o),
(21,128,c),
(248,128,l),
(222,0,l)
);
},
{
closed = 1;
nodes = (
(158,339,o),
(222,442,o),
(320,491,c),
(301,392,l),
(261,192,l),
(112,192,l)
);
}
);
width = 448;
},
{
background = {
shapes = (
{
closed = 1;
nodes = (
(314,0,l),
(338,120,l),
(412,120,l),
(428,200,l),
(354,200,l),
(432,592,l),
(313,518,l),
(280,392,l),
(242,200,l),
(142,196,l),
(187,355,o),
(270,470,o),
(400,508,c),
(430,593,l),
(206,561,o),
(77,403,o),
(11,124,c),
(226,120,l),
(202,0,l)
);
}
);
};
layerId = "EBAB10B0-9FDE-44C7-9B16-DD2313400F4E";
shapes = (
{
closed = 1;
nodes = (
(314,0,l),
(338,120,l),
(412,120,l),
(428,200,l),
(354,200,l),
(432,592,l),
(207,560,o),
(77,401,o),
(10,120,c),
(226,120,l),
(202,0,l)
);
},
{
closed = 1;
nodes = (
(174,311,o),
(224,399,o),
(296,455,c),
(280,392,l),
(242,200,l),
(143,200,l)
);
}
);
width = 448;
}
);
unicode = 52;
}
{
glyphname = six;
layers = (
{
background = {
shapes = (
{
closed = 1;
nodes = (
(275,-8,o),
(356,55,o),
(375,154,cs),
(397,266,o),
(340,319,o),
(249,319,cs),
(193,319,o),
(143,299,o),
(99,277,c),
(109,241,l),
(151,260,o),
(194,275,o),
(240,275,cs),
(325,275,o),
(339,223,o),
(326,160,cs),
(314,104,o),
(278,36,o),
(185,36,cs),
(94,36,o),
(87,125,o),
(109,236,cs),
(140,391,o),
(216,517,o),
(420,541,c),
(420,583,l),
(170,561,o),
(87,377,o),
(60,244,cs),
(26,75,o),
(74,-8,o),
(183,-8,cs)
);
}
);
};
layerId = "C21910D5-47BB-472B-A83D-89B2B42B8F2A";
shapes = (
{
closed = 1;
nodes = (
(275,-8,o),
(356,55,o),
(375,154,cs),
(397,266,o),
(340,319,o),
(249,319,cs),
(202,319,o),
(159,305,o),
(121,288,c),
(159,419,o),
(240,520,o),
(420,541,c),
(420,583,l),
(170,561,o),
(87,377,o),
(60,244,cs),
(26,75,o),
(74,-8,o),
(183,-8,cs)
);
},
{
closed = 1;
nodes = (
(110,242,l),
(152,261,o),
(194,275,o),
(240,275,cs),
(325,275,o),
(339,223,o),
(326,160,cs),
(314,104,o),
(278,36,o),
(185,36,cs),
(94,36,o),
(87,125,o),
(109,236,c)
);
}
);
width = 448;
},
{
background = {
shapes = (
{
closed = 1;
nodes = (
(280,-8,o),
(361,55,o),
(381,156,cs),
(404,272,o),
(346,328,o),
(251,328,cs),
(192,328,o),
(139,310,o),
(97,289,c),
(110,236,l),
(149,253,o),
(193,266,o),
(240,266,cs),
(315,266,o),
(321,220,o),
(310,167,cs),
(300,117,o),
(268,56,o),
(187,56,cs),
(111,56,o),
(107,132,o),
(127,233,cs),
(159,395,o),
(227,496,o),
(425,519,c),
(425,583,l),
(165,561,o),
(80,378,o),
(54,246,cs),
(20,76,o),
(71,-8,o),
(185,-8,cs)
);
}
);
};
layerId = "BA106321-29DE-4FD0-898D-B7B08A4D4215";
shapes = (
{
closed = 1;
nodes = (
(280,-8,o),
(361,55,o),
(381,156,cs),
(404,272,o),
(346,328,o),
(251,328,cs),
(213,328,o),
(179,321,o),
(147,310,c),
(186,427,o),
(261,500,o),
(425,519,c),
(425,583,l),
(165,561,o),
(80,378,o),
(54,246,cs),
(20,76,o),
(71,-8,o),
(185,-8,cs)
);
},
{
closed = 1;
nodes = (
(129,244,l),
(163,257,o),
(201,266,o),
(240,266,cs),
(315,266,o),
(321,220,o),
(310,167,cs),
(300,117,o),
(268,56,o),
(187,56,cs),
(111,56,o),
(107,132,o),
(127,233,c)
);
}
);
width = 448;
},
{
background = {
shapes = (
{
closed = 1;
nodes = (
(287,-8,o),
(371,56,o),
(392,159,cs),
(416,278,o),
(355,336,o),
(254,336,cs),
(196,336,o),
(136,316,o),
(93,294,c),
(109,227,l),
(143,245,o),
(181,258,o),
(221,258,cs),
(286,258,o),
(290,219,o),
(281,174,cs),
(272,128,o),
(245,72,o),
(189,72,cs),
(136,72,o),
(139,142,o),
(157,234,cs),
(187,387,o),
(251,481,o),
(433,502,c),
(434,583,l),
(157,561,o),
(71,379,o),
(45,249,cs),
(11,77,o),
(66,-8,o),
(186,-8,cs)
);
}
);
};
layerId = "EBAB10B0-9FDE-44C7-9B16-DD2313400F4E";
shapes = (
{
closed = 1;
nodes = (
(287,-8,o),
(371,56,o),
(392,159,cs),
(416,278,o),
(355,336,o),
(254,336,cs),
(230,336,o),
(205,332,o),
(183,327,c),
(221,424,o),
(292,486,o),
(433,502,c),
(434,583,l),
(157,561,o),
(71,379,o),
(45,249,cs),
(11,77,o),
(66,-8,o),
(186,-8,cs)
);
},
{
closed = 1;
nodes = (
(160,248,l),
(180,254,o),
(200,258,o),
(221,258,cs),
(286,258,o),
(290,219,o),
(281,174,cs),
(272,128,o),
(245,72,o),
(189,72,cs),
(136,72,o),
(139,142,o),
(157,234,c)
);
}
);
width = 448;
}
);
unicode = 54;
}
{
glyphname = seven;
layers = (
{
background = {
shapes = (
{
closed = 1;
nodes = (
(132,532,l),
(410,532,l),
(442,544,l),
(448,576,l),
(140,576,l)
);
},
{
closed = 1;
nodes = (
(118,-14,l),
(245,103,o),
(357,228,o),
(422,470,cs),
(442,544,l),
(400,576,l),
(375,479,ls),
(315,250,o),
(218,145,o),
(86,20,c)
);
}
);
};
layerId = "C21910D5-47BB-472B-A83D-89B2B42B8F2A";
shapes = (
{
closed = 1;
nodes = (
(132,532,l),
(389,532,l),
(330,282,o),
(246,171,o),
(86,20,c),
(118,-14,l),
(296,148,o),
(380,286,o),
(442,544,c),
(448,576,l),
(140,576,l)
);
}
);
width = 448;
},
{
background = {
shapes = (
{
closed = 1;
nodes = (
(122,512,l),
(406,512,l),
(451,538,l),
(458,576,l),
(134,576,l)
);
},
{
closed = 1;
nodes = (
(121,-18,l),
(248,100,o),
(360,231,o),
(427,457,cs),
(451,538,l),
(387,576,l),
(360,481,ls),
(300,265,o),
(191,139,o),
(72,31,c)
);
}
);
};
layerId = "BA106321-29DE-4FD0-898D-B7B08A4D4215";
shapes = (
{
closed = 1;
nodes = (
(122,512,l),
(369,512,l),
(304,279,o),
(216,162,o),
(72,31,c),
(121,-18,l),
(307,155,o),
(381,285,o),
(451,538,c),
(458,576,l),
(134,576,l)
);
}
);
width = 448;
},
{
background = {
shapes = (
{
closed = 1;
nodes = (
(107,488,l),
(402,488,l),
(462,538,l),
(468,576,l),
(124,576,l)
);
},
{
closed = 1;
nodes = (
(131,-19,l),
(258,99,o),
(374,236,o),
(438,456,cs),
(461,538,l),
(367,576,l),
(340,482,ls),
(282,274,o),
(173,152,o),
(55,48,c)
);
}
);
};
layerId = "EBAB10B0-9FDE-44C7-9B16-DD2313400F4E";
shapes = (
{
closed = 1;
nodes = (
(107,488,l),
(342,488,l),
(286,282,o),
(178,156,o),
(55,48,c),
(131,-19,l),
(283,122,o),
(394,265,o),
(462,538,c),
(468,576,l),
(124,576,l)
);
}
);
width = 448;
}
);
unicode = 55;
}
{
glyphname = eight;
layers = (
{
background = {
shapes = (
{
closed = 1;
nodes = (
(295,-11,o),
(376,59,o),
(391,133,cs),
(406,210,o),
(358,249,o),
(274,293,cs),
(154,355,o),
(148,396,o),
(158,442,cs),
(167,491,o),
(206,542,o),
(286,542,cs),
(363,542,o),
(387,490,o),
(376,436,cs),
(367,388,o),
(339,338,o),
(269,290,c),
(284,266,l),
(372,313,o),
(414,375,o),
(425,431,cs),
(444,525,o),
(388,586,o),
(296,586,cs),
(204,586,o),
(124,524,o),
(107,440,cs),
(94,375,o),
(118,323,o),
(224,264,cs),
(333,204,o),
(350,178,o),
(341,134,cs),
(331,85,o),
(284,33,o),
(186,33,cs),
(92,33,o),
(60,83,o),
(73,149,cs),
(82,195,o),
(107,245,o),
(193,286,c),
(183,317,l),
(103,280,o),
(38,224,o),
(23,147,cs),
(5,59,o),
(57,-11,o),
(177,-11,cs)
);
}
);
};
layerId = "C21910D5-47BB-472B-A83D-89B2B42B8F2A";
shapes = (
{
closed = 1;
nodes = (
(295,-11,o),
(376,59,o),
(391,133,cs),
(404,200,o),
(370,238,o),
(303,277,c),
(379,323,o),
(415,380,o),
(425,431,cs),
(444,525,o),
(388,586,o),
(296,586,cs),
(204,586,o),
(124,524,o),
(107,440,cs),
(97,390,o),
(109,349,o),
(161,306,c),
(91,269,o),
(37,217,o),
(23,147,cs),
(5,59,o),
(57,-11,o),
(177,-11,cs)
);
},
{
closed = 1;
nodes = (
(82,195,o),
(106,244,o),
(190,285,c),
(200,278,o),
(211,271,o),
(224,264,cs),
(333,204,o),
(350,178,o),
(341,134,cs),
(331,85,o),
(284,33,o),
(186,33,cs),
(92,33,o),
(60,83,o),
(73,149,cs)
);
},
{
closed = 1;
nodes = (
(167,491,o),
(206,542,o),
(286,542,cs),
(363,542,o),
(387,490,o),
(376,436,cs),
(367,388,o),
(340,340,o),
(274,293,c),
(154,355,o),
(148,396,o),
(158,442,cs)
);
}
);
width = 448;
},
{
background = {
shapes = (
{
closed = 1;
nodes = (
(296,-11,o),
(383,63,o),
(399,143,cs),
(414,217,o),
(372,255,o),
(284,303,cs),
(177,357,o),
(166,392,o),
(175,440,cs),
(183,480,o),
(212,522,o),
(279,522,cs),
(347,522,o),
(366,475,o),
(356,423,cs),
(347,381,o),
(325,338,o),
(265,296,c),
(311,272,l),
(384,318,o),
(421,380,o),
(432,433,cs),
(451,528,o),
(395,586,o),
(301,586,cs),
(203,586,o),
(117,520,o),
(99,429,cs),
(87,369,o),
(105,314,o),
(212,253,cs),
(313,202,o),
(331,173,o),
(322,131,cs),
(316,98,o),
(277,53,o),
(195,53,cs),
(107,53,o),
(82,104,o),
(93,158,cs),
(101,199,o),
(121,243,o),
(198,281,c),
(152,311,l),
(88,276,o),
(31,220,o),
(16,146,cs),
(-1,57,o),
(50,-11,o),
(172,-11,cs)
);
}
);
};
layerId = "BA106321-29DE-4FD0-898D-B7B08A4D4215";
shapes = (
{
closed = 1;
nodes = (
(296,-11,o),
(383,63,o),
(399,143,cs),
(412,206,o),
(383,242,o),
(323,280,c),
(388,325,o),
(422,384,o),
(432,433,cs),
(451,528,o),
(395,586,o),
(301,586,cs),
(203,586,o),
(117,520,o),
(99,429,cs),
(90,385,o),
(98,345,o),
(140,304,c),
(81,269,o),
(30,215,o),
(16,146,cs),
(-1,57,o),
(50,-11,o),
(172,-11,cs)
);
},
{
closed = 1;
nodes = (
(100,195,o),
(118,236,o),
(181,272,c),
(190,266,o),
(200,260,o),
(212,253,cs),
(313,202,o),
(331,173,o),
(322,131,cs),
(316,98,o),
(277,53,o),
(195,53,cs),
(107,53,o),
(82,104,o),
(93,158,cs)
);
},
{
closed = 1;
nodes = (
(183,480,o),
(212,522,o),
(279,522,cs),
(347,522,o),
(366,475,o),
(356,423,cs),
(348,385,o),
(328,345,o),
(278,306,c),
(177,358,o),
(166,392,o),
(175,440,cs)
);
}
);
width = 448;
},
{
background = {
shapes = (
{
closed = 1;
nodes = (
(302,-11,o),
(393,66,o),
(410,150,cs),
(425,224,o),
(389,266,o),
(308,313,cs),
(209,363,o),
(195,391,o),
(205,438,cs),
(211,470,o),
(230,506,o),
(274,506,cs),
(321,506,o),
(333,461,o),
(324,416,cs),
(316,376,o),
(299,339,o),
(254,302,c),
(322,266,l),
(393,314,o),
(431,379,o),
(442,436,cs),
(461,529,o),
(402,586,o),
(303,586,cs),
(198,586,o),
(107,517,o),
(88,422,cs),
(76,363,o),
(88,303,o),
(188,244,cs),
(282,196,o),
(301,173,o),
(293,133,cs),
(288,107,o),
(259,69,o),
(199,69,cs),
(133,69,o),
(115,118,o),
(125,168,cs),
(132,204,o),
(146,242,o),
(205,275,c),
(145,318,l),
(81,281,o),
(22,223,o),
(6,143,cs),
(-12,56,o),
(44,-11,o),
(171,-11,cs)
);
}
);
};
layerId = "EBAB10B0-9FDE-44C7-9B16-DD2313400F4E";
shapes = (
{
closed = 1;
nodes = (
(302,-11,o),
(393,66,o),
(410,150,cs),
(422,209,o),
(401,249,o),
(349,287,c),
(403,332,o),
(433,388,o),
(442,436,cs),
(461,529,o),
(402,586,o),
(303,586,cs),
(198,586,o),
(107,517,o),
(88,422,cs),
(80,383,o),
(83,340,o),
(117,300,c),
(64,263,o),
(20,212,o),
(6,143,cs),
(-12,56,o),
(44,-11,o),
(171,-11,cs)
);
},
{
closed = 1;
nodes = (
(131,197,o),
(141,226,o),
(173,253,c),
(178,250,o),
(183,247,o),
(188,244,cs),
(282,196,o),
(301,173,o),
(293,133,cs),
(288,107,o),
(259,69,o),
(199,69,cs),
(133,69,o),
(115,118,o),
(125,168,cs)
);
},
{
closed = 1;
nodes = (
(211,470,o),
(230,506,o),
(274,506,cs),
(321,506,o),
(333,461,o),
(324,416,cs),
(318,386,o),
(306,355,o),
(281,327,c),
(206,369,o),
(196,396,o),
(205,438,cs)
);
}
);
width = 448;
}
);
unicode = 56;
}
{
glyphname = equal;
layers = (
{
layerId = "C21910D5-47BB-472B-A83D-89B2B42B8F2A";
shapes = (
{
closed = 1;
nodes = (
(418,233,l),
(34,233,l),
(26,193,l),
(410,193,l)
);
},
{
closed = 1;
nodes = (
(448,383,l),
(64,383,l),
(56,343,l),
(440,343,l)
);
}
);
width = 448;
},
{
layerId = "BA106321-29DE-4FD0-898D-B7B08A4D4215";
shapes = (
{
closed = 1;
nodes = (
(419,240,l),
(35,240,l),
(22,176,l),
(406,176,l)
);
},
{
closed = 1;
nodes = (
(451,400,l),
(67,400,l),
(54,336,l),
(438,336,l)
);
}
);
width = 448;
},
{
layerId = "EBAB10B0-9FDE-44C7-9B16-DD2313400F4E";
shapes = (
{
closed = 1;
nodes = (
(421,248,l),
(37,248,l),
(18,152,l),
(402,152,l)
);
},
{
closed = 1;
nodes = (
(456,424,l),
(72,424,l),
(53,328,l),
(437,328,l)
);
}
);
width = 448;
}
);
unicode = 61;
}
{
glyphname = greater;
layers = (
{
layerId = "C21910D5-47BB-472B-A83D-89B2B42B8F2A";
shapes = (
{
closed = 1;
nodes = (
(406,288,l),
(213,517,l),
(177,489,l),
(345,288,l),
(97,87,l),
(124,59,l)
);
}
);
width = 448;
},
{
layerId = "BA106321-29DE-4FD0-898D-B7B08A4D4215";
shapes = (
{
closed = 1;
nodes = (
(417,288,l),
(217,525,l),
(160,481,l),
(322,288,l),
(83,95,l),
(126,51,l)
);
}
);
width = 448;
},
{
layerId = "EBAB10B0-9FDE-44C7-9B16-DD2313400F4E";
shapes = (
{
closed = 1;
nodes = (
(435,288,l),
(225,538,l),
(133,468,l),
(284,288,l),
(61,108,l),
(129,38,l)
);
}
);
width = 448;
}
);
unicode = 62;
}
{
glyphname = at;
layers = (
{
background = {
shapes = (
{
closed = 1;
nodes = (
(408,382,ls),
(432,503,o),
(403,586,o),
(302,586,cs),
(176,586,o),
(110,467,o),
(61,227,cs),
(11,-19,o),
(43,-128,o),
(177,-128,cs),
(199,-128,o),
(235,-123,o),
(266,-112,c),
(260,-73,l),
(239,-79,o),
(211,-85,o),
(182,-85,cs),
(94,-85,o),
(61,-11,o),
(107,219,cs),
(153,448,o),
(207,541,o),
(298,541,cs),
(369,541,o),
(381,488,o),
(360,386,cs),
(305,115,l),
(222,103,o),
(211,147,o),
(224,216,cs),
(238,288,o),
(268,329,o),
(356,337,c),
(362,381,l),
(246,367,o),
(194,312,o),
(176,224,cs),
(156,126,o),
(193,69,o),
(273,69,cs),
(296,69,o),
(326,71,o),
(349,78,c)
);
}
);
};
layerId = "C21910D5-47BB-472B-A83D-89B2B42B8F2A";
shapes = (
{
closed = 1;
nodes = (
(408,382,ls),
(432,503,o),
(403,586,o),
(302,586,cs),
(176,586,o),
(110,467,o),
(61,227,cs),
(11,-19,o),
(43,-128,o),
(177,-128,cs),
(199,-128,o),
(235,-123,o),
(266,-112,c),
(260,-73,l),
(239,-79,o),
(211,-85,o),
(182,-85,cs),
(94,-85,o),
(61,-11,o),
(107,219,cs),
(153,448,o),
(207,541,o),
(298,541,cs),
(369,541,o),
(381,488,o),
(360,386,cs),
(359,381,l),
(244,366,o),
(194,312,o),
(176,224,cs),
(156,126,o),
(193,69,o),
(273,69,cs),
(296,69,o),
(326,71,o),
(349,78,c)
);
},
{
closed = 1;
nodes = (
(238,287,o),
(267,327,o),
(350,336,c),
(305,115,l),
(222,103,o),
(211,147,o),
(224,216,cs)
);
}
);
width = 448;
},
{
background = {
shapes = (
{
closed = 1;
nodes = (
(419,379,ls),
(443,501,o),
(410,586,o),
(300,586,cs),
(167,586,o),
(97,468,o),
(49,229,cs),
(0,-18,o),
(37,-128,o),
(179,-128,cs),
(206,-128,o),
(246,-122,o),
(281,-109,c),
(272,-48,l),
(247,-56,o),
(217,-64,o),
(181,-64,cs),
(103,-64,o),
(76,2,o),
(119,217,cs),
(162,436,o),
(210,522,o),
(296,522,cs),
(358,522,o),
(367,478,o),
(348,383,cs),
(295,130,l),
(237,124,o),
(230,157,o),
(241,214,cs),
(254,281,o),
(280,317,o),
(355,327,c),
(363,391,l),
(243,376,o),
(188,318,o),
(169,225,cs),
(149,123,o),
(190,64,o),
(279,64,cs),
(301,64,o),
(336,66,o),
(360,73,c)
);
}
);
};
layerId = "BA106321-29DE-4FD0-898D-B7B08A4D4215";
shapes = (
{
closed = 1;
nodes = (
(419,379,ls),
(443,501,o),
(410,586,o),
(300,586,cs),
(167,586,o),
(97,468,o),
(49,229,cs),
(0,-18,o),
(37,-128,o),
(179,-128,cs),
(206,-128,o),
(246,-122,o),
(281,-109,c),
(272,-48,l),
(247,-56,o),
(217,-64,o),
(181,-64,cs),
(103,-64,o),
(76,2,o),
(119,217,cs),
(162,436,o),
(210,522,o),
(296,522,cs),
(357,522,o),
(366,479,o),
(349,389,c),
(349,389,l),
(238,371,o),
(187,314,o),
(169,225,cs),
(149,123,o),
(190,64,o),
(279,64,cs),
(301,64,o),
(336,66,o),
(360,73,c)
);
},
{
closed = 1;
nodes = (
(253,276,o),
(275,310,o),
(336,324,c),
(295,130,l),
(237,124,o),
(230,157,o),
(241,214,cs)
);
}
);
width = 448;
},
{
background = {
shapes = (
{
closed = 1;
nodes = (
(438,375,ls),
(463,498,o),
(423,586,o),
(299,586,cs),
(152,586,o),
(77,469,o),
(30,232,cs),
(-20,-17,o),
(26,-128,o),
(180,-128,cs),
(217,-128,o),
(264,-121,o),
(303,-105,c),
(291,-37,l),
(260,-44,o),
(230,-48,o),
(203,-48,cs),
(111,-48,o),
(98,13,o),
(138,214,cs),
(180,425,o),
(222,507,o),
(294,507,cs),
(340,507,o),
(345,467,o),
(327,377,cs),
(276,138,l),
(258,140,o),
(259,162,o),
(268,211,cs),
(281,275,o),
(302,304,o),
(354,318,c),
(364,400,l),
(237,384,o),
(177,323,o),
(158,227,cs),
(136,118,o),
(184,56,o),
(288,56,cs),
(309,56,o),
(351,58,o),
(379,65,c)
);
}
);
};
layerId = "EBAB10B0-9FDE-44C7-9B16-DD2313400F4E";
shapes = (
{
closed = 1;
nodes = (
(438,375,ls),
(461,498,o),
(423,586,o),
(299,586,cs),
(152,586,o),
(77,469,o),
(30,232,cs),
(-20,-17,o),
(26,-128,o),
(180,-128,cs),
(217,-128,o),
(264,-121,o),
(303,-105,c),
(291,-37,l),
(260,-44,o),
(230,-48,o),
(203,-48,cs),
(111,-48,o),
(98,13,o),
(138,214,cs),
(180,425,o),
(222,507,o),
(294,507,cs),
(337,507,o),
(344,473,o),
(330,394,c),
(330,394,l),
(226,372,o),
(175,313,o),
(158,227,cs),
(136,118,o),
(184,56,o),
(288,56,cs),
(309,56,o),
(351,58,o),
(379,65,c)
);
},
{
closed = 1;
nodes = (
(276,252,o),
(289,280,o),
(310,297,c),
(276,138,l),
(258,140,o),
(259,162,o),
(268,211,cs)
);
}
);
width = 448;
}
);
unicode = 64;
}
{
glyphname = B;
kernRight = B;
layers = (
{
anchors = (
{
name = "#center";
pos = (115,160);
},
{
name = bottom;
pos = (171,0);
},
{
name = origin.hook;
pos = (143,640);
},
{
name = top;
pos = (307,640);
}
);
background = {
anchors = (
{
name = bottom;
pos = (171,0);
},
{
name = center;
pos = (115,160);
},
{
name = origin.hook;
pos = (143,640);
},
{
name = top;
pos = (307,640);
}
);
shapes = (
{
closed = 1;
nodes = (
(167,0,ls),
(299,0,o),
(396,74,o),
(396,194,cs),
(396,258,o),
(358,297,o),
(300,311,c),
(268,326,l),
(134,326,l),
(188,596,l),
(265,596,ls),
(357,596,o),
(386,562,o),
(386,514,cs),
(386,432,o),
(327,361,o),
(255,323,c),
(274,290,l),
(368,345,o),
(438,416,o),
(438,515,cs),
(438,591,o),
(385,640,o),
(268,640,cs),
(149,640,l),
(21,0,l)
);
},
{
closed = 1;
nodes = (
(126,282,l),
(222,282,ls),
(312,282,o),
(345,250,o),
(345,197,cs),
(345,97,o),
(280,44,o),
(171,44,cs),
(78,44,l)
);
}
);
};
layerId = "C21910D5-47BB-472B-A83D-89B2B42B8F2A";
shapes = (
{
closed = 1;
nodes = (
(167,0,ls),
(299,0,o),
(396,74,o),
(396,194,cs),
(396,256,o),
(360,295,o),
(305,310,c),
(383,362,o),
(438,427,o),
(438,515,cs),
(438,591,o),
(385,640,o),
(268,640,cs),
(149,640,l),
(21,0,l)
);
},
{
closed = 1;
nodes = (
(126,282,l),
(222,282,ls),
(312,282,o),
(345,250,o),
(345,197,cs),
(345,97,o),
(280,44,o),
(171,44,cs),
(78,44,l)
);
},
{
closed = 1;
nodes = (
(188,596,l),
(265,596,ls),
(357,596,o),
(386,562,o),
(386,514,cs),
(386,434,o),
(331,365,o),
(261,326,c),
(134,326,l)
);
}
);
width = 448;
},
{
anchors = (
{
name = "#center";
pos = (115,160);
},
{
name = bottom;
pos = (171,0);
},
{
name = origin.hook;
pos = (143,640);
},
{
name = top;
pos = (307,640);
}
);
background = {
anchors = (
{
name = bottom;
pos = (171,0);
},
{
name = center;
pos = (115,160);
},
{
name = origin.hook;
pos = (143,640);
},
{
name = top;
pos = (307,640);
}
);
shapes = (
{
closed = 1;
nodes = (
(170,0,ls),
(304,0,o),
(403,79,o),
(403,199,cs),
(403,262,o),
(365,300,o),
(308,314,c),
(273,336,l),
(154,336,l),
(202,576,l),
(257,576,ls),
(338,576,o),
(367,553,o),
(367,509,cs),
(367,433,o),
(316,367,o),
(251,331,c),
(277,282,l),
(372,339,o),
(444,408,o),
(444,510,cs),
(444,597,o),
(380,640,o),
(273,640,cs),
(143,640,l),
(15,0,l)
);
},
{
closed = 1;
nodes = (
(142,272,l),
(214,272,ls),
(298,272,o),
(328,246,o),
(328,202,cs),
(328,112,o),
(269,64,o),
(167,64,cs),
(100,64,l)
);
}
);
};
layerId = "BA106321-29DE-4FD0-898D-B7B08A4D4215";
shapes = (
{
closed = 1;
nodes = (
(170,0,ls),
(304,0,o),
(403,79,o),
(403,199,cs),
(403,257,o),
(370,294,o),
(321,310,c),
(394,362,o),
(444,424,o),
(444,510,cs),
(444,597,o),
(380,640,o),
(273,640,cs),
(143,640,l),
(15,0,l)
);
},
{
closed = 1;
nodes = (
(142,272,l),
(214,272,ls),
(298,272,o),
(328,246,o),
(328,202,cs),
(328,112,o),
(269,64,o),
(167,64,cs),
(100,64,l)
);
},
{
closed = 1;
nodes = (
(202,576,l),
(257,576,ls),
(338,576,o),
(367,553,o),
(367,509,cs),
(367,436,o),
(321,373,o),
(260,336,c),
(154,336,l)
);
}
);
width = 448;
},
{
anchors = (
{
name = "#center";
pos = (117,172);
},
{
name = bottom;
pos = (171,0);
},
{
name = origin.hook;
pos = (143,640);
},
{
name = top;
pos = (307,640);
}
);
background = {
anchors = (
{
name = bottom;
pos = (171,0);
},
{
name = center;
pos = (117,172);
},
{
name = origin.hook;
pos = (143,640);
},
{
name = top;
pos = (307,640);
}
);
shapes = (
{
closed = 1;
nodes = (
(173,0,ls),
(312,0,o),
(413,77,o),
(413,197,cs),
(413,268,o),
(374,308,o),
(314,321,c),
(279,344,l),
(186,344,l),
(229,560,l),
(261,560,ls),
(311,560,o),
(335,538,o),
(335,501,cs),
(335,437,o),
(293,372,o),
(244,339,c),
(284,278,l),
(378,335,o),
(453,409,o),
(453,506,cs),
(453,586,o),
(398,640,o),
(275,640,cs),
(133,640,l),
(5,0,l)
);
},
{
closed = 1;
nodes = (
(170,264,l),
(211,264,ls),
(274,264,o),
(299,242,o),
(299,200,cs),
(299,130,o),
(253,80,o),
(170,80,cs),
(133,80,l)
);
}
);
};
layerId = "EBAB10B0-9FDE-44C7-9B16-DD2313400F4E";
shapes = (
{
closed = 1;
nodes = (
(173,0,ls),
(312,0,o),
(413,77,o),
(413,197,cs),
(413,258,o),
(384,296,o),
(337,314,c),
(404,365,o),
(453,428,o),
(453,506,cs),
(453,586,o),
(398,640,o),
(275,640,cs),
(133,640,l),
(5,0,l)
);
},
{
closed = 1;
nodes = (
(170,264,l),
(211,264,ls),
(274,264,o),
(299,242,o),
(299,200,cs),
(299,130,o),
(253,80,o),
(170,80,cs),
(133,80,l)
);
},
{
closed = 1;
nodes = (
(229,560,l),
(261,560,ls),
(311,560,o),
(335,538,o),
(335,501,cs),
(335,440,o),
(298,379,o),
(251,344,c),
(186,344,l)
);
}
);
width = 448;
}
);
unicode = 66;
}
{
color = 8;
glyphname = C;
kernLeft = O;
kernRight = C;
layers = (
{
anchors = (
{
name = bottom;
pos = (179,0);
},
{
name = bottomAttach;
pos = (231,0);
},
{
name = top;
pos = (307,640);
}
);
layerId = "BA106321-29DE-4FD0-898D-B7B08A4D4215";
shapes = (
{
closed = 1;
nodes = (
(240,-9,o),
(280,-5,o),
(312,4,c),
(306,67,l),
(275,59,o),
(246,55,o),
(219,55,cs),
(98,55,o),
(105,128,o),
(142,313,cs),
(180,504,o),
(208,583,o),
(335,583,cs),
(355,583,o),
(382,581,o),
(407,575,c),
(428,634,l),
(399,642,o),
(363,647,o),
(332,647,cs),
(184,647,o),
(114,563,o),
(66,325,cs),
(17,81,o),
(58,-9,o),
(210,-9,cs)
);
}
);
width = 384;
},
{
anchors = (
{
name = bottom;
pos = (179,0);
},
{
name = bottomAttach;
pos = (231,0);
},
{
name = top;
pos = (307,640);
}
);
layerId = "EBAB10B0-9FDE-44C7-9B16-DD2313400F4E";
shapes = (
{
closed = 1;
nodes = (
(239,-9,o),
(284,-4,o),
(322,7,c),
(316,83,l),
(285,75,o),
(256,71,o),
(229,71,cs),
(127,71,o),
(135,138,o),
(169,310,cs),
(206,492,o),
(233,567,o),
(340,567,cs),
(360,567,o),
(387,565,o),
(412,559,c),
(435,631,l),
(401,641,o),
(359,647,o),
(323,647,cs),
(173,647,o),
(102,564,o),
(55,328,cs),
(6,82,o),
(49,-9,o),
(205,-9,cs)
);
}
);
width = 384;
},
{
anchors = (
{
name = bottom;
pos = (179,0);
},
{
name = bottomAttach;
pos = (231,0);
},
{
name = top;
pos = (307,640);
}
);
layerId = "C21910D5-47BB-472B-A83D-89B2B42B8F2A";
shapes = (
{
closed = 1;
nodes = (
(229,-9,o),
(268,-3,o),
(302,4,c),
(300,44,l),
(264,38,o),
(231,35,o),
(204,35,cs),
(91,35,o),
(82,115,o),
(122,315,cs),
(163,519,o),
(206,603,o),
(322,603,cs),
(347,603,o),
(379,601,o),
(410,596,c),
(421,636,l),
(392,643,o),
(353,647,o),
(321,647,cs),
(185,647,o),
(118,562,o),
(70,323,cs),
(21,80,o),
(57,-9,o),
(197,-9,cs)
);
}
);
width = 384;
}
);
metricWidth = "=_pixel*6";
unicode = 67;
}
{
color = 8;
glyphname = D;
kernRight = O;
layers = (
{
anchors = (
{
name = bottom;
pos = (195,0);
},
{
name = center;
pos = (259,320);
},
{
name = origin.hook;
pos = (143,640);
},
{
name = stemUC;
pos = (271,362);
},
{
name = top;
pos = (311,640);
}
);
layerId = "BA106321-29DE-4FD0-898D-B7B08A4D4215";
shapes = (
{
closed = 1;
nodes = (
(143,640,l),
(15,0,l),
(163,0,ls),
(320,0,o),
(399,83,o),
(444,311,cs),
(490,548,o),
(437,640,o),
(285,640,cs)
);
},
{
closed = 1;
nodes = (
(100,64,l),
(202,576,l),
(271,576,ls),
(391,576,o),
(408,522,o),
(369,323,cs),
(333,143,o),
(298,64,o),
(163,64,cs)
);
}
);
width = 480;
},
{
anchors = (
{
name = bottom;
pos = (195,0);
},
{
name = center;
pos = (259,320);
},
{
name = origin.hook;
pos = (143,640);
},
{
name = stemUC;
pos = (271,362);
},
{
name = top;
pos = (311,640);
}
);
layerId = "EBAB10B0-9FDE-44C7-9B16-DD2313400F4E";
shapes = (
{
closed = 1;
nodes = (
(133,640,l),
(5,0,l),
(173,0,ls),
(331,0,o),
(408,82,o),
(453,308,cs),
(500,543,o),
(453,640,o),
(294,640,cs)
);
},
{
closed = 1;
nodes = (
(133,80,l),
(229,560,l),
(278,560,ls),
(375,560,o),
(372,493,o),
(338,326,cs),
(304,155,o),
(275,80,o),
(176,80,cs)
);
}
);
width = 480;
},
{
anchors = (
{
name = bottom;
pos = (195,0);
},
{
name = center;
pos = (259,320);
},
{
name = origin.hook;
pos = (143,640);
},
{
name = stemUC;
pos = (271,362);
},
{
name = top;
pos = (311,640);
}
);
layerId = "C21910D5-47BB-472B-A83D-89B2B42B8F2A";
shapes = (
{
closed = 1;
nodes = (
(149,640,l),
(21,0,l),
(169,0,ls),
(317,0,o),
(392,84,o),
(438,313,cs),
(484,545,o),
(441,640,o),
(292,640,cs)
);
},
{
closed = 1;
nodes = (
(78,44,l),
(188,596,l),
(281,596,ls),
(422,596,o),
(423,509,o),
(385,321,cs),
(348,135,o),
(310,44,o),
(167,44,cs)
);
}
);
width = 480;
}
);
metricWidth = "=_pixel*7.5";
unicode = 68;
}
{
color = 8;
glyphname = E;
kernRight = E;
layers = (
{
anchors = (
{
name = bottom;
pos = (167,0);
},
{
name = bottomAttach;
pos = (331,0);
},
{
name = top;
pos = (291,640);
}
);
layerId = "BA106321-29DE-4FD0-898D-B7B08A4D4215";
shapes = (
{
closed = 1;
nodes = (
(331,0,l),
(344,64,l),
(100,64,l),
(138,256,l),
(318,256,l),
(331,320,l),
(151,320,l),
(202,576,l),
(436,576,l),
(449,640,l),
(143,640,l),
(15,0,l)
);
}
);
width = 416;
},
{
anchors = (
{
name = bottom;
pos = (167,0);
},
{
name = bottomAttach;
pos = (347,0);
},
{
name = top;
pos = (291,640);
}
);
layerId = "EBAB10B0-9FDE-44C7-9B16-DD2313400F4E";
shapes = (
{
closed = 1;
nodes = (
(347,0,l),
(363,80,l),
(133,80,l),
(167,248,l),
(333,248,l),
(349,328,l),
(183,328,l),
(229,560,l),
(449,560,l),
(465,640,l),
(133,640,l),
(5,0,l)
);
}
);
width = 416;
},
{
anchors = (
{
name = bottom;
pos = (167,0);
},
{
name = bottomAttach;
pos = (323,0);
},
{
name = top;
pos = (291,640);
}
);
layerId = "C21910D5-47BB-472B-A83D-89B2B42B8F2A";
shapes = (
{
closed = 1;
nodes = (
(323,0,l),
(332,44,l),
(78,44,l),
(122,266,l),
(312,266,l),
(321,310,l),
(131,310,l),
(188,596,l),
(432,596,l),
(441,640,l),
(149,640,l),
(21,0,l)
);
}
);
width = 416;
}
);
metricLeft = E;
unicode = 69;
}
{
color = 8;
glyphname = F;
kernRight = F;
layers = (
{
anchors = (
{
name = bottom;
pos = (51,0);
},
{
name = top;
pos = (292,640);
}
);
layerId = "BA106321-29DE-4FD0-898D-B7B08A4D4215";
shapes = (
{
closed = 1;
nodes = (
(87,0,l),
(138,256,l),
(311,256,l),
(324,320,l),
(151,320,l),
(202,576,l),
(424,576,l),
(437,640,l),
(143,640,l),
(15,0,l)
);
}
);
width = 384;
},
{
anchors = (
{
name = bottom;
pos = (53,0);
},
{
name = top;
pos = (292,640);
}
);
layerId = "EBAB10B0-9FDE-44C7-9B16-DD2313400F4E";
shapes = (
{
closed = 1;
nodes = (
(117,0,l),
(167,248,l),
(317,248,l),
(333,328,l),
(183,328,l),
(229,560,l),
(427,560,l),
(443,640,l),
(133,640,l),
(5,0,l)
);
}
);
width = 384;
},
{
anchors = (
{
name = bottom;
pos = (50,0);
},
{
name = top;
pos = (292,640);
}
);
layerId = "C21910D5-47BB-472B-A83D-89B2B42B8F2A";
shapes = (
{
closed = 1;
nodes = (
(69,0,l),
(122,266,l),
(315,266,l),
(324,310,l),
(131,310,l),
(188,596,l),
(430,596,l),
(439,640,l),
(149,640,l),
(21,0,l)
);
}
);
width = 384;
}
);
metricWidth = "=_pixel*6";
unicode = 70;
}
{
color = 8;
glyphname = G;
kernLeft = O;
kernRight = G;
layers = (
{
anchors = (
{
name = "#center";
pos = (315,160);
},
{
name = bottom;
pos = (183,0);
},
{
name = top;
pos = (327,640);
}
);
background = {
anchors = (
{
name = bottom;
pos = (183,0);
},
{
name = top;
pos = (327,640);
}
);
shapes = (
{
closed = 1;
nodes = (
(258,-9,o),
(310,-4,o),
(353,7,c),
(345,68,l),
(302,59,o),
(262,55,o),
(235,55,cs),
(100,55,o),
(105,128,o),
(142,313,cs),
(180,504,o),
(210,583,o),
(351,583,cs),
(372,583,o),
(412,581,o),
(451,572,c),
(472,631,l),
(433,641,o),
(385,647,o),
(348,647,cs),
(188,647,o),
(114,563,o),
(66,325,cs),
(17,81,o),
(62,-9,o),
(226,-9,cs)
);
},
{
closed = 1;
nodes = (
(353,7,l),
(415,320,l),
(237,320,l),
(224,256,l),
(330,256,l),
(281,7,l)
);
}
);
};
layerId = "BA106321-29DE-4FD0-898D-B7B08A4D4215";
shapes = (
{
closed = 1;
nodes = (
(258,-9,o),
(310,-4,o),
(353,7,c),
(415,320,l),
(237,320,l),
(224,256,l),
(330,256,l),
(291,59,l),
(269,56,o),
(250,55,o),
(235,55,cs),
(100,55,o),
(105,128,o),
(142,313,cs),
(180,504,o),
(210,583,o),
(351,583,cs),
(372,583,o),
(412,581,o),
(451,572,c),
(472,631,l),
(433,641,o),
(385,647,o),
(348,647,cs),
(188,647,o),
(114,563,o),
(66,325,cs),
(17,81,o),
(62,-9,o),
(226,-9,cs)
);
}
);
width = 456;
},
{
anchors = (
{
name = "#center";
pos = (315,160);
},
{
name = bottom;
pos = (183,0);
},
{
name = top;
pos = (327,640);
}
);
background = {
anchors = (
{
name = bottom;
pos = (183,0);
},
{
name = top;
pos = (327,640);
}
);
shapes = (
{
closed = 1;
nodes = (
(264,-9,o),
(320,-5,o),
(363,7,c),
(357,84,l),
(319,78,o),
(276,71,o),
(236,71,cs),
(129,71,o),
(135,138,o),
(169,310,cs),
(206,492,o),
(235,567,o),
(365,567,cs),
(384,567,o),
(421,565,o),
(458,556,c),
(481,628,l),
(440,640,o),
(388,647,o),
(347,647,cs),
(179,647,o),
(102,564,o),
(55,328,cs),
(6,82,o),
(55,-9,o),
(230,-9,cs)
);
},
{
closed = 1;
nodes = (
(363,7,l),
(427,328,l),
(230,328,l),
(214,248,l),
(299,248,l),
(251,7,l)
);
}
);
};
layerId = "EBAB10B0-9FDE-44C7-9B16-DD2313400F4E";
shapes = (
{
closed = 1;
nodes = (
(264,-9,o),
(320,-5,o),
(363,7,c),
(427,328,l),
(230,328,l),
(214,248,l),
(299,248,l),
(264,72,l),
(254,71,o),
(245,71,o),
(236,71,cs),
(129,71,o),
(135,138,o),
(169,310,cs),
(206,492,o),
(235,567,o),
(365,567,cs),
(384,567,o),
(421,565,o),
(458,556,c),
(481,628,l),
(440,640,o),
(388,647,o),
(347,647,cs),
(179,647,o),
(102,564,o),
(55,328,cs),
(6,82,o),
(55,-9,o),
(230,-9,cs)
);
}
);
width = 456;
},
{
anchors = (
{
name = "#center";
pos = (315,160);
},
{
name = bottom;
pos = (183,0);
},
{
name = top;
pos = (327,640);
}
);
background = {
anchors = (
{
name = bottom;
pos = (183,0);
},
{
name = top;
pos = (327,640);
}
);
shapes = (
{
closed = 1;
nodes = (
(257,-9,o),
(308,-3,o),
(347,7,c),
(334,44,l),
(296,38,o),
(262,35,o),
(234,35,cs),
(97,35,o),
(82,115,o),
(122,315,cs),
(163,519,o),
(211,603,o),
(352,603,cs),
(382,603,o),
(417,600,o),
(452,594,c),
(462,634,l),
(432,642,o),
(388,647,o),
(351,647,cs),
(193,647,o),
(118,562,o),
(70,323,cs),
(21,80,o),
(65,-9,o),
(227,-9,cs)
);
},
{
closed = 1;
nodes = (
(347,7,l),
(407,310,l),
(260,310,l),
(251,266,l),
(350,266,l),
(299,7,l)
);
}
);
};
layerId = "C21910D5-47BB-472B-A83D-89B2B42B8F2A";
shapes = (
{
closed = 1;
nodes = (
(257,-9,o),
(308,-3,o),
(347,7,c),
(407,310,l),
(260,310,l),
(251,266,l),
(350,266,l),
(305,40,l),
(282,37,o),
(258,35,o),
(234,35,cs),
(97,35,o),
(82,115,o),
(122,315,cs),
(163,519,o),
(211,603,o),
(352,603,cs),
(382,603,o),
(417,600,o),
(452,594,c),
(462,634,l),
(432,642,o),
(388,647,o),
(351,647,cs),
(193,647,o),
(118,562,o),
(70,323,cs),
(21,80,o),
(65,-9,o),
(227,-9,cs)
);
}
);
width = 456;
}
);
metricLeft = C.ss20;
metricRight = H.ss20;
unicode = 71;
}
{
color = 8;
glyphname = H;
layers = (
{
anchors = (
{
name = bottom;
pos = (195,0);
},
{
name = top;
pos = (323,640);
}
);
layerId = "BA106321-29DE-4FD0-898D-B7B08A4D4215";
shapes = (
{
closed = 1;
nodes = (
(87,0,l),
(138,256,l),
(354,256,l),
(303,0,l),
(375,0,l),
(503,640,l),
(431,640,l),
(367,320,l),
(151,320,l),
(215,640,l),
(143,640,l),
(15,0,l)
);
}
);
width = 480;
},
{
anchors = (
{
name = bottom;
pos = (195,0);
},
{
name = top;
pos = (323,640);
}
);
layerId = "EBAB10B0-9FDE-44C7-9B16-DD2313400F4E";
shapes = (
{
closed = 1;
nodes = (
(117,0,l),
(167,248,l),
(323,248,l),
(273,0,l),
(385,0,l),
(513,640,l),
(401,640,l),
(339,328,l),
(183,328,l),
(245,640,l),
(133,640,l),
(5,0,l)
);
}
);
width = 480;
},
{
anchors = (
{
name = bottom;
pos = (195,0);
},
{
name = top;
pos = (323,640);
}
);
layerId = "C21910D5-47BB-472B-A83D-89B2B42B8F2A";
shapes = (
{
closed = 1;
nodes = (
(69,0,l),
(122,266,l),
(374,266,l),
(321,0,l),
(369,0,l),
(497,640,l),
(449,640,l),
(383,310,l),
(131,310,l),
(197,640,l),
(149,640,l),
(21,0,l)
);
}
);
width = 480;
}
);
metricWidth = "=_pixel*7.5";
unicode = 72;
}
{
color = 8;
glyphname = I;
kernLeft = I;
kernRight = I;
layers = (
{
anchors = (
{
name = "#center";
pos = (173,288);
},
{
name = bottom;
pos = (115,0);
},
{
name = bottomAttach;
pos = (215,0);
},
{
name = top;
pos = (243,640);
}
);
layerId = "C21910D5-47BB-472B-A83D-89B2B42B8F2A";
shapes = (
{
closed = 1;
nodes = (
(215,0,l),
(223,38,l),
(148,42,l),
(259,598,l),
(331,602,l),
(338,640,l),
(147,640,l),
(140,602,l),
(211,598,l),
(100,42,l),
(23,38,l),
(15,0,l)
);
}
);
width = 320;
},
{
anchors = (
{
name = "#center";
pos = (173,288);
},
{
name = bottom;
pos = (115,0);
},
{
name = bottomAttach;
pos = (221,0);
},
{
name = top;
pos = (243,640);
}
);
layerId = "BA106321-29DE-4FD0-898D-B7B08A4D4215";
shapes = (
{
closed = 1;
nodes = (
(221,0,l),
(233,60,l),
(164,64,l),
(266,576,l),
(332,580,l),
(344,640,l),
(141,640,l),
(129,580,l),
(194,576,l),
(92,64,l),
(21,60,l),
(9,0,l)
);
}
);
width = 320;
},
{
anchors = (
{
name = "#center";
pos = (173,288);
},
{
name = bottom;
pos = (115,0);
},
{
name = bottomAttach;
pos = (231,0);
},
{
name = top;
pos = (243,640);
}
);
layerId = "EBAB10B0-9FDE-44C7-9B16-DD2313400F4E";
shapes = (
{
closed = 1;
nodes = (
(231,0,l),
(246,76,l),
(187,80,l),
(283,560,l),
(339,564,l),
(354,640,l),
(131,640,l),
(116,564,l),
(171,560,l),
(75,80,l),
(14,76,l),
(-1,0,l)
);
}
);
width = 320;
}
);
metricWidth = "=_pixel*5";
unicode = 73;
}
{
color = 8;
glyphname = L;
kernRight = L;
layers = (
{
anchors = (
{
name = "#center";
pos = (153,352);
},
{
name = "#slash";
pos = (121,271);
},
{
name = bottom;
pos = (147,0);
},
{
name = top;
pos = (179,640);
}
);
layerId = "BA106321-29DE-4FD0-898D-B7B08A4D4215";
shapes = (
{
closed = 1;
nodes = (
(309,0,l),
(322,64,l),
(100,64,l),
(215,640,l),
(143,640,l),
(15,0,l)
);
}
);
width = 384;
},
{
anchors = (
{
name = "#center";
pos = (153,352);
},
{
name = "#slash";
pos = (121,271);
},
{
name = bottom;
pos = (147,0);
},
{
name = top;
pos = (189,640);
}
);
layerId = "EBAB10B0-9FDE-44C7-9B16-DD2313400F4E";
shapes = (
{
closed = 1;
nodes = (
(297,0,l),
(315,88,l),
(135,88,l),
(245,640,l),
(133,640,l),
(5,0,l)
);
}
);
width = 384;
},
{
anchors = (
{
name = "#center";
pos = (153,352);
},
{
name = "#slash";
pos = (121,271);
},
{
name = bottom;
pos = (147,0);
},
{
name = top;
pos = (173,640);
}
);
layerId = "C21910D5-47BB-472B-A83D-89B2B42B8F2A";
shapes = (
{
closed = 1;
nodes = (
(287,0,l),
(296,44,l),
(78,44,l),
(197,640,l),
(149,640,l),
(21,0,l)
);
}
);
width = 384;
}
);
metricWidth = "=_pixel*6";
unicode = 76;
}
{
color = 8;
glyphname = M;
layers = (
{
anchors = (
{
name = bottom;
pos = (243,0);
},
{
name = top;
pos = (371,640);
}
);
background = {
anchors = (
{
name = bottom;
pos = (243,0);
},
{
name = top;
pos = (371,640);
}
);
shapes = (
{
closed = 1;
nodes = (
(69,0,l),
(165,477,l),
(179,547,l),
(200,432,l),
(256,150,l),
(291,150,l),
(462,432,l),
(527,547,l),
(513,477,l),
(417,0,l),
(465,0,l),
(593,640,l),
(534,640,l),
(358,345,l),
(287,223,l),
(265,345,l),
(208,640,l),
(149,640,l),
(21,0,l)
);
}
);
};
layerId = "C21910D5-47BB-472B-A83D-89B2B42B8F2A";
shapes = (
{
closed = 1;
nodes = (
(69,0,l),
(165,477,l),
(179,547,l),
(200,432,l),
(256,150,l),
(291,150,l),
(462,432,l),
(527,547,l),
(513,477,l),
(417,0,l),
(465,0,l),
(593,640,l),
(534,640,l),
(358,345,l),
(287,223,l),
(265,345,l),
(208,640,l),
(149,640,l),
(21,0,l)
);
}
);
width = 576;
},
{
anchors = (
{
name = bottom;
pos = (243,0);
},
{
name = top;
pos = (371,640);
}
);
background = {
anchors = (
{
name = bottom;
pos = (243,0);
},
{
name = top;
pos = (371,640);
}
);
shapes = (
{
closed = 1;
nodes = (
(87,0,l),
(171,420,l),
(189,540,l),
(202,420,l),
(248,150,l),
(300,150,l),
(457,420,l),
(511,530,l),
(483,420,l),
(399,0,l),
(471,0,l),
(599,640,l),
(506,640,l),
(338,346,l),
(294,262,l),
(286,346,l),
(234,640,l),
(143,640,l),
(15,0,l)
);
}
);
};
layerId = "BA106321-29DE-4FD0-898D-B7B08A4D4215";
shapes = (
{
closed = 1;
nodes = (
(87,0,l),
(171,420,l),
(189,540,l),
(202,420,l),
(248,150,l),
(300,150,l),
(457,420,l),
(511,530,l),
(483,420,l),
(399,0,l),
(471,0,l),
(599,640,l),
(506,640,l),
(338,346,l),
(294,262,l),
(286,346,l),
(234,640,l),
(143,640,l),
(15,0,l)
);
}
);
width = 576;
},
{
anchors = (
{
name = bottom;
pos = (243,0);
},
{
name = top;
pos = (371,640);
}
);
background = {
anchors = (
{
name = bottom;
pos = (243,0);
},
{
name = top;
pos = (371,640);
}
);
shapes = (
{
closed = 1;
nodes = (
(117,0,l),
(182,325,l),
(201,456,l),
(204,400,l),
(235,150,l),
(313,150,l),
(447,400,l),
(469,456,l),
(434,325,l),
(369,0,l),
(481,0,l),
(609,640,l),
(476,640,l),
(327,348,l),
(298,282,l),
(295,348,l),
(264,640,l),
(133,640,l),
(5,0,l)
);
}
);
};
layerId = "EBAB10B0-9FDE-44C7-9B16-DD2313400F4E";
shapes = (
{
closed = 1;
nodes = (
(117,0,l),
(182,325,l),
(201,456,l),
(204,400,l),
(235,150,l),
(313,150,l),
(447,400,l),
(469,456,l),
(434,325,l),
(369,0,l),
(481,0,l),
(609,640,l),
(476,640,l),
(327,348,l),
(298,282,l),
(295,348,l),
(264,640,l),
(133,640,l),
(5,0,l)
);
}
);
width = 576;
}
);
metricWidth = "=_pixel*9";
unicode = 77;
}
{
color = 8;
glyphname = N;
layers = (
{
anchors = (
{
name = bottom;
pos = (195,0);
},
{
name = top;
pos = (323,640);
}
);
background = {
anchors = (
{
name = bottom;
pos = (195,0);
},
{
name = top;
pos = (323,640);
}
);
shapes = (
{
closed = 1;
nodes = (
(356,25,l),
(232,640,l),
(166,615,l),
(290,0,l)
);
},
{
closed = 1;
nodes = (
(87,0,l),
(210,608,l),
(234,640,l),
(143,640,l),
(15,0,l)
);
},
{
closed = 1;
nodes = (
(375,0,l),
(503,640,l),
(431,640,l),
(309,31,l),
(288,0,l)
);
}
);
};
layerId = "BA106321-29DE-4FD0-898D-B7B08A4D4215";
shapes = (
{
closed = 1;
nodes = (
(375,0,l),
(503,640,l),
(431,640,l),
(332,145,l),
(232,640,l),
(143,640,l),
(15,0,l),
(87,0,l),
(189,503,l),
(290,0,l)
);
}
);
width = 480;
},
{
anchors = (
{
name = bottom;
pos = (195,0);
},
{
name = top;
pos = (323,640);
}
);
background = {
anchors = (
{
name = bottom;
pos = (195,0);
},
{
name = top;
pos = (323,640);
}
);
shapes = (
{
closed = 1;
nodes = (
(360,0,l),
(268,640,l),
(164,640,l),
(256,0,l)
);
},
{
closed = 1;
nodes = (
(95,0,l),
(218,608,l),
(270,640,l),
(135,640,l),
(7,0,l)
);
},
{
closed = 1;
nodes = (
(383,0,l),
(511,640,l),
(423,640,l),
(300,31,l),
(253,0,l)
);
}
);
};
layerId = "EBAB10B0-9FDE-44C7-9B16-DD2313400F4E";
shapes = (
{
closed = 1;
nodes = (
(383,0,l),
(511,640,l),
(423,640,l),
(332,192,l),
(268,640,l),
(135,640,l),
(7,0,l),
(95,0,l),
(189,465,l),
(256,0,l)
);
}
);
width = 480;
},
{
anchors = (
{
name = bottom;
pos = (195,0);
},
{
name = top;
pos = (323,640);
}
);
background = {
anchors = (
{
name = bottom;
pos = (195,0);
},
{
name = top;
pos = (323,640);
}
);
shapes = (
{
closed = 1;
nodes = (
(357,0,l),
(218,640,l),
(167,640,l),
(306,0,l)
);
},
{
closed = 1;
nodes = (
(69,0,l),
(191,608,l),
(219,640,l),
(149,640,l),
(21,0,l)
);
},
{
closed = 1;
nodes = (
(369,0,l),
(497,640,l),
(449,640,l),
(327,31,l),
(305,0,l)
);
}
);
};
layerId = "C21910D5-47BB-472B-A83D-89B2B42B8F2A";
shapes = (
{
closed = 1;
nodes = (
(369,0,l),
(497,640,l),
(449,640,l),
(338,87,l),
(218,640,l),
(149,640,l),
(21,0,l),
(69,0,l),
(183,567,l),
(306,0,l)
);
}
);
width = 480;
}
);
metricWidth = "=_pixel*7.5";
unicode = 78;
}
{
color = 8;
glyphname = O;
kernLeft = O;
kernRight = O;
layers = (
{
anchors = (
{
name = "#center";
pos = (259,319);
},
{
name = bottom;
pos = (195,0);
},
{
name = bottomAttach;
pos = (260,0);
},
{
name = top;
pos = (323,640);
}
);
layerId = "BA106321-29DE-4FD0-898D-B7B08A4D4215";
shapes = (
{
closed = 1;
nodes = (
(335,-10,o),
(417,99,o),
(460,313,cs),
(505,538,o),
(462,650,o),
(320,650,cs),
(187,650,o),
(102,544,o),
(58,325,cs),
(14,105,o),
(60,-10,o),
(198,-10,cs)
);
},
{
closed = 1;
nodes = (
(112,56,o),
(94,125,o),
(132,313,cs),
(171,509,o),
(223,584,o),
(317,584,cs),
(407,584,o),
(424,515,o),
(386,325,cs),
(347,131,o),
(296,56,o),
(201,56,cs)
);
}
);
width = 480;
},
{
anchors = (
{
name = "#center";
pos = (259,319);
},
{
name = bottom;
pos = (195,0);
},
{
name = bottomAttach;
pos = (258,0);
},
{
name = top;
pos = (323,640);
}
);
layerId = "EBAB10B0-9FDE-44C7-9B16-DD2313400F4E";
shapes = (
{
closed = 1;
nodes = (
(343,-10,o),
(428,98,o),
(470,310,cs),
(516,537,o),
(469,650,o),
(319,650,cs),
(179,650,o),
(91,545,o),
(48,328,cs),
(3,106,o),
(53,-10,o),
(200,-10,cs)
);
},
{
closed = 1;
nodes = (
(135,72,o),
(125,136,o),
(160,310,cs),
(197,496,o),
(241,568,o),
(315,568,cs),
(383,568,o),
(393,504,o),
(358,328,cs),
(321,144,o),
(277,72,o),
(203,72,cs)
);
}
);
width = 480;
},
{
anchors = (
{
name = "#center";
pos = (259,319);
},
{
name = bottom;
pos = (195,0);
},
{
name = bottomAttach;
pos = (253,0);
},
{
name = top;
pos = (323,640);
}
);
layerId = "C21910D5-47BB-472B-A83D-89B2B42B8F2A";
shapes = (
{
closed = 1;
nodes = (
(331,-10,o),
(412,100,o),
(455,315,cs),
(500,539,o),
(459,650,o),
(322,650,cs),
(190,650,o),
(107,543,o),
(63,323,cs),
(19,104,o),
(62,-10,o),
(197,-10,cs)
);
},
{
closed = 1;
nodes = (
(97,34,o),
(74,119,o),
(113,315,cs),
(154,517,o),
(215,606,o),
(320,606,cs),
(421,606,o),
(444,521,o),
(405,323,cs),
(365,123,o),
(303,34,o),
(199,34,cs)
);
}
);
width = 480;
}
);
metricWidth = "=_pixel*7.5";
unicode = 79;
}
{
color = 8;
glyphname = Q;
kernLeft = O;
kernRight = Q;
layers = (
{
anchors = (
{
name = bottom;
pos = (170,-128);
},
{
name = top;
pos = (323,640);
}
);
background = {
shapes = (
{
closed = 1;
nodes = (
(368,-78,l),
(283,-72,o),
(249,-63,o),
(251,-3,c),
(178,3,l),
(174,-98,o),
(251,-137,o),
(350,-145,c)
);
},
{
closed = 1;
nodes = (
(335,-10,o),
(417,99,o),
(460,313,cs),
(505,538,o),
(462,650,o),
(320,650,cs),
(187,650,o),
(102,544,o),
(58,325,cs),
(14,105,o),
(60,-10,o),
(198,-10,cs)
);
},
{
closed = 1;
nodes = (
(112,56,o),
(94,125,o),
(132,313,cs),
(171,509,o),
(223,584,o),
(317,584,cs),
(407,584,o),
(424,515,o),
(386,325,cs),
(347,131,o),
(296,56,o),
(201,56,cs)
);
}
);
};
layerId = "BA106321-29DE-4FD0-898D-B7B08A4D4215";
shapes = (
{
closed = 1;
nodes = (
(368,-78,l),
(283,-72,o),
(249,-64,o),
(251,-4,c),
(357,22,o),
(423,129,o),
(460,313,cs),
(505,538,o),
(462,650,o),
(320,650,cs),
(187,650,o),
(102,544,o),
(58,325,cs),
(16,115,o),
(55,2,o),
(178,-9,c),
(180,-100,o),
(254,-137,o),
(350,-145,c)
);
},
{
closed = 1;
nodes = (
(112,56,o),
(94,125,o),
(132,313,cs),
(171,509,o),
(223,584,o),
(317,584,cs),
(407,584,o),
(424,515,o),
(386,325,cs),
(347,131,o),
(296,56,o),
(201,56,cs)
);
}
);
width = 480;
},
{
anchors = (
{
name = bottom;
pos = (170,-128);
},
{
name = top;
pos = (323,640);
}
);
background = {
shapes = (
{
closed = 1;
nodes = (
(377,-60,l),
(290,-58,o),
(248,-45,o),
(252,16,c),
(162,24,l),
(157,-91,o),
(220,-147,o),
(356,-152,c)
);
},
{
closed = 1;
nodes = (
(343,-10,o),
(428,98,o),
(470,310,cs),
(516,537,o),
(469,650,o),
(319,650,cs),
(179,650,o),
(91,545,o),
(48,328,cs),
(3,106,o),
(53,-10,o),
(200,-10,cs)
);
},
{
closed = 1;
nodes = (
(135,72,o),
(125,136,o),
(160,310,cs),
(197,496,o),
(241,568,o),
(315,568,cs),
(383,568,o),
(393,504,o),
(358,328,cs),
(321,144,o),
(277,72,o),
(203,72,cs)
);
}
);
};
layerId = "EBAB10B0-9FDE-44C7-9B16-DD2313400F4E";
shapes = (
{
closed = 1;
nodes = (
(377,-60,l),
(300,-58,o),
(259,-47,o),
(253,-5,c),
(365,20,o),
(433,125,o),
(470,310,cs),
(516,537,o),
(469,650,o),
(319,650,cs),
(179,650,o),
(91,545,o),
(48,328,cs),
(7,126,o),
(45,12,o),
(162,-7,c),
(170,-102,o),
(232,-147,o),
(356,-152,c)
);
},
{
closed = 1;
nodes = (
(135,72,o),
(125,136,o),
(160,310,cs),
(197,496,o),
(241,568,o),
(315,568,cs),
(383,568,o),
(393,504,o),
(358,328,cs),
(321,144,o),
(277,72,o),
(203,72,cs)
);
}
);
width = 480;
},
{
anchors = (
{
name = bottom;
pos = (170,-128);
},
{
name = top;
pos = (323,640);
}
);
background = {
shapes = (
{
closed = 1;
nodes = (
(358,-82,l),
(266,-81,o),
(235,-65,o),
(238,-2,c),
(194,2,l),
(189,-88,o),
(235,-128,o),
(350,-128,c)
);
},
{
closed = 1;
nodes = (
(331,-10,o),
(412,100,o),
(455,315,cs),
(500,539,o),
(459,650,o),
(322,650,cs),
(190,650,o),
(107,543,o),
(63,323,cs),
(19,104,o),
(62,-10,o),
(197,-10,cs)
);
},
{
closed = 1;
nodes = (
(97,34,o),
(74,119,o),
(113,315,cs),
(154,517,o),
(215,606,o),
(320,606,cs),
(421,606,o),
(444,521,o),
(405,323,cs),
(365,123,o),
(303,34,o),
(199,34,cs)
);
}
);
};
layerId = "C21910D5-47BB-472B-A83D-89B2B42B8F2A";
shapes = (
{
closed = 1;
nodes = (
(358,-82,l),
(267,-81,o),
(236,-67,o),
(238,-6,c),
(349,15,o),
(417,124,o),
(455,315,cs),
(500,539,o),
(459,650,o),
(322,650,cs),
(190,650,o),
(107,543,o),
(63,323,cs),
(19,105,o),
(60,-8,o),
(194,-10,c),
(193,-92,o),
(240,-128,o),
(350,-128,c)
);
},
{
closed = 1;
nodes = (
(97,34,o),
(74,119,o),
(113,315,cs),
(154,517,o),
(215,606,o),
(320,606,cs),
(421,606,o),
(444,521,o),
(405,323,cs),
(365,123,o),
(303,34,o),
(199,34,cs)
);
}
);
width = 480;
},
{
anchors = (
{
name = bottom;
pos = (182,-64);
},
{
name = top;
pos = (323,640);
}
);
associatedMasterId = "BA106321-29DE-4FD0-898D-B7B08A4D4215";
attr = {
coordinates = (
400,
-64,
1
);
};
background = {
shapes = (
{
closed = 1;
nodes = (
(381,-14,l),
(301,-13,o),
(272,-13,o),
(268,10,c),
(184,3,l),
(202,-67,o),
(260,-79,o),
(370,-81,c)
);
},
{
closed = 1;
nodes = (
(335,-10,o),
(417,99,o),
(460,313,cs),
(505,538,o),
(462,650,o),
(320,650,cs),
(187,650,o),
(102,544,o),
(58,325,cs),
(14,105,o),
(60,-10,o),
(198,-10,cs)
);
},
{
closed = 1;
nodes = (
(112,56,o),
(94,125,o),
(132,313,cs),
(171,509,o),
(223,584,o),
(317,584,cs),
(407,584,o),
(424,515,o),
(386,325,cs),
(347,131,o),
(296,56,o),
(201,56,cs)
);
}
);
};
layerId = "FD31C20C-01AF-47A9-8302-0051960E2FFE";
name = "5. Mar 25 at 09:21";
shapes = (
{
closed = 1;
nodes = (
(381,-14,l),
(311,-13,o),
(280,-12,o),
(271,2,c),
(366,36,o),
(425,139,o),
(460,313,cs),
(505,538,o),
(462,650,o),
(320,650,cs),
(187,650,o),
(102,544,o),
(58,325,cs),
(15,110,o),
(57,-4,o),
(188,-10,c),
(210,-69,o),
(266,-79,o),
(370,-81,c)
);
},
{
closed = 1;
nodes = (
(112,56,o),
(94,125,o),
(132,313,cs),
(171,509,o),
(223,584,o),
(317,584,cs),
(407,584,o),
(424,515,o),
(386,325,cs),
(347,131,o),
(296,56,o),
(201,56,cs)
);
}
);
width = 480;
},
{
anchors = (
{
name = bottom;
pos = (182,-64);
},
{
name = top;
pos = (323,640);
}
);
associatedMasterId = "EBAB10B0-9FDE-44C7-9B16-DD2313400F4E";
attr = {
coordinates = (
700,
-64,
1
);
};
background = {
shapes = (
{
closed = 1;
nodes = (
(343,-10,o),
(428,98,o),
(470,310,cs),
(516,537,o),
(469,650,o),
(319,650,cs),
(179,650,o),
(91,545,o),
(48,328,cs),
(3,106,o),
(53,-10,o),
(200,-10,cs)
);
},
{
closed = 1;
nodes = (
(135,72,o),
(125,136,o),
(160,310,cs),
(197,496,o),
(241,568,o),
(315,568,cs),
(383,568,o),
(393,504,o),
(358,328,cs),
(321,144,o),
(277,72,o),
(203,72,cs)
);
},
{
closed = 1;
nodes = (
(390,4,l),
(303,4,o),
(256,4,o),
(251,16,c),
(162,24,l),
(165,-48,o),
(232,-85,o),
(369,-88,c)
);
}
);
};
hints = (
{
horizontal = 1;
options = 4;
origin = (0,15);
target = (1,11);
type = TTStem;
},
{
horizontal = 1;
options = 4;
origin = (0,9);
target = (1,5);
type = TTStem;
},
{
options = 4;
origin = (0,12);
target = (1,2);
type = TTStem;
},
{
options = 4;
origin = (0,6);
target = (1,8);
type = TTStem;
},
{
options = 8;
origin = (0,12);
type = TTSnap;
},
{
options = 8;
origin = (0,6);
type = TTSnap;
}
);
layerId = "022C4C65-BAB8-4E3B-901F-6E459094ABC5";
name = "5. Mar 25 at 19:03";
shapes = (
{
closed = 1;
nodes = (
(390,4,l),
(344,4,o),
(310,4,o),
(286,6,c),
(378,43,o),
(437,144,o),
(470,310,cs),
(516,537,o),
(469,650,o),
(319,650,cs),
(179,650,o),
(91,545,o),
(48,328,cs),
(6,122,o),
(46,8,o),
(168,-8,c),
(188,-59,o),
(253,-85,o),
(369,-88,c)
);
},
{
closed = 1;
nodes = (
(135,72,o),
(125,136,o),
(160,310,cs),
(197,496,o),
(241,568,o),
(315,568,cs),
(383,568,o),
(393,504,o),
(358,328,cs),
(321,144,o),
(277,72,o),
(203,72,cs)
);
}
);
width = 480;
},
{
anchors = (
{
name = bottom;
pos = (182,-64);
},
{
name = top;
pos = (323,640);
}
);
associatedMasterId = "C21910D5-47BB-472B-A83D-89B2B42B8F2A";
attr = {
coordinates = (
200,
-64,
1
);
};
background = {
shapes = (
{
closed = 1;
nodes = (
(331,-10,o),
(412,100,o),
(455,315,cs),
(500,539,o),
(459,650,o),
(322,650,cs),
(190,650,o),
(107,543,o),
(63,323,cs),
(19,104,o),
(62,-10,o),
(197,-10,cs)
);
},
{
closed = 1;
nodes = (
(97,34,o),
(74,119,o),
(113,315,cs),
(154,517,o),
(215,606,o),
(320,606,cs),
(421,606,o),
(444,521,o),
(405,323,cs),
(365,123,o),
(303,34,o),
(199,34,cs)
);
},
{
closed = 1;
nodes = (
(369,-18,l),
(279,-18,o),
(245,-16,o),
(238,-2,c),
(192,2,l),
(196,-43,o),
(246,-64,o),
(361,-64,c)
);
}
);
};
hints = (
{
horizontal = 1;
options = 4;
origin = (0,15);
target = (1,11);
type = TTStem;
},
{
horizontal = 1;
options = 4;
origin = (0,9);
target = (1,5);
type = TTStem;
},
{
options = 4;
origin = (0,12);
target = (1,2);
type = TTStem;
},
{
options = 4;
origin = (0,6);
target = (1,8);
type = TTStem;
},
{
options = 8;
origin = (0,12);
type = TTSnap;
},
{
options = 8;
origin = (0,6);
type = TTSnap;
}
);
layerId = "E4F248DF-7447-4C8E-A423-3E46CECEC564";
name = "5. Mar 25 at 19:03";
shapes = (
{
closed = 1;
nodes = (
(369,-18,l),
(288,-18,o),
(253,-17,o),
(241,-6,c),
(348,16,o),
(417,125,o),
(455,315,cs),
(500,539,o),
(459,650,o),
(322,650,cs),
(190,650,o),
(107,543,o),
(63,323,cs),
(19,105,o),
(62,-9,o),
(194,-10,c),
(206,-48,o),
(257,-64,o),
(361,-64,c)
);
},
{
closed = 1;
nodes = (
(97,34,o),
(74,119,o),
(113,315,cs),
(154,517,o),
(215,606,o),
(320,606,cs),
(421,606,o),
(444,521,o),
(405,323,cs),
(365,123,o),
(303,34,o),
(199,34,cs)
);
}
);
width = 480;
}
);
metricWidth = "=_pixel*7.5";
unicode = 81;
}
{
glyphname = R;
kernRight = R;
layers = (
{
anchors = (
{
name = bottom;
pos = (179,0);
},
{
name = top;
pos = (291,640);
}
);
background = {
anchors = (
{
name = bottom;
pos = (179,0);
},
{
name = top;
pos = (291,640);
}
);
shapes = (
{
closed = 1;
nodes = (
(149,640,l),
(21,0,l),
(69,0,l),
(119,251,l),
(201,251,l),
(210,253,l),
(223,253,ls),
(331,253,o),
(413,312,o),
(439,442,cs),
(464,568,o),
(407,640,o),
(296,640,cs)
);
},
{
closed = 1;
nodes = (
(128,295,l),
(188,596,l),
(290,596,ls),
(388,596,o),
(406,537,o),
(388,449,cs),
(370,357,o),
(324,295,o),
(226,295,cs)
);
},
{
closed = 1;
nodes = (
(360,0,l),
(376,160,o),
(309,270,o),
(183,270,c),
(184,255,l),
(291,209,o),
(321,138,o),
(311,0,c)
);
}
);
};
layerId = "C21910D5-47BB-472B-A83D-89B2B42B8F2A";
shapes = (
{
closed = 1;
nodes = (
(149,640,l),
(21,0,l),
(69,0,l),
(119,251,l),
(193,251,l),
(292,205,o),
(321,135,o),
(311,0,c),
(360,0,l),
(373,126,o),
(334,220,o),
(257,255,c),
(347,266,o),
(416,327,o),
(439,442,cs),
(464,568,o),
(407,640,o),
(296,640,cs)
);
},
{
closed = 1;
nodes = (
(128,295,l),
(188,596,l),
(290,596,ls),
(388,596,o),
(406,537,o),
(388,449,cs),
(370,357,o),
(324,295,o),
(226,295,cs)
);
}
);
width = 448;
},
{
anchors = (
{
name = bottom;
pos = (179,0);
},
{
name = top;
pos = (291,640);
}
);
background = {
anchors = (
{
name = bottom;
pos = (179,0);
},
{
name = top;
pos = (291,640);
}
);
shapes = (
{
closed = 1;
nodes = (
(143,640,l),
(15,0,l),
(87,0,l),
(135,241,l),
(200,241,l),
(210,251,l),
(223,251,ls),
(335,251,o),
(418,309,o),
(443,434,cs),
(469,565,o),
(408,640,o),
(296,640,cs)
);
},
{
closed = 1;
nodes = (
(148,305,l),
(202,576,l),
(281,576,ls),
(374,576,o),
(385,525,o),
(369,446,cs),
(353,362,o),
(317,305,o),
(222,305,cs)
);
},
{
closed = 1;
nodes = (
(365,0,l),
(383,163,o),
(318,271,o),
(183,271,c),
(183,245,l),
(269,202,o),
(306,136,o),
(293,0,c)
);
}
);
};
layerId = "BA106321-29DE-4FD0-898D-B7B08A4D4215";
shapes = (
{
closed = 1;
nodes = (
(143,640,l),
(15,0,l),
(87,0,l),
(135,241,l),
(191,241,l),
(271,198,o),
(306,133,o),
(293,0,c),
(365,0,l),
(379,126,o),
(343,218,o),
(266,254,c),
(355,267,o),
(421,325,o),
(443,434,cs),
(469,565,o),
(408,640,o),
(296,640,cs)
);
},
{
closed = 1;
nodes = (
(148,305,l),
(202,576,l),
(281,576,ls),
(374,576,o),
(385,525,o),
(369,446,cs),
(353,362,o),
(317,305,o),
(222,305,cs)
);
}
);
width = 448;
},
{
anchors = (
{
name = bottom;
pos = (179,0);
},
{
name = top;
pos = (291,640);
}
);
background = {
anchors = (
{
name = bottom;
pos = (179,0);
},
{
name = top;
pos = (291,640);
}
);
shapes = (
{
closed = 1;
nodes = (
(133,640,l),
(5,0,l),
(117,0,l),
(164,233,l),
(199,233,l),
(209,243,l),
(222,243,ls),
(340,243,o),
(426,301,o),
(451,424,cs),
(479,562,o),
(415,640,o),
(298,640,cs)
);
},
{
closed = 1;
nodes = (
(180,313,l),
(231,570,l),
(266,570,ls),
(346,570,o),
(354,521,o),
(340,451,cs),
(324,371,o),
(291,313,o),
(209,313,cs)
);
},
{
closed = 1;
nodes = (
(375,0,l),
(395,169,o),
(324,279,o),
(184,279,c),
(182,238,l),
(249,196,o),
(277,132,o),
(262,0,c)
);
}
);
};
layerId = "EBAB10B0-9FDE-44C7-9B16-DD2313400F4E";
shapes = (
{
closed = 1;
nodes = (
(133,640,l),
(5,0,l),
(117,0,l),
(164,233,l),
(190,233,l),
(251,191,o),
(276,126,o),
(262,0,c),
(375,0,l),
(389,118,o),
(358,208,o),
(291,251,c),
(372,270,o),
(431,326,o),
(451,424,cs),
(479,562,o),
(415,640,o),
(298,640,cs)
);
},
{
closed = 1;
nodes = (
(180,313,l),
(231,570,l),
(266,570,ls),
(346,570,o),
(354,521,o),
(340,451,cs),
(324,371,o),
(291,313,o),
(209,313,cs)
);
}
);
width = 448;
}
);
unicode = 82;
}
{
glyphname = S;
kernLeft = S;
kernRight = S;
layers = (
{
anchors = (
{
name = bottom;
pos = (191,0);
},
{
name = top;
pos = (307,640);
},
{
name = topright;
pos = (395,640);
}
);
layerId = "C21910D5-47BB-472B-A83D-89B2B42B8F2A";
shapes = (
{
closed = 1;
nodes = (
(300,-8,o),
(370,62,o),
(370,160,cs),
(370,324,o),
(159,298,o),
(159,448,cs),
(159,547,o),
(216,604,o),
(334,604,cs),
(369,604,o),
(404,599,o),
(433,592,c),
(445,630,l),
(417,640,o),
(377,648,o),
(334,648,cs),
(184,648,o),
(111,564,o),
(111,446,cs),
(111,269,o),
(322,288,o),
(322,156,cs),
(322,89,o),
(273,36,o),
(161,36,cs),
(118,36,o),
(76,43,o),
(35,58,c),
(20,22,l),
(62,2,o),
(114,-8,o),
(161,-8,cs)
);
}
);
width = 448;
},
{
anchors = (
{
name = bottom;
pos = (191,0);
},
{
name = top;
pos = (307,640);
},
{
name = topright;
pos = (403,640);
}
);
layerId = "BA106321-29DE-4FD0-898D-B7B08A4D4215";
shapes = (
{
closed = 1;
nodes = (
(304,-8,o),
(377,62,o),
(377,162,cs),
(377,333,o),
(178,312,o),
(178,448,cs),
(178,537,o),
(228,584,o),
(334,584,cs),
(369,584,o),
(405,579,o),
(434,571,c),
(451,629,l),
(422,639,o),
(379,648,o),
(334,648,cs),
(180,648,o),
(104,564,o),
(104,441,cs),
(104,262,o),
(303,280,o),
(303,155,cs),
(303,95,o),
(260,56,o),
(161,56,cs),
(119,56,o),
(77,63,o),
(37,79,c),
(14,23,l),
(58,1,o),
(112,-8,o),
(161,-8,cs)
);
}
);
width = 448;
},
{
anchors = (
{
name = bottom;
pos = (191,0);
},
{
name = top;
pos = (307,640);
},
{
name = topright;
pos = (403,640);
}
);
layerId = "EBAB10B0-9FDE-44C7-9B16-DD2313400F4E";
shapes = (
{
closed = 1;
nodes = (
(311,-8,o),
(389,62,o),
(389,166,cs),
(389,340,o),
(208,328,o),
(208,462,cs),
(208,526,o),
(248,566,o),
(334,566,cs),
(373,566,o),
(412,560,o),
(444,551,c),
(461,627,l),
(430,638,o),
(383,648,o),
(334,648,cs),
(174,648,o),
(92,564,o),
(92,437,cs),
(92,270,o),
(273,254,o),
(273,155,cs),
(273,103,o),
(239,74,o),
(161,74,cs),
(116,74,o),
(70,82,o),
(27,99,c),
(4,25,l),
(51,2,o),
(109,-8,o),
(161,-8,cs)
);
}
);
width = 448;
}
);
unicode = 83;
}
{
glyphname = T;
kernLeft = T;
kernRight = T;
layers = (
{
anchors = (
{
name = "#center";
pos = (237,288);
},
{
name = bottom;
pos = (179,0);
},
{
name = bottom_2;
pos = (243,0);
},
{
name = top;
pos = (307,640);
},
{
name = topright;
pos = (443,640);
}
);
layerId = "C21910D5-47BB-472B-A83D-89B2B42B8F2A";
shapes = (
{
closed = 1;
nodes = (
(475,640,l),
(139,640,l),
(130,596,l),
(273,596,l),
(154,0,l),
(204,0,l),
(323,596,l),
(466,596,l)
);
}
);
width = 448;
},
{
anchors = (
{
name = "#center";
pos = (237,288);
},
{
name = bottom;
pos = (179,0);
},
{
name = bottom_2;
pos = (243,0);
},
{
name = top;
pos = (307,640);
},
{
name = topright;
pos = (443,640);
}
);
layerId = "BA106321-29DE-4FD0-898D-B7B08A4D4215";
shapes = (
{
closed = 1;
nodes = (
(487,640,l),
(127,640,l),
(114,576,l),
(258,576,l),
(143,0,l),
(215,0,l),
(330,576,l),
(474,576,l)
);
}
);
width = 448;
},
{
anchors = (
{
name = "#center";
pos = (237,288);
},
{
name = bottom;
pos = (179,0);
},
{
name = bottom_2;
pos = (243,0);
},
{
name = top;
pos = (307,640);
},
{
name = topright;
pos = (443,640);
}
);
layerId = "EBAB10B0-9FDE-44C7-9B16-DD2313400F4E";
shapes = (
{
closed = 1;
nodes = (
(507,640,l),
(107,640,l),
(91,560,l),
(235,560,l),
(123,0,l),
(235,0,l),
(347,560,l),
(491,560,l)
);
}
);
width = 448;
}
);
unicode = 84;
}
{
color = 8;
glyphname = U;
kernLeft = U;
kernRight = U;
layers = (
{
anchors = (
{
name = bottom;
pos = (195,0);
},
{
name = bottomAttach;
pos = (254,0);
},
{
name = top;
pos = (323,640);
}
);
layerId = "BA106321-29DE-4FD0-898D-B7B08A4D4215";
shapes = (
{
closed = 1;
nodes = (
(66,175,ls),
(40,46,o),
(100,-8,o),
(199,-8,cs),
(292,-8,o),
(367,40,o),
(393,170,cs),
(487,640,l),
(415,640,l),
(322,172,ls),
(308,103,o),
(277,56,o),
(201,56,cs),
(127,56,o),
(122,97,o),
(136,166,cs),
(231,640,l),
(159,640,l)
);
}
);
width = 480;
},
{
anchors = (
{
name = bottom;
pos = (195,0);
},
{
name = bottomAttach;
pos = (257,0);
},
{
name = top;
pos = (323,640);
}
);
layerId = "EBAB10B0-9FDE-44C7-9B16-DD2313400F4E";
shapes = (
{
closed = 1;
nodes = (
(59,191,ls),
(31,49,o),
(95,-8,o),
(200,-8,cs),
(299,-8,o),
(377,41,o),
(406,183,cs),
(497,640,l),
(385,640,l),
(294,186,ls),
(281,118,o),
(255,72,o),
(203,72,cs),
(154,72,o),
(155,110,o),
(169,178,cs),
(261,640,l),
(149,640,l)
);
}
);
width = 480;
},
{
anchors = (
{
name = bottom;
pos = (195,0);
},
{
name = bottomAttach;
pos = (253,0);
},
{
name = top;
pos = (323,640);
}
);
layerId = "C21910D5-47BB-472B-A83D-89B2B42B8F2A";
shapes = (
{
closed = 1;
nodes = (
(70,165,ls),
(46,44,o),
(103,-8,o),
(197,-8,cs),
(287,-8,o),
(361,40,o),
(386,163,cs),
(481,640,l),
(433,640,l),
(338,163,ls),
(324,94,o),
(286,36,o),
(199,36,cs),
(111,36,o),
(103,90,o),
(117,159,cs),
(213,640,l),
(165,640,l)
);
}
);
width = 480;
}
);
metricWidth = "=_pixel*7.5";
unicode = 85;
}
{
glyphname = V;
kernLeft = V;
kernRight = V;
layers = (
{
anchors = (
{
name = bottom;
pos = (179,0);
},
{
name = top;
pos = (307,640);
}
);
background = {
anchors = (
{
name = bottom;
pos = (179,0);
},
{
name = top;
pos = (307,640);
}
);
shapes = (
{
closed = 1;
nodes = (
(199,-4,l),
(317,164,o),
(419,397,o),
(490,640,c),
(438,640,l),
(367,398,o),
(276,193,o),
(184,53,c),
(193,49,l),
(158,191,o),
(149,396,o),
(175,640,c),
(125,640,l),
(97,397,o),
(108,163,o),
(161,-4,c)
);
}
);
};
layerId = "C21910D5-47BB-472B-A83D-89B2B42B8F2A";
shapes = (
{
closed = 1;
nodes = (
(199,-4,l),
(317,164,o),
(419,397,o),
(490,640,c),
(438,640,l),
(368,402,o),
(280,202,o),
(190,62,c),
(158,203,o),
(150,404,o),
(175,640,c),
(125,640,l),
(97,397,o),
(108,163,o),
(161,-4,c)
);
}
);
width = 448;
},
{
anchors = (
{
name = bottom;
pos = (179,0);
},
{
name = top;
pos = (307,640);
}
);
background = {
anchors = (
{
name = bottom;
pos = (179,0);
},
{
name = top;
pos = (307,640);
}
);
shapes = (
{
closed = 1;
nodes = (
(213,-3,l),
(330,164,o),
(429,397,o),
(497,640,c),
(421,640,l),
(352,403,o),
(268,203,o),
(180,66,c),
(201,60,l),
(172,199,o),
(169,401,o),
(193,640,c),
(119,640,l),
(89,397,o),
(97,164,o),
(149,-3,c)
);
}
);
};
layerId = "BA106321-29DE-4FD0-898D-B7B08A4D4215";
shapes = (
{
closed = 1;
nodes = (
(213,-3,l),
(330,164,o),
(429,397,o),
(497,640,c),
(421,640,l),
(356,417,o),
(278,227,o),
(195,90,c),
(172,227,o),
(171,419,o),
(193,640,c),
(119,640,l),
(89,397,o),
(97,164,o),
(149,-3,c)
);
}
);
width = 448;
},
{
anchors = (
{
name = bottom;
pos = (179,0);
},
{
name = top;
pos = (307,640);
}
);
background = {
anchors = (
{
name = bottom;
pos = (179,0);
},
{
name = top;
pos = (307,640);
}
);
shapes = (
{
closed = 1;
nodes = (
(235,0,l),
(346,166,o),
(439,398,o),
(507,640,c),
(391,640,l),
(325,404,o),
(249,204,o),
(173,67,c),
(209,59,l),
(188,198,o),
(192,400,o),
(222,640,c),
(108,640,l),
(80,398,o),
(84,166,o),
(130,0,c)
);
}
);
};
layerId = "EBAB10B0-9FDE-44C7-9B16-DD2313400F4E";
shapes = (
{
closed = 1;
nodes = (
(235,0,l),
(346,166,o),
(439,398,o),
(507,640,c),
(391,640,l),
(334,433,o),
(269,255,o),
(204,122,c),
(193,257,o),
(199,433,o),
(222,640,c),
(108,640,l),
(80,398,o),
(84,166,o),
(130,0,c)
);
}
);
width = 448;
}
);
unicode = 86;
}
{
color = 8;
glyphname = W;
kernLeft = W;
kernRight = W;
layers = (
{
anchors = (
{
name = bottom;
pos = (243,0);
},
{
name = top;
pos = (371,640);
}
);
background = {
anchors = (
{
name = bottom;
pos = (243,0);
},
{
name = top;
pos = (371,640);
}
);
shapes = (
{
closed = 1;
nodes = (
(146,0,l),
(127,211,o),
(133,409,o),
(177,640,c),
(128,640,l),
(87,408,o),
(76,210,o),
(106,0,c)
);
},
{
closed = 1;
nodes = (
(264,190,o),
(332,384,o),
(369,576,c),
(334,576,l),
(293,384,o),
(223,190,o),
(122,0,c),
(162,0,l)
);
},
{
closed = 1;
nodes = (
(494,210,o),
(563,408,o),
(614,640,c),
(565,640,l),
(517,409,o),
(445,211,o),
(342,0,c),
(380,0,l)
);
},
{
closed = 1;
nodes = (
(366,0,l),
(340,190,o),
(347,384,o),
(382,576,c),
(347,576,l),
(308,384,o),
(296,190,o),
(324,0,c)
);
}
);
};
layerId = "C21910D5-47BB-472B-A83D-89B2B42B8F2A";
shapes = (
{
closed = 1;
nodes = (
(162,0,l),
(227,121,o),
(278,242,o),
(316,364,c),
(305,243,o),
(306,121,o),
(324,0,c),
(380,0,l),
(494,210,o),
(563,408,o),
(614,640,c),
(565,640,l),
(520,423,o),
(454,237,o),
(361,40,c),
(341,218,o),
(349,397,o),
(382,576,c),
(334,576,l),
(296,398,o),
(233,217,o),
(143,40,c),
(128,237,o),
(136,424,o),
(177,640,c),
(128,640,l),
(87,408,o),
(76,210,o),
(106,0,c)
);
}
);
width = 576;
},
{
anchors = (
{
name = bottom;
pos = (243,0);
},
{
name = top;
pos = (371,640);
}
);
background = {
anchors = (
{
name = bottom;
pos = (243,0);
},
{
name = top;
pos = (371,640);
}
);
shapes = (
{
closed = 1;
nodes = (
(150,0,l),
(141,211,o),
(151,409,o),
(193,640,c),
(121,640,l),
(80,408,o),
(66,210,o),
(91,0,c)
);
},
{
closed = 1;
nodes = (
(273,190,o),
(331,373,o),
(370,576,c),
(322,576,l),
(282,384,o),
(214,190,o),
(120,0,c),
(175,0,l)
);
},
{
closed = 1;
nodes = (
(504,210,o),
(570,408,o),
(621,640,c),
(549,640,l),
(499,409,o),
(431,211,o),
(338,0,c),
(395,0,l)
);
},
{
closed = 1;
nodes = (
(370,0,l),
(352,190,o),
(358,384,o),
(394,576,c),
(346,576,l),
(305,373,o),
(288,190,o),
(311,0,c)
);
}
);
};
layerId = "BA106321-29DE-4FD0-898D-B7B08A4D4215";
shapes = (
{
closed = 1;
nodes = (
(175,0,l),
(231,109,o),
(274,214,o),
(308,324,c),
(298,215,o),
(298,108,o),
(311,0,c),
(395,0,l),
(504,210,o),
(570,408,o),
(621,640,c),
(549,640,l),
(504,432,o),
(445,251,o),
(365,62,c),
(354,232,o),
(362,405,o),
(394,576,c),
(322,576,l),
(286,403,o),
(228,230,o),
(148,58,c),
(143,249,o),
(155,431,o),
(193,640,c),
(121,640,l),
(80,408,o),
(66,210,o),
(91,0,c)
);
}
);
width = 576;
},
{
anchors = (
{
name = bottom;
pos = (243,0);
},
{
name = top;
pos = (371,640);
}
);
background = {
anchors = (
{
name = bottom;
pos = (243,0);
},
{
name = top;
pos = (371,640);
}
);
shapes = (
{
closed = 1;
nodes = (
(170,0,l),
(161,211,o),
(171,409,o),
(213,640,c),
(100,640,l),
(60,408,o),
(46,210,o),
(71,0,c)
);
},
{
closed = 1;
nodes = (
(279,190,o),
(332,356,o),
(375,576,c),
(307,576,l),
(267,384,o),
(201,190,o),
(110,0,c),
(185,0,l)
);
},
{
closed = 1;
nodes = (
(524,210,o),
(590,408,o),
(642,640,c),
(529,640,l),
(479,409,o),
(411,211,o),
(318,0,c),
(415,0,l)
);
},
{
closed = 1;
nodes = (
(380,0,l),
(365,190,o),
(373,384,o),
(409,576,c),
(341,576,l),
(296,356,o),
(282,190,o),
(301,0,c)
);
}
);
};
layerId = "EBAB10B0-9FDE-44C7-9B16-DD2313400F4E";
shapes = (
{
closed = 1;
nodes = (
(185,0,l),
(231,93,o),
(266,178,o),
(296,269,c),
(290,180,o),
(292,91,o),
(301,0,c),
(415,0,l),
(524,210,o),
(590,408,o),
(642,640,c),
(529,640,l),
(489,457,o),
(438,295,o),
(373,132,c),
(370,278,o),
(381,427,o),
(409,576,c),
(307,576,l),
(276,427,o),
(229,276,o),
(167,127,c),
(166,294,o),
(180,457,o),
(213,640,c),
(100,640,l),
(60,408,o),
(46,210,o),
(71,0,c)
);
}
);
width = 576;
}
);
metricWidth = "=_pixel*9";
unicode = 87;
}
{
glyphname = Y;
kernLeft = Y;
kernRight = Y;
layers = (
{
anchors = (
{
name = bottom;
pos = (179,0);
},
{
name = top;
pos = (307,640);
}
);
background = {
anchors = (
{
name = bottom;
pos = (179,0);
},
{
name = top;
pos = (307,640);
}
);
shapes = (
{
closed = 1;
nodes = (
(244,202,l),
(351,312,o),
(430,448,o),
(490,640,c),
(440,640,l),
(380,458,o),
(313,335,o),
(198,202,c)
);
},
{
closed = 1;
nodes = (
(203,0,l),
(244,202,l),
(196,202,l),
(155,0,l)
);
},
{
closed = 1;
nodes = (
(237,200,l),
(177,334,o),
(159,457,o),
(173,640,c),
(126,640,l),
(110,449,o),
(134,312,o),
(196,202,c)
);
}
);
};
layerId = "C21910D5-47BB-472B-A83D-89B2B42B8F2A";
shapes = (
{
closed = 1;
nodes = (
(203,0,l),
(244,202,l),
(351,312,o),
(430,448,o),
(490,640,c),
(440,640,l),
(385,473,o),
(323,354,o),
(223,232,c),
(174,354,o),
(160,471,o),
(173,640,c),
(126,640,l),
(110,449,o),
(134,312,o),
(196,202,c),
(155,0,l)
);
}
);
width = 448;
},
{
anchors = (
{
name = bottom;
pos = (179,0);
},
{
name = top;
pos = (307,640);
}
);
background = {
anchors = (
{
name = bottom;
pos = (179,0);
},
{
name = top;
pos = (307,640);
}
);
shapes = (
{
closed = 1;
nodes = (
(256,202,l),
(361,312,o),
(437,449,o),
(496,640,c),
(422,640,l),
(364,456,o),
(304,348,o),
(186,202,c)
);
},
{
closed = 1;
nodes = (
(215,0,l),
(256,202,l),
(184,202,l),
(143,0,l)
);
},
{
closed = 1;
nodes = (
(250,200,l),
(189,347,o),
(176,455,o),
(190,640,c),
(120,640,l),
(104,449,o),
(126,312,o),
(184,202,c)
);
}
);
};
layerId = "BA106321-29DE-4FD0-898D-B7B08A4D4215";
shapes = (
{
closed = 1;
nodes = (
(215,0,l),
(256,202,l),
(361,312,o),
(437,449,o),
(496,640,c),
(422,640,l),
(371,479,o),
(319,377,o),
(228,256,c),
(186,376,o),
(178,480,o),
(190,640,c),
(120,640,l),
(104,449,o),
(126,312,o),
(184,202,c),
(143,0,l)
);
}
);
width = 448;
},
{
anchors = (
{
name = bottom;
pos = (179,0);
},
{
name = top;
pos = (307,640);
}
);
background = {
anchors = (
{
name = bottom;
pos = (179,0);
},
{
name = top;
pos = (307,640);
}
);
shapes = (
{
closed = 1;
nodes = (
(276,202,l),
(376,312,o),
(447,449,o),
(506,640,c),
(393,640,l),
(345,449,o),
(294,358,o),
(177,202,c)
);
},
{
closed = 1;
nodes = (
(235,0,l),
(276,202,l),
(164,202,l),
(123,0,l)
);
},
{
closed = 1;
nodes = (
(256,198,l),
(204,355,o),
(193,447,o),
(221,640,c),
(110,640,l),
(93,449,o),
(111,312,o),
(164,202,c)
);
}
);
};
layerId = "EBAB10B0-9FDE-44C7-9B16-DD2313400F4E";
shapes = (
{
closed = 1;
nodes = (
(235,0,l),
(276,202,l),
(376,312,o),
(447,449,o),
(506,640,c),
(393,640,l),
(353,481,o),
(312,392,o),
(234,278,c),
(202,391,o),
(198,481,o),
(221,640,c),
(110,640,l),
(93,449,o),
(111,312,o),
(164,202,c),
(123,0,l)
);
}
);
width = 448;
}
);
unicode = 89;
}
{
color = 8;
glyphname = Z;
kernLeft = Z;
kernRight = Z;
layers = (
{
anchors = (
{
name = "#center";
pos = (223,320);
},
{
name = bottom;
pos = (159,0);
},
{
name = top;
pos = (287,640);
}
);
background = {
anchors = (
{
name = bottom;
pos = (159,0);
},
{
name = center;
pos = (223,320);
},
{
name = top;
pos = (287,640);
}
);
shapes = (
{
closed = 1;
nodes = (
(441,588,l),
(359,588,l),
(9,52,l),
(91,52,l)
);
},
{
closed = 1;
nodes = (
(323,0,l),
(336,64,l),
(47,64,l),
(9,52,l),
(-2,0,l)
);
},
{
closed = 1;
nodes = (
(402,576,l),
(441,588,l),
(451,640,l),
(138,640,l),
(125,576,l)
);
}
);
};
layerId = "BA106321-29DE-4FD0-898D-B7B08A4D4215";
shapes = (
{
closed = 1;
nodes = (
(323,0,l),
(336,64,l),
(99,64,l),
(441,588,l),
(451,640,l),
(138,640,l),
(125,576,l),
(351,576,l),
(9,52,l),
(-2,0,l)
);
}
);
width = 416;
},
{
anchors = (
{
name = "#center";
pos = (223,320);
},
{
name = bottom;
pos = (159,0);
},
{
name = top;
pos = (287,640);
}
);
background = {
anchors = (
{
name = bottom;
pos = (159,0);
},
{
name = center;
pos = (223,320);
},
{
name = top;
pos = (287,640);
}
);
shapes = (
{
closed = 1;
nodes = (
(449,580,l),
(325,580,l),
(0,60,l),
(124,60,l)
);
},
{
closed = 1;
nodes = (
(333,0,l),
(349,80,l),
(50,80,l),
(0,60,l),
(-12,0,l)
);
},
{
closed = 1;
nodes = (
(399,560,l),
(449,580,l),
(461,640,l),
(128,640,l),
(112,560,l)
);
}
);
};
layerId = "EBAB10B0-9FDE-44C7-9B16-DD2313400F4E";
shapes = (
{
closed = 1;
nodes = (
(333,0,l),
(349,80,l),
(137,80,l),
(449,580,l),
(461,640,l),
(128,640,l),
(112,560,l),
(313,560,l),
(0,60,l),
(-12,0,l)
);
}
);
width = 416;
},
{
anchors = (
{
name = "#center";
pos = (223,320);
},
{
name = bottom;
pos = (159,0);
},
{
name = top;
pos = (287,640);
}
);
background = {
anchors = (
{
name = bottom;
pos = (159,0);
},
{
name = center;
pos = (223,320);
},
{
name = top;
pos = (287,640);
}
);
shapes = (
{
closed = 1;
nodes = (
(438,603,l),
(384,603,l),
(12,37,l),
(66,37,l)
);
},
{
closed = 1;
nodes = (
(317,0,l),
(326,44,l),
(43,44,l),
(12,37,l),
(4,0,l)
);
},
{
closed = 1;
nodes = (
(406,596,l),
(438,603,l),
(445,640,l),
(144,640,l),
(135,596,l)
);
}
);
};
layerId = "C21910D5-47BB-472B-A83D-89B2B42B8F2A";
shapes = (
{
closed = 1;
nodes = (
(317,0,l),
(326,44,l),
(71,44,l),
(438,603,l),
(445,640,l),
(144,640,l),
(135,596,l),
(379,596,l),
(12,37,l),
(4,0,l)
);
}
);
width = 416;
}
);
unicode = 90;
}
{
glyphname = bracketleft;
kernRight = parenleft;
layers = (
{
layerId = "C21910D5-47BB-472B-A83D-89B2B42B8F2A";
shapes = (
{
closed = 1;
nodes = (
(424,704,l),
(252,704,l),
(98,-64,l),
(270,-64,l),
(279,-20,l),
(155,-20,l),
(291,660,l),
(415,660,l)
);
}
);
width = 448;
},
{
layerId = "BA106321-29DE-4FD0-898D-B7B08A4D4215";
shapes = (
{
closed = 1;
nodes = (
(436,704,l),
(240,704,l),
(86,-64,l),
(282,-64,l),
(295,0,l),
(171,0,l),
(299,640,l),
(423,640,l)
);
}
);
width = 448;
},
{
layerId = "EBAB10B0-9FDE-44C7-9B16-DD2313400F4E";
shapes = (
{
closed = 1;
nodes = (
(456,704,l),
(220,704,l),
(66,-64,l),
(302,-64,l),
(318,16,l),
(194,16,l),
(316,624,l),
(440,624,l)
);
}
);
width = 448;
}
);
unicode = 91;
}
{
glyphname = grave;
layers = (
{
layerId = "C21910D5-47BB-472B-A83D-89B2B42B8F2A";
shapes = (
{
closed = 1;
nodes = (
(307,640,l),
(229,640,l),
(269,384,l),
(320,384,l)
);
}
);
width = 448;
},
{
layerId = "BA106321-29DE-4FD0-898D-B7B08A4D4215";
shapes = (
{
closed = 1;
nodes = (
(317,640,l),
(219,640,l),
(259,384,l),
(329,384,l)
);
}
);
width = 448;
},
{
layerId = "EBAB10B0-9FDE-44C7-9B16-DD2313400F4E";
shapes = (
{
closed = 1;
nodes = (
(335,640,l),
(200,640,l),
(241,384,l),
(349,384,l)
);
}
);
width = 448;
}
);
unicode = 96;
}
{
color = 8;
glyphname = a;
kernLeft = a;
kernRight = n;
layers = (
{
anchors = (
{
name = bottom;
pos = (163,0);
},
{
name = bottomAttach;
pos = (315,0);
},
{
name = top;
pos = (253,448);
}
);
background = {
anchors = (
{
name = bottom;
pos = (163,0);
},
{
name = bottomAttach;
pos = (315,0);
},
{
name = top;
pos = (253,448);
}
);
shapes = (
{
closed = 1;
nodes = (
(315,0,l),
(324,64,l),
(370,296,ls),
(392,406,o),
(341,453,o),
(242,453,cs),
(189,453,o),
(137,438,o),
(94,420,c),
(108,360,l),
(146,374,o),
(191,388,o),
(234,388,cs),
(295,388,o),
(312,365,o),
(297,288,cs),
(253,67,l),
(253,64,l),
(249,0,l)
);
},
{
closed = 1;
nodes = (
(200,-4,o),
(252,45,o),
(308,116,c),
(271,148,l),
(222,91,o),
(192,60,o),
(138,60,cs),
(103,60,o),
(91,76,o),
(91,105,cs),
(91,170,o),
(154,207,o),
(305,207,c),
(305,266,l),
(129,266,o),
(15,216,o),
(15,94,cs),
(15,31,o),
(56,-4,o),
(120,-4,cs)
);
}
);
};
layerId = "BA106321-29DE-4FD0-898D-B7B08A4D4215";
shapes = (
{
closed = 1;
nodes = (
(315,0,l),
(324,64,l),
(370,296,ls),
(392,406,o),
(341,453,o),
(242,453,cs),
(189,453,o),
(137,438,o),
(94,420,c),
(108,360,l),
(146,374,o),
(191,388,o),
(234,388,cs),
(295,388,o),
(312,365,o),
(297,288,cs),
(293,266,l),
(124,264,o),
(15,213,o),
(15,94,cs),
(15,31,o),
(56,-4,o),
(120,-4,cs),
(173,-4,o),
(214,18,o),
(252,54,c),
(249,0,l)
);
},
{
closed = 1;
nodes = (
(91,166,o),
(146,203,o),
(281,207,c),
(269,145,l),
(222,91,o),
(191,60,o),
(138,60,cs),
(103,60,o),
(91,76,o),
(91,105,cs)
);
}
);
width = 416;
},
{
anchors = (
{
name = bottom;
pos = (163,0);
},
{
name = bottomAttach;
pos = (325,0);
},
{
name = top;
pos = (255,448);
}
);
background = {
anchors = (
{
name = bottom;
pos = (163,0);
},
{
name = bottomAttach;
pos = (325,0);
},
{
name = top;
pos = (255,448);
}
);
shapes = (
{
closed = 1;
nodes = (
(325,0,l),
(336,64,l),
(382,295,ls),
(404,403,o),
(356,454,o),
(246,454,cs),
(183,454,o),
(125,439,o),
(85,425,c),
(93,343,l),
(125,353,o),
(171,366,o),
(217,366,cs),
(270,366,o),
(281,350,o),
(269,289,cs),
(224,64,l),
(230,64,l),
(225,0,l)
);
},
{
closed = 1;
nodes = (
(195,-4,o),
(244,42,o),
(295,121,c),
(251,156,l),
(217,102,o),
(189,76,o),
(155,76,cs),
(136,76,o),
(123,89,o),
(123,118,cs),
(123,170,o),
(172,205,o),
(270,205,c),
(270,275,l),
(116,275,o),
(8,223,o),
(8,106,cs),
(8,40,o),
(47,-4,o),
(119,-4,cs)
);
}
);
};
layerId = "EBAB10B0-9FDE-44C7-9B16-DD2313400F4E";
shapes = (
{
closed = 1;
nodes = (
(325,0,l),
(336,64,l),
(382,295,ls),
(404,403,o),
(356,454,o),
(246,454,cs),
(183,454,o),
(125,439,o),
(85,425,c),
(93,343,l),
(125,353,o),
(171,366,o),
(217,366,cs),
(270,366,o),
(281,350,o),
(269,289,cs),
(266,275,l),
(113,274,o),
(8,222,o),
(8,106,cs),
(8,40,o),
(47,-4,o),
(119,-4,cs),
(162,-4,o),
(196,10,o),
(228,38,c),
(225,0,l)
);
},
{
closed = 1;
nodes = (
(123,167,o),
(167,201,o),
(252,205,c),
(239,137,l),
(210,95,o),
(185,76,o),
(155,76,cs),
(136,76,o),
(123,89,o),
(123,118,cs)
);
}
);
width = 416;
},
{
anchors = (
{
name = bottom;
pos = (163,0);
},
{
name = bottomAttach;
pos = (310,0);
},
{
name = top;
pos = (259,448);
}
);
background = {
anchors = (
{
name = bottom;
pos = (163,0);
},
{
name = bottomAttach;
pos = (310,0);
},
{
name = top;
pos = (259,448);
}
);
shapes = (
{
closed = 1;
nodes = (
(310,0,l),
(323,78,l),
(369,310,ls),
(389,413,o),
(341,452,o),
(258,452,cs),
(202,452,o),
(143,434,o),
(103,418,c),
(111,378,l),
(158,394,o),
(203,407,o),
(252,407,cs),
(315,407,o),
(336,384,o),
(319,300,cs),
(275,78,l),
(276,78,l),
(266,0,l)
);
},
{
closed = 1;
nodes = (
(194,-4,o),
(244,30,o),
(314,118,c),
(289,139,l),
(222,59,o),
(180,41,o),
(129,41,cs),
(89,41,o),
(73,65,o),
(73,97,cs),
(73,173,o),
(157,218,o),
(319,218,c),
(319,257,l),
(130,257,o),
(22,200,o),
(22,95,cs),
(22,38,o),
(57,-4,o),
(124,-4,cs)
);
}
);
};
layerId = "C21910D5-47BB-472B-A83D-89B2B42B8F2A";
shapes = (
{
closed = 1;
nodes = (
(310,0,l),
(323,78,l),
(369,310,ls),
(389,413,o),
(341,452,o),
(258,452,cs),
(202,452,o),
(143,434,o),
(103,418,c),
(111,378,l),
(158,394,o),
(203,407,o),
(252,407,cs),
(315,407,o),
(336,384,o),
(319,300,cs),
(310,256,l),
(127,256,o),
(22,198,o),
(22,95,cs),
(22,38,o),
(57,-4,o),
(124,-4,cs),
(180,-4,o),
(224,19,o),
(275,73,c),
(266,0,l)
);
},
{
closed = 1;
nodes = (
(73,170,o),
(151,215,o),
(303,218,c),
(287,137,l),
(221,59,o),
(179,41,o),
(129,41,cs),
(89,41,o),
(73,65,o),
(73,97,cs)
);
}
);
width = 416;
}
);
metricWidth = "=_pixel*6.5";
unicode = 97;
}
{
color = 8;
glyphname = c;
kernLeft = o;
kernRight = c;
layers = (
{
anchors = (
{
name = bottom;
pos = (183,0);
},
{
name = bottomAttach;
pos = (247,0);
},
{
name = top;
pos = (263,448);
}
);
layerId = "BA106321-29DE-4FD0-898D-B7B08A4D4215";
shapes = (
{
closed = 1;
nodes = (
(216,-7,o),
(254,-3,o),
(294,11,c),
(288,73,l),
(254,63,o),
(226,57,o),
(192,57,cs),
(116,57,o),
(100,96,o),
(125,218,cs),
(150,346,o),
(188,391,o),
(268,391,cs),
(298,391,o),
(324,387,o),
(354,377,c),
(374,435,l),
(340,449,o),
(304,455,o),
(267,455,cs),
(135,455,o),
(76,355,o),
(51,230,cs),
(25,99,o),
(47,-7,o),
(185,-7,cs)
);
}
);
width = 384;
},
{
anchors = (
{
name = bottom;
pos = (183,0);
},
{
name = bottomAttach;
pos = (247,0);
},
{
name = top;
pos = (263,448);
}
);
layerId = "EBAB10B0-9FDE-44C7-9B16-DD2313400F4E";
shapes = (
{
closed = 1;
nodes = (
(222,-7,o),
(265,-3,o),
(309,15,c),
(301,92,l),
(274,84,o),
(243,77,o),
(213,77,cs),
(146,77,o),
(133,110,o),
(154,215,cs),
(177,330,o),
(212,371,o),
(285,371,cs),
(312,371,o),
(340,367,o),
(361,359,c),
(387,429,l),
(349,447,o),
(308,455,o),
(267,455,cs),
(123,455,o),
(66,356,o),
(42,233,cs),
(15,100,o),
(37,-7,o),
(187,-7,cs)
);
}
);
width = 384;
},
{
anchors = (
{
name = bottom;
pos = (183,0);
},
{
name = bottomAttach;
pos = (247,0);
},
{
name = top;
pos = (263,448);
}
);
layerId = "C21910D5-47BB-472B-A83D-89B2B42B8F2A";
shapes = (
{
closed = 1;
nodes = (
(216,-7,o),
(253,0,o),
(290,12,c),
(286,54,l),
(249,42,o),
(216,36,o),
(187,36,cs),
(104,36,o),
(83,97,o),
(107,220,cs),
(132,346,o),
(177,413,o),
(268,413,cs),
(295,413,o),
(323,410,o),
(358,398,c),
(372,436,l),
(342,448,o),
(302,455,o),
(266,455,cs),
(142,455,o),
(82,354,o),
(57,228,cs),
(31,98,o),
(54,-7,o),
(179,-7,cs)
);
}
);
width = 384;
}
);
metricWidth = "=_pixel*6";
unicode = 99;
}
{
color = 8;
glyphname = e;
kernLeft = o;
kernRight = e;
layers = (
{
anchors = (
{
name = bottom;
pos = (168,0);
},
{
name = bottomAttach;
pos = (279,0);
},
{
name = top;
pos = (258,448);
}
);
background = {
anchors = (
{
name = bottom;
pos = (168,0);
},
{
name = bottomAttach;
pos = (279,0);
},
{
name = top;
pos = (258,448);
}
);
shapes = (
{
closed = 1;
nodes = (
(20,96,o),
(44,-13,o),
(188,-13,cs),
(228,-13,o),
(276,-4,o),
(320,13,c),
(313,73,l),
(275,61,o),
(237,51,o),
(197,51,cs),
(116,51,o),
(93,92,o),
(119,218,cs),
(145,348,o),
(188,397,o),
(252,397,cs),
(318,397,o),
(332,346,o),
(302,227,c),
(350,263,l),
(96,263,l),
(83,201,l),
(372,198,l),
(416,357,o),
(376,461,o),
(255,461,cs),
(138,461,o),
(73,358,o),
(47,230,cs)
);
}
);
};
layerId = "BA106321-29DE-4FD0-898D-B7B08A4D4215";
shapes = (
{
closed = 1;
nodes = (
(20,96,o),
(44,-13,o),
(188,-13,cs),
(228,-13,o),
(276,-4,o),
(320,13,c),
(313,73,l),
(275,61,o),
(237,51,o),
(197,51,cs),
(120,51,o),
(95,87,o),
(116,201,c),
(372,198,l),
(416,357,o),
(376,461,o),
(255,461,cs),
(138,461,o),
(73,358,o),
(47,230,cs)
);
},
{
closed = 1;
nodes = (
(156,359,o),
(196,397,o),
(252,397,cs),
(311,397,o),
(328,356,o),
(310,263,c),
(130,263,l)
);
}
);
width = 432;
},
{
anchors = (
{
name = bottom;
pos = (168,0);
},
{
name = bottomAttach;
pos = (281,0);
},
{
name = top;
pos = (258,448);
}
);
background = {
anchors = (
{
name = bottom;
pos = (168,0);
},
{
name = bottomAttach;
pos = (281,0);
},
{
name = top;
pos = (258,448);
}
);
shapes = (
{
closed = 1;
nodes = (
(8,97,o),
(36,-13,o),
(190,-13,cs),
(233,-13,o),
(286,-1,o),
(333,16,c),
(324,92,l),
(286,79,o),
(243,67,o),
(209,67,cs),
(141,67,o),
(126,103,o),
(148,215,cs),
(172,335,o),
(203,381,o),
(251,381,cs),
(293,381,o),
(303,335,o),
(273,228,c),
(328,266,l),
(99,266,l),
(84,188,l),
(378,184,l),
(429,337,o),
(393,461,o),
(254,461,cs),
(128,461,o),
(61,359,o),
(36,233,cs)
);
}
);
};
layerId = "EBAB10B0-9FDE-44C7-9B16-DD2313400F4E";
shapes = (
{
closed = 1;
nodes = (
(8,97,o),
(36,-13,o),
(190,-13,cs),
(233,-13,o),
(286,-1,o),
(333,16,c),
(324,92,l),
(286,79,o),
(243,67,o),
(209,67,cs),
(147,67,o),
(129,97,o),
(143,187,c),
(378,184,l),
(429,337,o),
(393,461,o),
(254,461,cs),
(128,461,o),
(61,359,o),
(36,233,cs)
);
},
{
closed = 1;
nodes = (
(182,347,o),
(211,381,o),
(251,381,cs),
(288,381,o),
(300,345,o),
(283,266,c),
(160,266,l)
);
}
);
width = 432;
},
{
anchors = (
{
name = bottom;
pos = (168,0);
},
{
name = bottomAttach;
pos = (282,0);
},
{
name = top;
pos = (258,448);
}
);
background = {
anchors = (
{
name = bottom;
pos = (168,0);
},
{
name = bottomAttach;
pos = (282,0);
},
{
name = top;
pos = (258,448);
}
);
shapes = (
{
closed = 1;
nodes = (
(27,95,o),
(49,-13,o),
(189,-13,cs),
(229,-13,o),
(273,-5,o),
(311,9,c),
(306,48,l),
(270,37,o),
(232,29,o),
(197,29,cs),
(103,29,o),
(78,92,o),
(104,220,cs),
(131,354,o),
(177,417,o),
(255,417,cs),
(333,417,o),
(349,348,o),
(319,226,c),
(366,257,l),
(89,257,l),
(81,213,l),
(368,211,l),
(407,370,o),
(368,461,o),
(257,461,cs),
(141,461,o),
(79,357,o),
(54,228,cs)
);
}
);
};
layerId = "C21910D5-47BB-472B-A83D-89B2B42B8F2A";
shapes = (
{
closed = 1;
nodes = (
(27,95,o),
(49,-13,o),
(189,-13,cs),
(229,-13,o),
(273,-5,o),
(311,9,c),
(306,48,l),
(270,37,o),
(232,29,o),
(197,29,cs),
(105,29,o),
(79,89,o),
(103,213,c),
(368,213,l),
(407,370,o),
(368,461,o),
(257,461,cs),
(141,461,o),
(79,357,o),
(54,228,cs)
);
},
{
closed = 1;
nodes = (
(140,366,o),
(185,417,o),
(255,417,cs),
(326,417,o),
(346,360,o),
(326,257,c),
(112,257,l)
);
}
);
width = 432;
}
);
metricLeft = o;
metricWidth = "=_pixel*6.75";
unicode = 101;
}
{
glyphname = h;
kernLeft = h;
kernRight = n;
layers = (
{
anchors = (
{
name = "#center";
pos = (200,534);
},
{
name = bottom;
pos = (179,0);
},
{
name = origin.hook;
pos = (289,0);
},
{
name = top;
pos = (307,640);
}
);
background = {
anchors = (
{
name = "#center";
pos = (200,534);
},
{
name = bottom;
pos = (179,0);
},
{
name = origin.hook;
pos = (289,0);
},
{
name = top;
pos = (307,640);
}
);
shapes = (
{
closed = 1;
nodes = (
(69,0,l),
(197,640,l),
(149,640,l),
(21,0,l)
);
},
{
closed = 1;
nodes = (
(337,0,l),
(398,307,ls),
(420,420,o),
(367,452,o),
(303,452,cs),
(232,452,o),
(153,396,o),
(106,347,c),
(125,327,l),
(181,372,o),
(235,408,o),
(292,408,cs),
(349,408,o),
(365,381,o),
(350,307,cs),
(289,0,l)
);
}
);
};
layerId = "C21910D5-47BB-472B-A83D-89B2B42B8F2A";
shapes = (
{
closed = 1;
nodes = (
(69,0,l),
(136,336,l),
(188,377,o),
(239,408,o),
(292,408,cs),
(349,408,o),
(365,381,o),
(350,307,cs),
(289,0,l),
(337,0,l),
(398,307,ls),
(420,420,o),
(367,452,o),
(303,452,cs),
(249,452,o),
(191,420,o),
(146,383,c),
(197,640,l),
(149,640,l),
(21,0,l)
);
}
);
width = 448;
},
{
anchors = (
{
name = "#center";
pos = (200,534);
},
{
name = bottom;
pos = (179,0);
},
{
name = origin.hook;
pos = (271,0);
},
{
name = top;
pos = (307,640);
}
);
background = {
anchors = (
{
name = "#center";
pos = (200,534);
},
{
name = bottom;
pos = (179,0);
},
{
name = origin.hook;
pos = (271,0);
},
{
name = top;
pos = (307,640);
}
);
shapes = (
{
closed = 1;
nodes = (
(87,0,l),
(215,640,l),
(143,640,l),
(15,0,l)
);
},
{
closed = 1;
nodes = (
(343,0,l),
(403,300,ls),
(424,406,o),
(375,452,o),
(299,452,cs),
(229,452,o),
(160,400,o),
(107,344,c),
(137,312,l),
(179,352,o),
(233,388,o),
(283,388,cs),
(327,388,o),
(343,361,o),
(332,304,cs),
(271,0,l)
);
}
);
};
layerId = "BA106321-29DE-4FD0-898D-B7B08A4D4215";
shapes = (
{
closed = 1;
nodes = (
(87,0,l),
(152,326,l),
(192,360,o),
(239,388,o),
(283,388,cs),
(327,388,o),
(343,361,o),
(332,304,cs),
(271,0,l),
(343,0,l),
(403,300,ls),
(424,406,o),
(375,452,o),
(299,452,cs),
(253,452,o),
(207,429,o),
(167,398,c),
(215,640,l),
(143,640,l),
(15,0,l)
);
}
);
width = 448;
},
{
anchors = (
{
name = "#center";
pos = (200,534);
},
{
name = bottom;
pos = (179,0);
},
{
name = origin.hook;
pos = (241,0);
},
{
name = top;
pos = (307,640);
}
);
background = {
anchors = (
{
name = "#center";
pos = (200,534);
},
{
name = bottom;
pos = (179,0);
},
{
name = origin.hook;
pos = (241,0);
},
{
name = top;
pos = (307,640);
}
);
shapes = (
{
closed = 1;
nodes = (
(117,0,l),
(245,640,l),
(133,640,l),
(5,0,l)
);
},
{
closed = 1;
nodes = (
(353,0,l),
(415,310,ls),
(434,406,o),
(390,452,o),
(311,452,cs),
(234,452,o),
(167,399,o),
(100,337,c),
(140,288,l),
(180,332,o),
(232,368,o),
(269,368,cs),
(302,368,o),
(311,351,o),
(303,310,cs),
(241,0,l)
);
}
);
};
layerId = "EBAB10B0-9FDE-44C7-9B16-DD2313400F4E";
shapes = (
{
closed = 1;
nodes = (
(117,0,l),
(183,328,l),
(212,351,o),
(244,368,o),
(269,368,cs),
(302,368,o),
(311,351,o),
(303,310,cs),
(241,0,l),
(353,0,l),
(415,310,ls),
(434,406,o),
(390,452,o),
(311,452,cs),
(272,452,o),
(236,439,o),
(200,417,c),
(245,640,l),
(133,640,l),
(5,0,l)
);
}
);
width = 448;
}
);
unicode = 104;
}
{
color = 8;
glyphname = l;
kernLeft = l;
kernRight = l;
layers = (
{
anchors = (
{
name = "#center";
pos = (160,351);
},
{
name = "#slash";
pos = (160,384);
},
{
name = bottom;
pos = (115,0);
},
{
name = top;
pos = (193,640);
}
);
layerId = "C21910D5-47BB-472B-A83D-89B2B42B8F2A";
shapes = (
{
closed = 1;
nodes = (
(161,-4,o),
(171,-3,o),
(184,-1,c),
(184,41,l),
(177,40,o),
(167,39,o),
(156,39,cs),
(111,39,o),
(100,62,o),
(110,112,cs),
(215,640,l),
(167,640,l),
(63,117,ls),
(45,29,o),
(88,-4,o),
(150,-4,cs)
);
}
);
width = 276;
},
{
anchors = (
{
name = "#center";
pos = (160,351);
},
{
name = "#slash";
pos = (160,384);
},
{
name = bottom;
pos = (115,0);
},
{
name = top;
pos = (193,640);
}
);
layerId = "BA106321-29DE-4FD0-898D-B7B08A4D4215";
shapes = (
{
closed = 1;
nodes = (
(170,-4,o),
(180,-4,o),
(194,-2,c),
(196,61,l),
(184,60,o),
(179,60,o),
(171,60,cs),
(128,60,o),
(117,80,o),
(124,116,cs),
(229,640,l),
(157,640,l),
(55,127,ls),
(36,31,o),
(90,-4,o),
(165,-4,cs)
);
}
);
width = 276;
},
{
anchors = (
{
name = "#center";
pos = (160,351);
},
{
name = "#slash";
pos = (160,384);
},
{
name = bottom;
pos = (115,0);
},
{
name = top;
pos = (193,640);
}
);
layerId = "EBAB10B0-9FDE-44C7-9B16-DD2313400F4E";
shapes = (
{
closed = 1;
nodes = (
(172,-6,o),
(190,-5,o),
(206,-3,c),
(208,76,l),
(199,75,o),
(190,74,o),
(176,74,cs),
(148,74,o),
(143,88,o),
(148,116,cs),
(253,640,l),
(141,640,l),
(39,129,ls),
(20,33,o),
(73,-6,o),
(156,-6,cs)
);
}
);
width = 276;
}
);
unicode = 108;
}
{
color = 8;
glyphname = m;
kernLeft = n;
kernRight = n;
layers = (
{
anchors = (
{
name = bottom;
pos = (261,0);
},
{
name = top;
pos = (351,448);
}
);
layerId = "C21910D5-47BB-472B-A83D-89B2B42B8F2A";
shapes = (
{
closed = 1;
nodes = (
(69,0,l),
(138,345,l),
(176,383,o),
(216,408,o),
(252,408,cs),
(304,408,o),
(312,377,o,{
name = at03;
}),
(299,310,cs),
(237,0,l),
(285,0,l,{
name = ab01;
}),
(347,309,ls),
(349,320,o),
(351,332,o),
(352,342,c),
(390,382,o),
(432,408,o),
(468,408,cs),
(520,408,o),
(528,377,o,{
name = at03;
}),
(515,310,cs),
(453,0,l),
(501,0,l,{
name = ab01;
}),
(563,309,ls),
(581,398,o),
(556,452,o,{
name = at01;
}),
(486,452,cs),
(440,452,o),
(391,426,o),
(351,384,c),
(344,427,o),
(317,452,o),
(270,452,cs),
(228,452,o),
(184,430,o),
(146,395,c),
(153,448,l,{
name = sv01;
}),
(109,448,l),
(95,370,l),
(21,0,l)
);
}
);
width = 608;
},
{
anchors = (
{
name = bottom;
pos = (261,0);
},
{
name = top;
pos = (351,448);
}
);
layerId = "BA106321-29DE-4FD0-898D-B7B08A4D4215";
shapes = (
{
closed = 1;
nodes = (
(87,0,l),
(156,342,l),
(187,372,o),
(219,392,o),
(251,392,cs),
(296,392,o),
(298,364,o,{
name = at03;
}),
(287,307,cs),
(225,0,l),
(297,0,l,{
name = ab01;
}),
(358,303,ls),
(361,319,o),
(363,334,o),
(364,348,c),
(397,376,o),
(430,392,o),
(461,392,cs,{
name = ab03;
}),
(507,392,o),
(508,361,o),
(498,313,cs),
(435,0,l),
(507,0,l),
(568,305,ls,{
name = ab02;
}),
(588,403,o),
(559,452,o),
(484,452,cs),
(439,452,o),
(396,432,o),
(358,402,c),
(346,436,o),
(319,452,o),
(276,452,cs),
(238,452,o),
(199,435,o),
(165,408,c),
(168,448,l,{
name = sv01;
}),
(103,448,l),
(92,383,l),
(15,0,l)
);
}
);
width = 608;
},
{
anchors = (
{
name = bottom;
pos = (261,0);
},
{
name = top;
pos = (351,448);
}
);
layerId = "EBAB10B0-9FDE-44C7-9B16-DD2313400F4E";
shapes = (
{
closed = 1;
nodes = (
(117,0,l),
(185,339,l),
(205,358,o),
(225,370,o),
(248,370,cs),
(272,370,o),
(276,357,o,{
name = at03;
}),
(270,325,cs),
(205,0,l),
(317,0,l,{
name = ab01;
}),
(380,314,ls),
(382,322,o),
(383,330,o),
(384,338,c),
(404,357,o),
(425,370,o),
(448,370,cs),
(472,370,o),
(476,357,o,{
name = at03;
}),
(470,325,cs),
(405,0,l),
(517,0,l,{
name = ab01;
}),
(580,314,ls),
(598,406,o),
(564,452,o,{
name = at01;
}),
(486,452,cs),
(445,452,o),
(408,434,o),
(375,406,c),
(361,437,o),
(331,452,o),
(286,452,cs),
(251,452,o),
(219,439,o),
(189,417,c),
(190,448,l,{
name = sv01;
}),
(93,448,l),
(82,383,l),
(5,0,l)
);
}
);
width = 608;
}
);
metricWidth = "=_pixel*9.5";
unicode = 109;
}
{
glyphname = o;
kernLeft = o;
kernRight = o;
layers = (
{
anchors = (
{
name = "#center";
pos = (224,224);
},
{
name = bottom;
pos = (179,0);
},
{
name = bottomAttach;
pos = (245,0);
},
{
name = top;
pos = (269,448);
},
{
name = topright;
pos = (321,448);
}
);
color = 3;
layerId = "C21910D5-47BB-472B-A83D-89B2B42B8F2A";
shapes = (
{
closed = 1;
nodes = (
(301,-13,o),
(368,91,o),
(394,220,cs),
(421,353,o),
(397,461,o),
(268,461,cs),
(141,461,o),
(80,357,o),
(54,228,cs),
(27,95,o),
(50,-13,o),
(180,-13,cs)
);
},
{
closed = 1;
nodes = (
(107,29,o),
(75,78,o),
(103,220,cs),
(131,364,o),
(182,419,o),
(266,419,cs),
(344,419,o),
(374,368,o),
(345,228,cs),
(315,82,o),
(263,29,o),
(181,29,cs)
);
}
);
width = 448;
},
{
anchors = (
{
name = "#center";
pos = (224,224);
},
{
name = bottom;
pos = (179,0);
},
{
name = bottomAttach;
pos = (247,0);
},
{
name = top;
pos = (269,448);
},
{
name = topright;
pos = (339,448);
}
);
layerId = "BA106321-29DE-4FD0-898D-B7B08A4D4215";
shapes = (
{
closed = 1;
nodes = (
(308,-13,o),
(375,90,o),
(401,218,cs),
(428,352,o),
(401,461,o),
(266,461,cs),
(137,461,o),
(73,358,o),
(47,230,cs),
(20,96,o),
(47,-13,o),
(181,-13,cs)
);
},
{
closed = 1;
nodes = (
(119,51,o),
(95,92,o),
(121,218,cs),
(148,348,o),
(189,397,o),
(263,397,cs),
(329,397,o),
(351,354,o),
(327,230,cs),
(301,98,o),
(259,51,o),
(184,51,cs)
);
}
);
width = 448;
},
{
anchors = (
{
name = "#center";
pos = (224,224);
},
{
name = bottom;
pos = (179,0);
},
{
name = bottomAttach;
pos = (251,0);
},
{
name = top;
pos = (269,448);
},
{
name = topright;
pos = (337,448);
}
);
layerId = "EBAB10B0-9FDE-44C7-9B16-DD2313400F4E";
shapes = (
{
closed = 1;
nodes = (
(319,-13,o),
(387,89,o),
(412,215,cs),
(439,351,o),
(407,461,o),
(263,461,cs),
(129,461,o),
(62,359,o),
(36,233,cs),
(8,97,o),
(41,-13,o),
(181,-13,cs)
);
},
{
closed = 1;
nodes = (
(142,69,o),
(128,103,o),
(150,215,cs),
(174,335,o),
(206,379,o),
(259,379,cs),
(306,379,o),
(321,343,o),
(298,233,cs),
(273,111,o),
(242,69,o),
(188,69,cs)
);
}
);
width = 448;
}
);
unicode = 111;
}
{
color = 7;
glyphname = q;
kernLeft = o;
kernRight = g;
layers = (
{
anchors = (
{
name = bottom;
pos = (179,0);
},
{
name = top;
pos = (269,448);
}
);
layerId = "C21910D5-47BB-472B-A83D-89B2B42B8F2A";
shapes = (
{
closed = 1;
nodes = (
(299,-192,l),
(414,385,l),
(429,448,l),
(384,448,l),
(369,399,l),
(364,374,l),
(251,-192,l)
);
},
{
angle = 180;
pos = (448,448);
ref = _part.bowl.descender;
}
);
width = 448;
},
{
anchors = (
{
name = bottom;
pos = (179,0);
},
{
name = top;
pos = (269,448);
}
);
layerId = "BA106321-29DE-4FD0-898D-B7B08A4D4215";
shapes = (
{
closed = 1;
nodes = (
(305,-192,l),
(420,384,l),
(435,448,l),
(373,448,l),
(351,383,l),
(344,367,l),
(233,-192,l)
);
},
{
angle = 180;
pos = (448,448);
ref = _part.bowl.descender;
}
);
width = 448;
},
{
anchors = (
{
name = bottom;
pos = (179,0);
},
{
name = top;
pos = (269,448);
}
);
layerId = "EBAB10B0-9FDE-44C7-9B16-DD2313400F4E";
shapes = (
{
closed = 1;
nodes = (
(315,-192,l),
(430,383,l),
(445,448,l),
(356,448,l),
(322,356,l),
(312,356,l),
(203,-192,l)
);
},
{
angle = 180;
pos = (448,448);
ref = _part.bowl.descender;
}
);
width = 448;
},
{
anchors = (
{
name = bottom;
pos = (179,0);
},
{
name = top;
pos = (269,448);
}
);
associatedMasterId = "BA106321-29DE-4FD0-898D-B7B08A4D4215";
attr = {
coordinates = (
400,
-64,
1
);
};
layerId = "E7E64B22-2457-4594-BB1A-ABED4C5B00BA";
name = "{400, 1, -64}";
shapes = (
{
closed = 1;
nodes = (
(330,-64,l),
(420,384,l),
(435,448,l),
(373,448,l),
(351,383,l),
(344,367,l),
(258,-64,l)
);
},
{
angle = 180;
pos = (469,544);
ref = _part.bowl.descender;
}
);
width = 448;
}
);
unicode = 113;
}
{
color = 8;
glyphname = r;
kernLeft = n;
kernRight = r;
layers = (
{
anchors = (
{
name = bottom;
pos = (43,0);
},
{
name = top;
pos = (222,448);
}
);
layerId = "C21910D5-47BB-472B-A83D-89B2B42B8F2A";
shapes = (
{
closed = 1;
nodes = (
(67,0,l),
(128,307,l),
(187,390,o),
(222,406,o),
(272,406,cs),
(289,406,o),
(309,404,o),
(324,402,c),
(334,444,l),
(317,447,o),
(297,450,o),
(271,450,cs),
(223,450,o),
(184,431,o),
(141,375,c),
(151,448,l),
(107,448,l),
(93,370,l),
(19,0,l)
);
}
);
width = 320;
},
{
anchors = (
{
name = bottom;
pos = (51,0);
},
{
name = top;
pos = (205,448);
}
);
layerId = "BA106321-29DE-4FD0-898D-B7B08A4D4215";
shapes = (
{
closed = 1;
nodes = (
(87,0,l),
(151,318,l),
(193,366,o),
(239,384,o),
(280,384,cs),
(292,384,o),
(303,383,o),
(311,382,c),
(325,451,l),
(316,452,o),
(307,452,o),
(299,452,cs),
(247,452,o),
(200,431,o),
(165,397,c),
(168,448,l),
(103,448,l),
(92,383,l),
(15,0,l)
);
}
);
width = 320;
},
{
anchors = (
{
name = bottom;
pos = (59,0);
},
{
name = top;
pos = (222,448);
}
);
layerId = "EBAB10B0-9FDE-44C7-9B16-DD2313400F4E";
shapes = (
{
closed = 1;
nodes = (
(115,0,l),
(177,307,l),
(215,344,o),
(252,358,o),
(287,358,cs),
(297,358,o),
(310,358,o),
(323,356,c),
(345,448,l),
(333,450,o),
(320,452,o),
(306,452,cs),
(260,452,o),
(222,434,o),
(187,403,c),
(188,448,l),
(91,448,l),
(80,383,l),
(3,0,l)
);
}
);
width = 320;
}
);
metricWidth = "=_pixel*5";
unicode = 114;
}
{
color = 8;
glyphname = s;
kernLeft = s;
kernRight = s;
layers = (
{
anchors = (
{
name = bottom;
pos = (133,0);
},
{
name = top;
pos = (223,448);
},
{
name = topright;
pos = (415,448);
}
);
layerId = "C21910D5-47BB-472B-A83D-89B2B42B8F2A";
shapes = (
{
closed = 1;
nodes = (
(213,-8,o),
(281,44,o),
(281,121,cs),
(281,238,o),
(118,245,o),
(118,332,cs),
(118,372,o),
(152,414,o),
(233,414,cs),
(257,414,o),
(284,411,o),
(315,403,c),
(329,441,l),
(297,451,o),
(270,456,o),
(232,456,cs),
(129,456,o),
(73,388,o),
(73,327,cs),
(73,211,o),
(236,207,o),
(236,118,cs),
(236,81,o),
(209,34,o),
(125,34,cs),
(96,34,o),
(55,40,o),
(14,54,c),
(-1,18,l),
(41,2,o),
(79,-8,o),
(128,-8,cs)
);
}
);
width = 352;
},
{
anchors = (
{
name = bottom;
pos = (133,0);
},
{
name = top;
pos = (223,448);
},
{
name = topright;
pos = (415,448);
}
);
layerId = "BA106321-29DE-4FD0-898D-B7B08A4D4215";
shapes = (
{
closed = 1;
nodes = (
(217,-8,o),
(289,45,o),
(289,126,cs),
(289,251,o),
(135,250,o),
(135,326,cs),
(135,352,o),
(150,392,o),
(235,392,cs),
(255,392,o),
(285,390,o),
(314,380,c),
(335,438,l),
(301,450,o),
(269,456,o),
(231,456,cs),
(125,456,o),
(65,388,o),
(65,318,cs),
(65,197,o),
(219,203,o),
(219,121,cs),
(219,92,o),
(203,56,o),
(126,56,cs),
(95,56,o),
(53,64,o),
(18,75,c),
(-4,20,l),
(36,4,o),
(80,-8,o),
(136,-8,cs)
);
}
);
width = 352;
},
{
anchors = (
{
name = bottom;
pos = (133,0);
},
{
name = top;
pos = (223,448);
},
{
name = topright;
pos = (415,448);
}
);
layerId = "EBAB10B0-9FDE-44C7-9B16-DD2313400F4E";
shapes = (
{
closed = 1;
nodes = (
(233,-8,o),
(297,47,o),
(297,130,cs),
(297,251,o),
(167,263,o),
(167,328,cs),
(167,352,o),
(187,374,o),
(234,374,cs),
(261,374,o),
(292,368,o),
(316,360,c),
(345,432,l),
(309,447,o),
(269,456,o),
(226,456,cs),
(115,456,o),
(57,388,o),
(57,313,cs),
(57,200,o),
(187,186,o),
(187,122,cs),
(187,97,o),
(168,74,o),
(118,74,cs),
(82,74,o),
(48,82,o),
(22,92,c),
(-8,27,l),
(26,7,o),
(74,-8,o),
(130,-8,cs)
);
}
);
width = 352;
}
);
metricWidth = "=_pixel*5.5";
unicode = 115;
}
{
color = 8;
glyphname = t;
kernLeft = t;
kernRight = t;
layers = (
{
anchors = (
{
name = "#center";
pos = (151,219);
},
{
name = bottom;
pos = (127,0);
},
{
name = top;
pos = (228,576);
},
{
name = top_comma;
pos = (201,448);
},
{
name = topright;
pos = (182,576);
}
);
layerId = "C21910D5-47BB-472B-A83D-89B2B42B8F2A";
shapes = (
{
closed = 1;
nodes = (
(213,-4,o),
(235,-2,o),
(255,1,c),
(256,43,l),
(239,41,o),
(216,40,o),
(203,40,cs),
(138,40,o),
(123,63,o),
(134,116,cs),
(192,404,l),
(331,404,l),
(340,448,l),
(201,448,l),
(226,576,l),
(178,576,l),
(153,448,l),
(66,448,l),
(58,408,l),
(144,403,l),
(87,121,ls),
(70,39,o),
(102,-4,o),
(194,-4,cs)
);
}
);
width = 352;
},
{
anchors = (
{
name = "#center";
pos = (151,219);
},
{
name = bottom;
pos = (127,0);
},
{
name = top;
pos = (228,576);
},
{
name = top_comma;
pos = (213,448);
},
{
name = topright;
pos = (210,576);
}
);
layerId = "BA106321-29DE-4FD0-898D-B7B08A4D4215";
shapes = (
{
closed = 1;
nodes = (
(209,-4,o),
(236,-3,o),
(258,1,c),
(258,65,l),
(242,63,o),
(222,61,o),
(200,61,cs),
(152,61,o),
(139,77,o),
(148,124,cs),
(200,384,l),
(326,384,l),
(339,448,l),
(213,448,l),
(238,576,l),
(166,576,l),
(141,448,l),
(66,448,l),
(54,387,l),
(128,383,l),
(78,133,ls),
(59,38,o),
(99,-4,o),
(189,-4,cs)
);
}
);
width = 352;
},
{
anchors = (
{
name = "#center";
pos = (151,219);
},
{
name = bottom;
pos = (127,0);
},
{
name = top;
pos = (228,576);
},
{
name = top_comma;
pos = (242,448);
},
{
name = topright;
pos = (210,576);
}
);
layerId = "EBAB10B0-9FDE-44C7-9B16-DD2313400F4E";
shapes = (
{
closed = 1;
nodes = (
(215,-6,o),
(245,-5,o),
(272,-1,c),
(275,81,l),
(260,79,o),
(238,76,o),
(215,76,cs),
(179,76,o),
(170,87,o),
(177,124,cs),
(226,368,l),
(338,368,l),
(354,448,l),
(242,448,l),
(267,576,l),
(155,576,l),
(130,448,l),
(55,448,l),
(39,370,l),
(114,367,l),
(68,137,ls),
(48,39,o),
(84,-6,o),
(196,-6,cs)
);
}
);
width = 352;
}
);
metricWidth = "=_pixel*5.5";
unicode = 116;
}
{
glyphname = v;
kernLeft = v;
kernRight = v;
layers = (
{
anchors = (
{
name = bottom;
pos = (179,0);
},
{
name = top;
pos = (269,448);
}
);
background = {
anchors = (
{
name = bottom;
pos = (179,0);
},
{
name = top;
pos = (269,448);
}
);
shapes = (
{
closed = 1;
nodes = (
(200,40,l),
(149,164,o),
(130,256,o),
(149,448,c),
(99,448,l),
(77,250,o),
(110,121,o),
(170,-2,c),
(192,-2,l),
(301,121,o),
(383,250,o),
(440,448,c),
(387,448,l),
(330,258,o),
(273,166,o),
(173,44,c)
);
}
);
};
layerId = "C21910D5-47BB-472B-A83D-89B2B42B8F2A";
shapes = (
{
closed = 1;
nodes = (
(77,250,o),
(110,121,o),
(170,-2,c),
(192,-2,l),
(301,121,o),
(383,250,o),
(440,448,c),
(387,448,l),
(333,268,o),
(279,176,o),
(190,65,c),
(147,176,o),
(131,268,o),
(149,448,c),
(99,448,l)
);
}
);
width = 448;
},
{
anchors = (
{
name = bottom;
pos = (179,0);
},
{
name = top;
pos = (269,448);
}
);
background = {
anchors = (
{
name = bottom;
pos = (179,0);
},
{
name = top;
pos = (269,448);
}
);
shapes = (
{
closed = 1;
nodes = (
(202,60,l),
(172,170,o),
(159,258,o),
(182,448,c),
(67,448,l),
(44,250,o),
(77,121,o),
(137,-2,c),
(229,-2,l),
(335,121,o),
(416,250,o),
(471,448,c),
(355,448,l),
(304,262,o),
(254,176,o),
(179,68,c)
);
}
);
};
layerId = "EBAB10B0-9FDE-44C7-9B16-DD2313400F4E";
shapes = (
{
closed = 1;
nodes = (
(44,250,o),
(77,121,o),
(137,-2,c),
(229,-2,l),
(335,121,o),
(416,250,o),
(471,448,c),
(355,448,l),
(308,276,o),
(261,189,o),
(194,90,c),
(170,186,o),
(161,275,o),
(182,448,c),
(67,448,l)
);
}
);
width = 448;
},
{
anchors = (
{
name = bottom;
pos = (179,0);
},
{
name = top;
pos = (269,448);
}
);
background = {
anchors = (
{
name = bottom;
pos = (179,0);
},
{
name = top;
pos = (269,448);
}
);
shapes = (
{
closed = 1;
nodes = (
(203,62,l),
(159,172,o),
(140,259,o),
(161,448,c),
(88,448,l),
(65,250,o),
(97,121,o),
(157,-2,c),
(207,-2,l),
(314,121,o),
(395,250,o),
(451,448,c),
(375,448,l),
(322,261,o),
(266,174,o),
(178,66,c)
);
}
);
};
layerId = "BA106321-29DE-4FD0-898D-B7B08A4D4215";
shapes = (
{
closed = 1;
nodes = (
(65,250,o),
(97,121,o),
(157,-2,c),
(207,-2,l),
(314,121,o),
(395,250,o),
(451,448,c),
(375,448,l),
(325,272,o),
(272,184,o),
(194,86,c),
(157,184,o),
(142,274,o),
(161,448,c),
(88,448,l)
);
}
);
width = 448;
}
);
unicode = 118;
}
{
color = 8;
glyphname = z;
kernLeft = z;
kernRight = z;
layers = (
{
anchors = (
{
name = "#center";
pos = (195,224);
},
{
name = bottom;
pos = (150,0);
},
{
name = top;
pos = (240,448);
}
);
background = {
anchors = (
{
name = bottom;
pos = (164,0);
},
{
name = center;
pos = (209,224);
},
{
name = top;
pos = (254,448);
}
);
shapes = (
{
closed = 1;
nodes = (
(103,384,l),
(349,384,l),
(387,392,l),
(398,448,l),
(116,448,l)
);
},
{
closed = 1;
nodes = (
(11,0,l),
(312,0,l),
(325,64,l),
(60,64,l),
(22,56,l)
);
},
{
closed = 1;
nodes = (
(112,56,l),
(387,392,l),
(296,392,l),
(21,56,l)
);
}
);
};
layerId = "BA106321-29DE-4FD0-898D-B7B08A4D4215";
shapes = (
{
closed = 1;
nodes = (
(89,384,l),
(275,384,l),
(8,56,l),
(-3,0,l),
(298,0,l),
(311,64,l),
(105,64,l),
(373,392,l),
(384,448,l),
(102,448,l)
);
}
);
width = 384;
},
{
anchors = (
{
name = "#center";
pos = (195,224);
},
{
name = bottom;
pos = (150,0);
},
{
name = top;
pos = (240,448);
}
);
background = {
anchors = (
{
name = bottom;
pos = (164,0);
},
{
name = center;
pos = (209,224);
},
{
name = top;
pos = (254,448);
}
);
shapes = (
{
closed = 1;
nodes = (
(90,368,l),
(346,368,l),
(395,384,l),
(408,448,l),
(106,448,l)
);
},
{
closed = 1;
nodes = (
(1,0,l),
(322,0,l),
(338,80,l),
(63,80,l),
(13,64,l)
);
},
{
closed = 1;
nodes = (
(141,64,l),
(396,384,l),
(268,384,l),
(13,64,l)
);
}
);
};
layerId = "EBAB10B0-9FDE-44C7-9B16-DD2313400F4E";
shapes = (
{
closed = 1;
nodes = (
(76,368,l),
(241,368,l),
(-1,64,l),
(-13,0,l),
(308,0,l),
(324,80,l),
(140,80,l),
(381,384,l),
(394,448,l),
(92,448,l)
);
}
);
width = 384;
},
{
anchors = (
{
name = "#center";
pos = (195,224);
},
{
name = bottom;
pos = (150,0);
},
{
name = top;
pos = (240,448);
}
);
background = {
anchors = (
{
name = bottom;
pos = (164,0);
},
{
name = center;
pos = (209,224);
},
{
name = top;
pos = (254,448);
}
);
shapes = (
{
closed = 1;
nodes = (
(113,406,l),
(353,406,l),
(385,414,l),
(392,448,l),
(122,448,l)
);
},
{
closed = 1;
nodes = (
(17,0,l),
(306,0,l),
(314,42,l),
(55,42,l),
(24,34,l)
);
},
{
closed = 1;
nodes = (
(80,34,l),
(385,414,l),
(328,414,l),
(23,34,l)
);
}
);
};
layerId = "C21910D5-47BB-472B-A83D-89B2B42B8F2A";
shapes = (
{
closed = 1;
nodes = (
(99,406,l),
(308,406,l),
(10,34,l),
(3,0,l),
(292,0,l),
(300,42,l),
(72,42,l),
(371,414,l),
(378,448,l),
(108,448,l)
);
}
);
width = 384;
}
);
metricWidth = "=_pixel*6";
unicode = 122;
}
{
glyphname = asciitilde;
layers = (
{
layerId = "C21910D5-47BB-472B-A83D-89B2B42B8F2A";
shapes = (
{
closed = 1;
nodes = (
(408,192,o),
(450,251,o),
(478,363,c),
(437,369,l),
(412,280,o),
(388,236,o),
(334,236,cs),
(253,236,o),
(260,384,o),
(145,384,cs),
(65,384,o),
(24,325,o),
(-4,214,c),
(37,207,l),
(62,296,o),
(86,340,o),
(140,340,cs),
(221,340,o),
(213,192,o),
(331,192,cs)
);
}
);
width = 448;
},
{
layerId = "BA106321-29DE-4FD0-898D-B7B08A4D4215";
shapes = (
{
closed = 1;
nodes = (
(411,192,o),
(454,251,o),
(483,366,c),
(419,376,l),
(396,296,o),
(375,256,o),
(325,256,cs),
(255,256,o),
(281,384,o),
(153,384,cs),
(62,384,o),
(20,325,o),
(-9,211,c),
(54,200,l),
(77,280,o),
(99,320,o),
(148,320,cs),
(219,320,o),
(192,192,o),
(321,192,cs)
);
}
);
width = 448;
},
{
layerId = "EBAB10B0-9FDE-44C7-9B16-DD2313400F4E";
shapes = (
{
closed = 1;
nodes = (
(410,188,o),
(455,250,o),
(483,371,c),
(407,383,l),
(389,319,o),
(367,286,o),
(324,286,cs),
(261,286,o),
(293,388,o),
(154,388,cs),
(64,388,o),
(18,326,o),
(-10,206,c),
(67,193,l),
(85,257,o),
(106,290,o),
(150,290,cs),
(212,290,o),
(181,188,o),
(317,188,cs)
);
}
);
width = 448;
}
);
unicode = 126;
}
{
glyphname = sterling;
layers = (
{
layerId = "C21910D5-47BB-472B-A83D-89B2B42B8F2A";
shapes = (
{
closed = 1;
nodes = (
(343,0,l),
(352,44,l),
(142,44,l),
(174,202,l),
(330,202,l),
(338,246,l),
(182,246,l),
(206,363,ls),
(229,477,o),
(257,514,o),
(423,538,c),
(422,581,l),
(225,556,o),
(183,490,o),
(159,371,cs),
(134,246,l),
(84,246,l),
(76,202,l),
(126,202,l),
(94,44,l),
(24,44,l),
(15,0,l)
);
}
);
width = 448;
},
{
layerId = "BA106321-29DE-4FD0-898D-B7B08A4D4215";
shapes = (
{
closed = 1;
nodes = (
(349,0,l),
(362,64,l),
(164,64,l),
(190,192,l),
(334,192,l),
(346,256,l),
(202,256,l),
(224,362,ls),
(244,463,o),
(266,492,o),
(427,516,c),
(426,581,l),
(222,557,o),
(177,491,o),
(154,372,cs),
(130,256,l),
(80,256,l),
(68,192,l),
(118,192,l),
(92,64,l),
(22,64,l),
(9,0,l)
);
}
);
width = 448;
},
{
layerId = "EBAB10B0-9FDE-44C7-9B16-DD2313400F4E";
shapes = (
{
closed = 1;
nodes = (
(359,0,l),
(375,80,l),
(197,80,l),
(218,184,l),
(342,184,l),
(358,264,l),
(234,264,l),
(253,361,ls),
(271,451,o),
(292,478,o),
(434,499,c),
(432,581,l),
(219,558,o),
(168,492,o),
(144,373,cs),
(122,264,l),
(72,264,l),
(56,184,l),
(106,184,l),
(85,80,l),
(15,80,l),
(-1,0,l)
);
}
);
width = 448;
}
);
unicode = 163;
}
{
glyphname = brokenbar;
layers = (
{
layerId = "C21910D5-47BB-472B-A83D-89B2B42B8F2A";
shapes = (
{
closed = 1;
nodes = (
(344,704,l),
(296,704,l),
(232,384,l),
(280,384,l)
);
},
{
closed = 1;
nodes = (
(254,256,l),
(206,256,l),
(142,-64,l),
(190,-64,l)
);
}
);
width = 448;
},
{
layerId = "BA106321-29DE-4FD0-898D-B7B08A4D4215";
shapes = (
{
closed = 1;
nodes = (
(356,704,l),
(284,704,l),
(220,384,l),
(292,384,l)
);
},
{
closed = 1;
nodes = (
(266,256,l),
(194,256,l),
(130,-64,l),
(202,-64,l)
);
}
);
width = 448;
},
{
layerId = "EBAB10B0-9FDE-44C7-9B16-DD2313400F4E";
shapes = (
{
closed = 1;
nodes = (
(376,704,l),
(264,704,l),
(200,384,l),
(312,384,l)
);
},
{
closed = 1;
nodes = (
(286,256,l),
(174,256,l),
(110,-64,l),
(222,-64,l)
);
}
);
width = 448;
}
);
unicode = 166;
}
{
glyphname = registered;
layers = (
{
background = {
shapes = (
{
closed = 1;
nodes = (
(329,206,o),
(449,284,o),
(481,442,cs),
(513,606,o),
(422,686,o),
(313,686,cs),
(209,686,o),
(88,610,o),
(56,450,cs),
(24,287,o),
(114,206,o),
(224,206,cs)
);
},
{
closed = 1;
nodes = (
(340,317,l),
(342,374,o),
(320,407,o),
(288,428,c),
(249,420,l),
(278,397,o),
(294,372,o),
(293,321,c)
);
},
{
closed = 1;
nodes = (
(137,246,o),
(71,304,o),
(99,442,cs),
(127,584,o),
(220,646,o),
(312,646,cs),
(400,646,o),
(466,588,o),
(438,450,cs),
(410,308,o),
(317,246,o),
(225,246,cs)
);
},
{
closed = 1;
nodes = (
(195,319,l),
(214,414,l),
(257,414,l),
(257,417,l),
(259,417,ls),
(319,417,o),
(363,444,o),
(373,493,cs),
(384,550,o),
(347,580,o),
(288,580,cs),
(205,580,l),
(153,319,l)
);
},
{
closed = 1;
nodes = (
(240,544,l),
(285,544,ls),
(323,544,o),
(336,530,o),
(330,501,cs),
(324,471,o),
(300,450,o),
(262,450,cs),
(221,450,l)
);
}
);
};
layerId = "C21910D5-47BB-472B-A83D-89B2B42B8F2A";
shapes = (
{
closed = 1;
nodes = (
(329,206,o),
(449,284,o),
(481,442,cs),
(513,606,o),
(422,686,o),
(313,686,cs),
(209,686,o),
(88,610,o),
(56,450,cs),
(24,287,o),
(114,206,o),
(224,206,cs)
);
},
{
closed = 1;
nodes = (
(340,317,l),
(342,369,o),
(324,400,o),
(297,421,c),
(337,430,o),
(365,454,o),
(373,493,cs),
(384,550,o),
(347,580,o),
(288,580,cs),
(205,580,l),
(153,319,l),
(195,319,l),
(214,414,l),
(256,414,l),
(281,392,o),
(294,368,o),
(293,321,c)
);
},
{
closed = 1;
nodes = (
(137,246,o),
(71,304,o),
(99,442,cs),
(127,584,o),
(220,646,o),
(312,646,cs),
(400,646,o),
(466,588,o),
(438,450,cs),
(410,308,o),
(317,246,o),
(225,246,cs)
);
},
{
closed = 1;
nodes = (
(240,544,l),
(285,544,ls),
(323,544,o),
(336,530,o),
(330,501,cs),
(324,471,o),
(300,450,o),
(262,450,cs),
(221,450,l)
);
}
);
width = 448;
},
{
background = {
shapes = (
{
closed = 1;
nodes = (
(330,202,o),
(451,281,o),
(483,441,cs),
(517,609,o),
(423,692,o),
(313,692,cs),
(207,692,o),
(86,615,o),
(54,453,cs),
(21,287,o),
(114,202,o),
(225,202,cs)
);
},
{
closed = 1;
nodes = (
(343,319,l),
(344,375,o),
(324,407,o),
(293,428,c),
(246,421,l),
(275,399,o),
(288,371,o),
(287,319,c)
);
},
{
closed = 1;
nodes = (
(130,250,o),
(78,315,o),
(103,441,cs),
(130,573,o),
(214,644,o),
(313,644,cs),
(408,644,o),
(459,579,o),
(434,453,cs),
(407,321,o),
(324,250,o),
(224,250,cs)
);
},
{
closed = 1;
nodes = (
(211,319,l),
(230,413,l),
(261,413,l),
(261,421,l),
(263,421,ls),
(329,421,o),
(370,447,o),
(379,493,cs),
(390,549,o),
(357,580,o),
(296,580,cs),
(211,580,l),
(159,319,l)
);
},
{
closed = 1;
nodes = (
(254,535,l),
(286,535,ls),
(322,535,o),
(329,525,o),
(325,503,cs),
(319,476,o),
(301,458,o),
(265,458,cs),
(239,458,l)
);
}
);
};
layerId = "BA106321-29DE-4FD0-898D-B7B08A4D4215";
shapes = (
{
closed = 1;
nodes = (
(330,202,o),
(451,281,o),
(483,441,cs),
(517,609,o),
(423,692,o),
(313,692,cs),
(207,692,o),
(86,615,o),
(54,453,cs),
(21,287,o),
(114,202,o),
(225,202,cs)
);
},
{
closed = 1;
nodes = (
(343,319,l),
(344,372,o),
(326,403,o),
(299,424,c),
(344,432,o),
(372,457,o),
(379,493,cs),
(390,549,o),
(357,580,o),
(296,580,cs),
(211,580,l),
(159,319,l),
(211,319,l),
(230,413,l),
(256,413,l),
(277,393,o),
(288,366,o),
(287,319,c)
);
},
{
closed = 1;
nodes = (
(130,250,o),
(78,315,o),
(103,441,cs),
(130,573,o),
(214,644,o),
(313,644,cs),
(408,644,o),
(459,579,o),
(434,453,cs),
(407,321,o),
(324,250,o),
(224,250,cs)
);
},
{
closed = 1;
nodes = (
(254,535,l),
(286,535,ls),
(322,535,o),
(329,525,o),
(325,503,cs),
(319,476,o),
(301,458,o),
(265,458,cs),
(239,458,l)
);
}
);
width = 448;
},
{
background = {
shapes = (
{
closed = 1;
nodes = (
(333,194,o),
(458,275,o),
(491,438,cs),
(526,613,o),
(428,700,o),
(313,700,cs),
(204,700,o),
(79,621,o),
(46,456,cs),
(12,283,o),
(109,194,o),
(224,194,cs)
);
},
{
closed = 1;
nodes = (
(351,319,l),
(352,374,o),
(330,407,o),
(298,427,c),
(227,421,l),
(258,402,o),
(271,373,o),
(269,319,c)
);
},
{
closed = 1;
nodes = (
(130,258,o),
(91,330,o),
(113,438,cs),
(136,556,o),
(212,636,o),
(313,636,cs),
(408,636,o),
(446,564,o),
(424,456,cs),
(401,338,o),
(326,258,o),
(224,258,cs)
);
},
{
closed = 1;
nodes = (
(222,319,l),
(239,405,l),
(255,405,l),
(255,417,l),
(257,417,ls),
(328,417,o),
(374,443,o),
(383,488,cs),
(395,548,o),
(356,580,o),
(287,580,cs),
(194,580,l),
(142,319,l)
);
},
{
closed = 1;
nodes = (
(263,524,l),
(280,524,ls),
(303,524,o),
(308,517,o),
(305,502,cs),
(300,477,o),
(284,461,o),
(261,461,cs),
(250,461,l)
);
}
);
};
layerId = "EBAB10B0-9FDE-44C7-9B16-DD2313400F4E";
shapes = (
{
closed = 1;
nodes = (
(333,194,o),
(458,275,o),
(491,438,cs),
(526,613,o),
(428,700,o),
(313,700,cs),
(204,700,o),
(79,621,o),
(46,456,cs),
(12,283,o),
(109,194,o),
(224,194,cs)
);
},
{
closed = 1;
nodes = (
(351,319,l),
(352,370,o),
(333,402,o),
(306,422,c),
(348,431,o),
(376,454,o),
(383,488,cs),
(395,548,o),
(356,580,o),
(287,580,cs),
(194,580,l),
(142,319,l),
(222,319,l),
(239,405,l),
(247,405,l),
(264,386,o),
(271,361,o),
(269,319,c)
);
},
{
closed = 1;
nodes = (
(130,258,o),
(91,330,o),
(113,438,cs),
(136,556,o),
(212,636,o),
(313,636,cs),
(408,636,o),
(446,564,o),
(424,456,cs),
(401,338,o),
(326,258,o),
(224,258,cs)
);
},
{
closed = 1;
nodes = (
(263,524,l),
(280,524,ls),
(303,524,o),
(308,517,o),
(305,502,cs),
(300,477,o),
(284,461,o),
(261,461,cs),
(250,461,l)
);
}
);
width = 448;
}
);
unicode = 174;
}
{
glyphname = degree;
layers = (
{
layerId = "C21910D5-47BB-472B-A83D-89B2B42B8F2A";
shapes = (
{
closed = 1;
nodes = (
(118,516,cs),
(104,443,o),
(147,377,o),
(226,377,cs),
(301,377,o),
(367,439,o),
(381,508,cs),
(395,581,o),
(352,647,o),
(273,647,cs),
(198,647,o),
(132,585,o)
);
},
{
closed = 1;
nodes = (
(165,508,cs),
(175,558,o),
(213,603,o),
(271,603,cs),
(325,603,o),
(343,562,o),
(334,516,cs),
(324,466,o),
(285,421,o),
(228,421,cs),
(173,421,o),
(155,462,o)
);
}
);
width = 448;
},
{
layerId = "BA106321-29DE-4FD0-898D-B7B08A4D4215";
shapes = (
{
closed = 1;
nodes = (
(178,518,cs),
(163,442,o),
(208,377,o),
(292,377,cs),
(370,377,o),
(435,436,o),
(449,506,cs),
(465,582,o),
(419,647,o),
(336,647,cs),
(257,647,o),
(192,588,o)
);
},
{
closed = 1;
nodes = (
(238,506,cs),
(245,541,o),
(275,591,o),
(334,591,cs),
(389,591,o),
(395,547,o),
(389,518,cs),
(381,481,o),
(352,433,o),
(293,433,cs),
(238,433,o),
(232,475,o)
);
}
);
width = 448;
},
{
layerId = "EBAB10B0-9FDE-44C7-9B16-DD2313400F4E";
shapes = (
{
closed = 1;
nodes = (
(104,521,cs),
(88,439,o),
(136,377,o),
(229,377,cs),
(316,377,o),
(380,431,o),
(395,503,cs),
(411,585,o),
(363,647,o),
(270,647,cs),
(183,647,o),
(119,593,o)
);
},
{
closed = 1;
nodes = (
(194,503,cs),
(202,545,o),
(230,575,o),
(268,575,cs),
(300,575,o),
(312,553,o),
(305,521,cs),
(297,479,o),
(269,449,o),
(230,449,cs),
(199,449,o),
(187,471,o)
);
}
);
width = 448;
}
);
unicode = 176;
}
{
glyphname = micro;
layers = (
{
background = {
shapes = (
{
closed = 1;
nodes = (
(31,-192,l),
(159,448,l),
(111,448,l),
(-17,-192,l)
);
},
{
closed = 1;
nodes = (
(216,-4,o),
(295,52,o),
(342,101,c),
(323,121,l),
(267,76,o),
(212,40,o),
(156,40,cs),
(98,40,o),
(83,67,o),
(97,141,c),
(65,145,l),
(45,46,o),
(76,-4,o),
(151,-4,cs)
);
},
{
closed = 1;
nodes = (
(339,0,l),
(353,78,l),
(427,448,l),
(379,448,l),
(307,88,l),
(295,0,l)
);
}
);
};
layerId = "C21910D5-47BB-472B-A83D-89B2B42B8F2A";
shapes = (
{
closed = 1;
nodes = (
(31,-192,l),
(75,29,l),
(90,7,o),
(116,-4,o),
(151,-4,cs),
(201,-4,o),
(259,29,o),
(304,66,c),
(295,0,l),
(339,0,l),
(353,78,l),
(427,448,l),
(379,448,l),
(312,112,l),
(260,71,o),
(208,40,o),
(156,40,cs),
(98,40,o),
(82,67,o),
(97,141,cs),
(159,448,l),
(111,448,l),
(-17,-192,l)
);
}
);
width = 448;
},
{
background = {
shapes = (
{
closed = 1;
nodes = (
(49,-192,l),
(177,448,l),
(105,448,l),
(-23,-192,l)
);
},
{
closed = 1;
nodes = (
(214,-4,o),
(299,47,o),
(344,101,c),
(311,136,l),
(269,96,o),
(214,60,o),
(163,60,cs),
(113,60,o),
(105,87,o),
(118,156,c),
(87,162,l),
(65,52,o),
(78,-4,o),
(156,-4,cs)
);
},
{
closed = 1;
nodes = (
(345,0,l),
(356,65,l),
(433,448,l),
(361,448,l),
(284,64,l),
(280,0,l)
);
}
);
};
layerId = "BA106321-29DE-4FD0-898D-B7B08A4D4215";
shapes = (
{
closed = 1;
nodes = (
(49,-192,l),
(92,22,l),
(104,5,o),
(125,-4,o),
(156,-4,cs),
(193,-4,o),
(242,17,o),
(283,46,c),
(280,0,l),
(345,0,l),
(356,65,l),
(433,448,l),
(361,448,l),
(296,122,l),
(255,87,o),
(208,60,o),
(163,60,cs),
(114,60,o),
(105,87,o),
(119,156,cs),
(177,448,l),
(105,448,l),
(-23,-192,l)
);
}
);
width = 448;
},
{
background = {
shapes = (
{
closed = 1;
nodes = (
(79,-192,l),
(207,448,l),
(95,448,l),
(-33,-192,l)
);
},
{
closed = 1;
nodes = (
(223,-4,o),
(287,34,o),
(344,99,c),
(304,144,l),
(260,100,o),
(213,76,o),
(177,76,cs),
(148,76,o),
(134,86,o),
(146,143,c),
(97,151,l),
(77,49,o),
(91,-4,o),
(168,-4,cs)
);
},
{
closed = 1;
nodes = (
(355,0,l),
(366,65,l),
(443,448,l),
(331,448,l),
(260,92,l),
(258,0,l)
);
}
);
};
layerId = "EBAB10B0-9FDE-44C7-9B16-DD2313400F4E";
shapes = (
{
closed = 1;
nodes = (
(79,-192,l),
(119,7,l),
(130,0,o),
(147,-4,o),
(168,-4,cs),
(197,-4,o),
(227,6,o),
(259,25,c),
(258,0,l),
(355,0,l),
(366,65,l),
(443,448,l),
(331,448,l),
(264,110,l),
(233,88,o),
(202,76,o),
(177,76,cs),
(149,76,o),
(135,85,o),
(145,137,cs),
(207,448,l),
(95,448,l),
(-33,-192,l)
);
}
);
width = 448;
},
{
associatedMasterId = "BA106321-29DE-4FD0-898D-B7B08A4D4215";
attr = {
coordinates = (
400,
-64,
1
);
};
background = {
shapes = (
{
closed = 1;
nodes = (
(74,-64,l),
(177,448,l),
(105,448,l),
(2,-64,l)
);
},
{
closed = 1;
nodes = (
(233,92,o),
(318,143,o),
(363,197,c),
(330,232,l),
(288,192,o),
(233,156,o),
(182,156,cs),
(132,156,o),
(124,183,o),
(138,252,c),
(106,258,l),
(84,148,o),
(97,92,o),
(176,92,cs)
);
},
{
closed = 1;
nodes = (
(364,96,l),
(375,161,l),
(433,448,l),
(361,448,l),
(304,160,l),
(299,96,l)
);
}
);
};
layerId = "4327EC31-AE15-4838-81DB-B979830C2192";
name = "{400, 1, -64}";
shapes = (
{
closed = 1;
nodes = (
(74,-64,l),
(111,119,l),
(123,102,o),
(144,92,o),
(176,92,cs),
(213,92,o),
(262,114,o),
(303,143,c),
(299,96,l),
(364,96,l),
(375,161,l),
(433,448,l),
(361,448,l),
(316,219,l),
(277,185,o),
(227,156,o),
(182,156,cs),
(132,156,o),
(124,183,o),
(138,252,cs),
(177,448,l),
(105,448,l),
(2,-64,l)
);
}
);
width = 448;
},
{
associatedMasterId = "EBAB10B0-9FDE-44C7-9B16-DD2313400F4E";
attr = {
coordinates = (
700,
-64,
1
);
};
background = {
shapes = (
{
closed = 1;
nodes = (
(79,-192,l),
(207,448,l),
(95,448,l),
(-33,-192,l)
);
},
{
closed = 1;
nodes = (
(223,-4,o),
(287,34,o),
(344,99,c),
(304,144,l),
(260,100,o),
(213,76,o),
(177,76,cs),
(148,76,o),
(134,86,o),
(146,143,c),
(97,151,l),
(77,49,o),
(91,-4,o),
(168,-4,cs)
);
},
{
closed = 1;
nodes = (
(355,0,l),
(366,65,l),
(443,448,l),
(331,448,l),
(260,92,l),
(258,0,l)
);
}
);
};
layerId = "02BB17E4-CC68-4B99-9186-B3F8A0C69B0C";
name = "5. Mar 25 at 21:03";
shapes = (
{
closed = 1;
nodes = (
(104,-64,l),
(138,103,l),
(149,96,o),
(166,92,o),
(187,92,cs),
(216,92,o),
(246,102,o),
(278,121,c),
(277,96,l),
(374,96,l),
(385,161,l),
(443,448,l),
(331,448,l),
(283,206,l),
(252,184,o),
(221,172,o),
(196,172,cs),
(168,172,o),
(154,181,o),
(164,233,cs),
(207,448,l),
(95,448,l),
(-8,-64,l)
);
}
);
width = 448;
},
{
associatedMasterId = "C21910D5-47BB-472B-A83D-89B2B42B8F2A";
attr = {
coordinates = (
200,
-64,
1
);
};
background = {
shapes = (
{
closed = 1;
nodes = (
(31,-192,l),
(159,448,l),
(111,448,l),
(-17,-192,l)
);
},
{
closed = 1;
nodes = (
(216,-4,o),
(295,52,o),
(342,101,c),
(323,121,l),
(267,76,o),
(212,40,o),
(156,40,cs),
(98,40,o),
(83,67,o),
(97,141,c),
(65,145,l),
(45,46,o),
(76,-4,o),
(151,-4,cs)
);
},
{
closed = 1;
nodes = (
(339,0,l),
(353,78,l),
(427,448,l),
(379,448,l),
(307,88,l),
(295,0,l)
);
}
);
};
layerId = "4FC88224-1FC6-400B-B74D-5F42A4C6E7B5";
name = "5. Mar 25 at 21:03";
shapes = (
{
closed = 1;
nodes = (
(56,-64,l),
(94,125,l),
(109,103,o),
(135,92,o),
(170,92,cs),
(220,92,o),
(278,125,o),
(323,162,c),
(314,96,l),
(358,96,l),
(372,174,l),
(427,448,l),
(379,448,l),
(331,208,l),
(279,167,o),
(227,136,o),
(175,136,cs),
(117,136,o),
(101,163,o),
(116,237,cs),
(159,448,l),
(111,448,l),
(8,-64,l)
);
}
);
width = 448;
}
);
unicode = 181;
}
{
glyphname = guillemetright;
kernLeft = guillemetright;
kernRight = hyphen;
layers = (
{
layerId = "C21910D5-47BB-472B-A83D-89B2B42B8F2A";
shapes = (
{
closed = 1;
nodes = (
(373,224,l),
(344,413,l),
(297,400,l),
(318,224,l),
(227,48,l),
(270,35,l)
);
},
{
closed = 1;
nodes = (
(197,224,l),
(169,407,l),
(122,394,l),
(142,224,l),
(54,53,l),
(97,40,l)
);
}
);
width = 448;
},
{
layerId = "BA106321-29DE-4FD0-898D-B7B08A4D4215";
shapes = (
{
closed = 1;
nodes = (
(384,224,l),
(358,417,l),
(285,397,l),
(307,224,l),
(215,51,l),
(282,31,l)
);
},
{
closed = 1;
nodes = (
(208,224,l),
(182,411,l),
(110,391,l),
(131,224,l),
(42,57,l),
(109,37,l)
);
}
);
width = 448;
},
{
layerId = "EBAB10B0-9FDE-44C7-9B16-DD2313400F4E";
shapes = (
{
closed = 1;
nodes = (
(410,223,l),
(378,422,l),
(266,391,l),
(283,223,l),
(198,55,l),
(300,25,l)
);
},
{
closed = 1;
nodes = (
(233,223,l),
(202,415,l),
(89,384,l),
(106,223,l),
(25,61,l),
(126,31,l)
);
}
);
width = 448;
}
);
unicode = 187;
}
{
color = 8;
glyphname = AE;
kernLeft = A;
kernRight = E;
layers = (
{
anchors = (
{
name = bottom;
pos = (283,0);
},
{
name = top;
pos = (459,640);
}
);
background = {
anchors = (
{
name = bottom;
pos = (283,0);
},
{
name = top;
pos = (459,640);
}
);
shapes = (
{
closed = 1;
nodes = (
(380,256,l),
(558,256,l),
(571,320,l),
(393,320,l),
(444,576,l),
(676,576,l),
(689,640,l),
(272,640,l),
(158,475,o),
(59,243,o),
(-10,0,c),
(64,0,l),
(133,238,o),
(217,439,o),
(304,576,c),
(372,576,l),
(257,0,l),
(571,0,l),
(584,64,l),
(342,64,l)
);
},
{
closed = 1;
nodes = (
(90,192,l),
(331,192,l),
(343,256,l),
(102,256,l)
);
}
);
};
layerId = "BA106321-29DE-4FD0-898D-B7B08A4D4215";
shapes = (
{
closed = 1;
nodes = (
(380,256,l),
(558,256,l),
(571,320,l),
(393,320,l),
(444,576,l),
(676,576,l),
(689,640,l),
(272,640,l),
(158,475,o),
(59,243,o),
(-10,0,c),
(64,0,l),
(83,66,o),
(104,131,o),
(126,192,c),
(295,192,l),
(257,0,l),
(571,0,l),
(584,64,l),
(342,64,l)
);
},
{
closed = 1;
nodes = (
(198,384,o),
(250,491,o),
(304,576,c),
(372,576,l),
(308,256,l),
(149,256,l)
);
}
);
width = 656;
},
{
anchors = (
{
name = bottom;
pos = (283,0);
},
{
name = top;
pos = (459,640);
}
);
background = {
anchors = (
{
name = bottom;
pos = (283,0);
},
{
name = top;
pos = (459,640);
}
);
shapes = (
{
closed = 1;
nodes = (
(408,248,l),
(578,248,l),
(594,327,l),
(424,327,l),
(470,560,l),
(689,560,l),
(705,640,l),
(236,640,l),
(136,473,o),
(46,243,o),
(-20,0,c),
(94,0,l),
(157,234,o),
(230,427,o),
(291,560,c),
(358,560,l),
(246,0,l),
(587,0,l),
(603,80,l),
(374,80,l)
);
},
{
closed = 1;
nodes = (
(83,160,l),
(325,160,l),
(341,240,l),
(99,240,l)
);
}
);
};
layerId = "EBAB10B0-9FDE-44C7-9B16-DD2313400F4E";
shapes = (
{
closed = 1;
nodes = (
(408,248,l),
(578,248,l),
(594,327,l),
(424,327,l),
(470,560,l),
(689,560,l),
(705,640,l),
(236,640,l),
(136,473,o),
(46,243,o),
(-20,0,c),
(94,0,l),
(109,56,o),
(124,108,o),
(140,160,c),
(278,160,l),
(246,0,l),
(587,0,l),
(603,80,l),
(374,80,l)
);
},
{
closed = 1;
nodes = (
(209,368,o),
(252,475,o),
(291,560,c),
(358,560,l),
(294,240,l),
(166,240,l)
);
}
);
width = 656;
},
{
anchors = (
{
name = bottom;
pos = (283,0);
},
{
name = top;
pos = (459,640);
}
);
background = {
anchors = (
{
name = bottom;
pos = (283,0);
},
{
name = top;
pos = (459,640);
}
);
shapes = (
{
closed = 1;
nodes = (
(366,266,l),
(552,266,l),
(561,310,l),
(375,310,l),
(432,596,l),
(672,596,l),
(681,640,l),
(285,640,l),
(169,476,o),
(66,243,o),
(-5,0,c),
(46,0,l),
(118,243,o),
(210,448,o),
(306,596,c),
(384,596,l),
(265,0,l),
(563,0,l),
(572,44,l),
(322,44,l)
);
},
{
closed = 1;
nodes = (
(92,202,l),
(334,202,l),
(342,246,l),
(100,246,l)
);
}
);
};
layerId = "C21910D5-47BB-472B-A83D-89B2B42B8F2A";
shapes = (
{
closed = 1;
nodes = (
(366,266,l),
(552,266,l),
(561,310,l),
(375,310,l),
(432,596,l),
(672,596,l),
(681,640,l),
(285,640,l),
(169,476,o),
(66,243,o),
(-5,0,c),
(46,0,l),
(67,71,o),
(90,138,o),
(114,202,c),
(305,202,l),
(265,0,l),
(563,0,l),
(572,44,l),
(322,44,l)
);
},
{
closed = 1;
nodes = (
(184,382,o),
(245,502,o),
(306,596,c),
(384,596,l),
(314,246,l),
(130,246,l)
);
}
);
width = 656;
}
);
metricRight = E.ss20;
unicode = 198;
}
{
glyphname = Thorn;
layers = (
{
layerId = "C21910D5-47BB-472B-A83D-89B2B42B8F2A";
shapes = (
{
closed = 1;
nodes = (
(170,502,l),
(197,640,l),
(149,640,l),
(21,0,l),
(69,0,l),
(97,138,l),
(197,138,ls),
(308,138,o),
(389,196,o),
(413,314,cs),
(437,435,o),
(377,502,o),
(266,502,cs)
);
},
{
closed = 1;
nodes = (
(106,182,l),
(161,458,l),
(258,458,ls),
(363,458,o),
(380,399,o),
(365,322,cs),
(348,241,o),
(304,182,o),
(199,182,cs)
);
}
);
width = 448;
},
{
layerId = "BA106321-29DE-4FD0-898D-B7B08A4D4215";
shapes = (
{
closed = 1;
nodes = (
(190,512,l),
(215,640,l),
(143,640,l),
(15,0,l),
(87,0,l),
(113,128,l),
(198,128,ls),
(310,128,o),
(394,189,o),
(419,312,cs),
(444,440,o),
(382,512,o),
(270,512,cs)
);
},
{
closed = 1;
nodes = (
(126,192,l),
(177,448,l),
(255,448,ls),
(348,448,o),
(363,402,o),
(347,324,cs),
(331,244,o),
(294,192,o),
(199,192,cs)
);
}
);
width = 448;
},
{
layerId = "EBAB10B0-9FDE-44C7-9B16-DD2313400F4E";
shapes = (
{
closed = 1;
nodes = (
(221,520,l),
(245,640,l),
(133,640,l),
(5,0,l),
(117,0,l),
(141,120,l),
(201,120,ls),
(316,120,o),
(403,183,o),
(428,309,cs),
(455,444,o),
(390,520,o),
(275,520,cs)
);
},
{
closed = 1;
nodes = (
(157,200,l),
(205,440,l),
(240,440,ls),
(321,440,o),
(332,398,o),
(318,327,cs),
(302,250,o),
(268,200,o),
(186,200,cs)
);
}
);
width = 448;
}
);
unicode = 222;
}
{
color = 9;
glyphname = germandbls;
layers = (
{
layerId = "BA106321-29DE-4FD0-898D-B7B08A4D4215";
shapes = (
{
closed = 1;
nodes = (
(42,-159,o),
(81,-113,o),
(97,-14,cs),
(187,499,ls),
(196,550,o),
(231,584,o),
(292,584,cs),
(333,584,o),
(355,570,o),
(355,538,cs),
(355,427,o),
(205,440,o),
(205,305,cs),
(205,208,o),
(313,200,o),
(313,130,cs),
(313,91,o),
(285,58,o),
(229,58,cs),
(206,58,o),
(186,61,o),
(166,66,c),
(146,5,l),
(169,-2,o),
(198,-8,o),
(233,-8,cs),
(330,-8,o),
(388,58,o),
(388,134,cs),
(388,233,o),
(281,249,o),
(281,311,cs),
(281,393,o),
(430,402,o),
(430,540,cs),
(430,610,o),
(374,648,o),
(297,648,cs),
(210,648,o),
(134,608,o),
(115,499,cs),
(27,-9,ls),
(12,-95,o),
(-19,-131,o),
(-54,-168,c),
(-6,-204,l)
);
}
);
width = 448;
},
{
layerId = "EBAB10B0-9FDE-44C7-9B16-DD2313400F4E";
shapes = (
{
closed = 1;
nodes = (
(83,-153,o),
(110,-102,o),
(127,-8,cs),
(216,496,ls),
(224,539,o),
(249,568,o),
(286,568,cs),
(313,568,o),
(326,552,o),
(326,530,cs),
(326,439,o),
(203,410,o),
(203,292,cs),
(203,196,o),
(284,207,o),
(284,138,cs),
(284,98,o),
(251,74,o),
(212,74,cs),
(194,74,o),
(177,77,o),
(161,82,c),
(139,8,l),
(163,-1,o),
(195,-8,o),
(232,-8,cs),
(318,-8,o),
(399,43,o),
(399,135,cs),
(399,235,o),
(321,252,o),
(321,316,cs),
(321,400,o),
(440,423,o),
(440,528,cs),
(440,596,o),
(392,648,o),
(295,648,cs),
(199,648,o),
(124,609,o),
(105,500,cs),
(17,0,ls),
(3,-80,o),
(-21,-123,o),
(-56,-170,c),
(34,-205,l)
);
}
);
width = 448;
},
{
layerId = "C21910D5-47BB-472B-A83D-89B2B42B8F2A";
shapes = (
{
closed = 1;
nodes = (
(34,-150,o),
(62,-114,o),
(79,-14,cs),
(169,501,ls),
(179,560,o),
(224,604,o),
(295,604,cs),
(352,604,o),
(373,576,o),
(373,541,cs),
(373,423,o),
(216,429,o),
(216,308,cs),
(216,204,o),
(331,210,o),
(331,126,cs),
(331,65,o),
(285,38,o),
(226,38,cs),
(207,38,o),
(185,40,o),
(164,44,c),
(151,2,l),
(173,-4,o),
(199,-8,o),
(230,-8,cs),
(302,-8,o),
(381,33,o),
(381,130,cs),
(381,240,o),
(267,237,o),
(267,310,cs),
(267,401,o),
(424,414,o),
(424,538,cs),
(424,604,o),
(377,648,o),
(298,648,cs),
(218,648,o),
(140,607,o),
(121,498,cs),
(32,-10,ls),
(17,-96,o),
(-11,-133,o),
(-45,-170,c),
(-12,-195,l)
);
}
);
width = 448;
},
{
associatedMasterId = "BA106321-29DE-4FD0-898D-B7B08A4D4215";
attr = {
coordinates = (
400,
-64,
1
);
};
layerId = "6A922E9E-9FAE-4783-A2E9-0BFD0B35966C";
name = "{400, 1, -64}";
shapes = (
{
closed = 1;
nodes = (
(64,-31,o),
(102,15,o),
(119,114,cs),
(187,499,ls),
(196,550,o),
(231,584,o),
(292,584,cs),
(333,584,o),
(355,570,o),
(355,538,cs),
(355,427,o),
(205,440,o),
(205,305,cs),
(205,208,o),
(313,200,o),
(313,130,cs),
(313,91,o),
(285,58,o),
(229,58,cs),
(206,58,o),
(186,61,o),
(166,66,c),
(146,5,l),
(169,-2,o),
(198,-8,o),
(233,-8,cs),
(330,-8,o),
(388,58,o),
(388,134,cs),
(388,233,o),
(281,249,o),
(281,311,cs),
(281,393,o),
(430,402,o),
(430,540,cs),
(430,610,o),
(374,648,o),
(297,648,cs),
(210,648,o),
(134,608,o),
(115,499,cs),
(49,119,ls),
(34,33,o),
(3,-3,o),
(-32,-40,c),
(16,-76,l)
);
}
);
width = 448;
},
{
associatedMasterId = "EBAB10B0-9FDE-44C7-9B16-DD2313400F4E";
attr = {
coordinates = (
700,
-64,
1
);
};
layerId = "14428383-1CF1-4D16-8C69-D84CF77380F9";
name = "5. Mar 25 at 19:31";
shapes = (
{
closed = 1;
nodes = (
(105,-25,o),
(132,25,o),
(149,120,cs),
(216,496,ls),
(224,539,o),
(249,568,o),
(286,568,cs),
(313,568,o),
(326,552,o),
(326,530,cs),
(326,439,o),
(203,410,o),
(203,292,cs),
(203,196,o),
(284,207,o),
(284,138,cs),
(284,98,o),
(251,74,o),
(212,74,cs),
(194,74,o),
(177,77,o),
(161,82,c),
(139,8,l),
(163,-1,o),
(195,-8,o),
(232,-8,cs),
(318,-8,o),
(399,43,o),
(399,135,cs),
(399,235,o),
(321,252,o),
(321,316,cs),
(321,400,o),
(440,423,o),
(440,528,cs),
(440,596,o),
(392,648,o),
(295,648,cs),
(199,648,o),
(124,609,o),
(105,500,cs),
(39,128,ls),
(25,48,o),
(1,5,o),
(-34,-42,c),
(56,-77,l)
);
}
);
width = 448;
},
{
associatedMasterId = "C21910D5-47BB-472B-A83D-89B2B42B8F2A";
attr = {
coordinates = (
200,
-64,
1
);
};
layerId = "179FDE7C-7982-491F-AE04-B0A95F1EFCD6";
name = "5. Mar 25 at 19:31";
shapes = (
{
closed = 1;
nodes = (
(56,-22,o),
(83,13,o),
(101,114,cs),
(169,501,ls),
(179,559,o),
(224,604,o),
(295,604,cs),
(352,604,o),
(373,576,o),
(373,541,cs),
(373,423,o),
(216,429,o),
(216,308,cs),
(216,204,o),
(331,210,o),
(331,126,cs),
(331,65,o),
(285,38,o),
(226,38,cs),
(207,38,o),
(185,40,o),
(164,44,c),
(151,2,l),
(173,-4,o),
(199,-8,o),
(230,-8,cs),
(302,-8,o),
(381,33,o),
(381,130,cs),
(381,240,o),
(267,237,o),
(267,310,cs),
(267,401,o),
(424,414,o),
(424,538,cs),
(424,604,o),
(377,648,o),
(298,648,cs),
(218,648,o),
(140,608,o),
(121,498,cs),
(54,118,ls),
(39,33,o),
(11,-5,o),
(-23,-42,c),
(10,-67,l)
);
}
);
width = 448;
}
);
unicode = 223;
}
{
color = 8;
glyphname = ae;
kernLeft = a;
kernRight = e;
layers = (
{
anchors = (
{
name = bottom;
pos = (307,0);
},
{
name = top;
pos = (397,448);
}
);
background = {
anchors = (
{
name = bottom;
pos = (307,0);
},
{
name = top;
pos = (397,448);
}
);
shapes = (
{
closed = 1;
nodes = (
(496,-11,o),
(543,-3,o),
(592,17,c),
(584,77,l),
(544,64,o),
(505,53,o),
(463,53,cs),
(378,53,o),
(360,93,o),
(385,218,cs),
(410,347,o),
(451,395,o),
(519,395,cs),
(584,395,o),
(602,345,o),
(572,227,c),
(620,263,l),
(360,263,l),
(351,264,l),
(123,264,o),
(31,202,o),
(31,97,cs),
(31,26,o),
(80,-8,o),
(146,-8,cs),
(215,-8,o),
(279,23,o),
(334,54,c),
(308,109,l),
(258,80,o),
(205,56,o),
(157,56,cs),
(125,56,o),
(107,73,o),
(107,104,cs),
(107,157,o),
(150,202,o),
(344,202,c),
(347,201,l),
(642,198,l),
(685,356,o),
(645,459,o),
(527,459,cs),
(407,459,o),
(346,357,o),
(320,227,c),
(375,224,l),
(389,296,ls),
(411,407,o),
(361,455,o),
(262,455,cs),
(209,455,o),
(158,440,o),
(115,422,c),
(130,362,l),
(169,376,o),
(216,390,o),
(259,390,cs),
(324,390,o),
(342,368,o),
(326,288,cs),
(318,249,l),
(311,227,l),
(285,97,o),
(309,-11,o),
(456,-11,cs)
);
}
);
};
layerId = "BA106321-29DE-4FD0-898D-B7B08A4D4215";
shapes = (
{
closed = 1;
nodes = (
(496,-11,o),
(543,-3,o),
(592,17,c),
(584,77,l),
(544,64,o),
(505,53,o),
(463,53,cs),
(382,53,o),
(362,89,o),
(382,201,c),
(642,198,l),
(685,356,o),
(645,459,o),
(527,459,cs),
(466,459,o),
(420,432,o),
(387,390,c),
(370,435,o),
(326,455,o),
(262,455,cs),
(209,455,o),
(158,440,o),
(115,422,c),
(130,362,l),
(169,376,o),
(216,390,o),
(259,390,cs),
(324,390,o),
(342,368,o),
(326,288,cs),
(321,264,l),
(114,258,o),
(31,197,o),
(31,97,cs),
(31,26,o),
(80,-8,o),
(146,-8,cs),
(211,-8,o),
(272,20,o),
(324,49,c),
(347,12,o),
(389,-11,o),
(456,-11,cs)
);
},
{
closed = 1;
nodes = (
(107,153,o),
(145,196,o),
(306,201,c),
(301,167,o),
(300,135,o),
(304,107,c),
(256,79,o),
(204,56,o),
(157,56,cs),
(125,56,o),
(107,73,o),
(107,104,cs)
);
},
{
closed = 1;
nodes = (
(421,359,o),
(460,395,o),
(519,395,cs),
(577,395,o),
(597,354,o),
(580,263,c),
(395,263,l)
);
}
);
width = 704;
},
{
anchors = (
{
name = bottom;
pos = (307,0);
},
{
name = top;
pos = (397,448);
}
);
background = {
anchors = (
{
name = bottom;
pos = (307,0);
},
{
name = top;
pos = (397,448);
}
);
shapes = (
{
closed = 1;
nodes = (
(502,-11,o),
(554,0,o),
(607,20,c),
(597,97,l),
(553,82,o),
(511,69,o),
(464,69,cs),
(401,69,o),
(388,104,o),
(410,215,cs),
(434,334,o),
(466,379,o),
(517,379,cs),
(563,379,o),
(573,335,o),
(548,228,c),
(621,266,l),
(359,266,l),
(352,276,l),
(118,276,o),
(17,221,o),
(17,105,cs),
(17,29,o),
(72,-8,o),
(148,-8,cs),
(213,-8,o),
(275,32,o),
(330,73,c),
(298,135,l),
(256,101,o),
(210,72,o),
(171,72,cs),
(146,72,o),
(132,86,o),
(132,116,cs),
(132,172,o),
(177,207,o),
(346,207,c),
(345,188,l),
(653,184,l),
(699,350,o),
(655,459,o),
(525,459,cs),
(401,459,o),
(339,358,o),
(313,228,c),
(383,224,l),
(397,295,ls),
(419,406,o),
(366,455,o),
(259,455,cs),
(201,455,o),
(142,442,o),
(94,425,c),
(102,344,l),
(141,356,o),
(188,367,o),
(232,367,cs),
(287,367,o),
(302,351,o),
(290,289,cs),
(282,249,l),
(278,228,l),
(252,98,o),
(282,-11,o),
(455,-11,cs)
);
}
);
};
layerId = "EBAB10B0-9FDE-44C7-9B16-DD2313400F4E";
shapes = (
{
closed = 1;
nodes = (
(502,-11,o),
(554,0,o),
(607,20,c),
(597,97,l),
(553,82,o),
(511,69,o),
(464,69,cs),
(407,69,o),
(391,99,o),
(405,187,c),
(653,184,l),
(699,350,o),
(655,459,o),
(525,459,cs),
(467,459,o),
(422,436,o),
(389,400,c),
(368,437,o),
(323,455,o),
(259,455,cs),
(201,455,o),
(142,442,o),
(94,425,c),
(102,344,l),
(141,356,o),
(188,367,o),
(232,367,cs),
(287,367,o),
(302,351,o),
(290,289,cs),
(287,274,l),
(100,265,o),
(17,210,o),
(17,105,cs),
(17,29,o),
(72,-8,o),
(148,-8,cs),
(201,-8,o),
(251,18,o),
(298,50,c),
(325,13,o),
(375,-11,o),
(455,-11,cs)
);
},
{
closed = 1;
nodes = (
(132,163,o),
(165,195,o),
(274,204,c),
(269,172,o),
(268,143,o),
(273,116,c),
(237,90,o),
(202,72,o),
(171,72,cs),
(146,72,o),
(132,86,o),
(132,116,cs)
);
},
{
closed = 1;
nodes = (
(445,348,o),
(474,379,o),
(517,379,cs),
(557,379,o),
(570,346,o),
(556,266,c),
(422,266,l)
);
}
);
width = 704;
},
{
anchors = (
{
name = bottom;
pos = (308,0);
},
{
name = top;
pos = (398,448);
}
);
background = {
anchors = (
{
name = bottom;
pos = (308,0);
},
{
name = top;
pos = (398,448);
}
);
shapes = (
{
closed = 1;
nodes = (
(495,-9,o),
(539,-4,o),
(587,13,c),
(582,51,l),
(543,41,o),
(506,33,o),
(465,33,cs),
(370,33,o),
(341,81,o),
(369,220,cs),
(397,362,o),
(445,415,o),
(521,415,cs),
(595,415,o),
(626,361,o),
(596,226,c),
(619,257,l),
(358,257,l),
(350,256,l),
(126,256,o),
(25,197,o),
(25,90,cs),
(25,22,o),
(72,-9,o),
(131,-9,cs),
(205,-9,o),
(275,41,o),
(338,87,c),
(317,119,l),
(262,78,o),
(194,36,o),
(137,36,cs),
(96,36,o),
(77,56,o),
(77,93,cs),
(77,168,o),
(153,213,o),
(345,213,c),
(350,213,l),
(643,211,l),
(682,370,o),
(636,459,o),
(523,459,cs),
(412,459,o),
(354,368,o),
(328,238,c),
(372,236,l),
(384,297,ls),
(407,410,o),
(356,455,o),
(270,455,cs),
(211,455,o),
(150,437,o),
(109,421,c),
(116,381,l),
(165,397,o),
(213,410,o),
(263,410,cs),
(331,410,o),
(353,386,o),
(336,300,cs),
(326,249,l),
(321,226,l),
(296,98,o),
(315,-9,o),
(456,-9,cs)
);
}
);
};
layerId = "C21910D5-47BB-472B-A83D-89B2B42B8F2A";
shapes = (
{
closed = 1;
nodes = (
(495,-9,o),
(539,-4,o),
(587,13,c),
(582,51,l),
(543,41,o),
(506,33,o),
(465,33,cs),
(372,33,o),
(342,79,o),
(368,213,c),
(643,211,l),
(682,370,o),
(636,459,o),
(523,459,cs),
(462,459,o),
(418,432,o),
(385,385,c),
(371,434,o),
(328,455,o),
(270,455,cs),
(211,455,o),
(150,437,o),
(109,421,c),
(116,381,l),
(165,397,o),
(213,410,o),
(263,410,cs),
(331,410,o),
(353,386,o),
(336,300,cs),
(327,256,l),
(118,252,o),
(25,193,o),
(25,90,cs),
(25,22,o),
(72,-9,o),
(131,-9,cs),
(198,-9,o),
(263,33,o),
(321,75,c),
(338,23,o),
(378,-9,o),
(456,-9,cs)
);
},
{
closed = 1;
nodes = (
(77,164,o),
(147,209,o),
(319,213,c),
(313,178,o),
(310,146,o),
(313,116,c),
(259,76,o),
(193,36,o),
(137,36,cs),
(96,36,o),
(77,56,o),
(77,93,cs)
);
},
{
closed = 1;
nodes = (
(406,372,o),
(452,415,o),
(521,415,cs),
(589,415,o),
(621,370,o),
(602,257,c),
(377,257,l)
);
}
);
width = 704;
}
);
unicode = 230;
}
{
glyphname = eth;
layers = (
{
background = {
shapes = (
{
closed = 1;
nodes = (
(222,616,l),
(360,505,o),
(380,397,o),
(350,249,cs),
(322,111,o),
(272,36,o),
(183,36,cs),
(101,36,o),
(78,100,o),
(98,199,cs),
(116,288,o),
(161,370,o),
(249,370,cs),
(293,370,o),
(337,353,o),
(367,328,c),
(387,352,l),
(352,392,o),
(305,414,o),
(250,414,cs),
(156,414,o),
(77,340,o),
(50,207,cs),
(23,76,o),
(74,-8,o),
(178,-8,cs),
(287,-8,o),
(365,78,o),
(399,248,cs),
(431,410,o),
(387,541,o),
(249,647,c)
);
},
{
closed = 1;
nodes = (
(216,480,l),
(405,596,l),
(386,626,l),
(197,510,l)
);
}
);
};
layerId = "C21910D5-47BB-472B-A83D-89B2B42B8F2A";
shapes = (
{
closed = 1;
nodes = (
(222,616,l),
(244,598,o),
(264,580,o),
(281,561,c),
(197,510,l),
(216,480,l),
(304,534,l),
(341,484,o),
(358,432,o),
(361,376,c),
(331,400,o),
(293,414,o),
(250,414,cs),
(156,414,o),
(77,340,o),
(50,207,cs),
(23,76,o),
(74,-8,o),
(178,-8,cs),
(287,-8,o),
(365,78,o),
(399,248,cs),
(422,366,o),
(405,468,o),
(340,556,c),
(405,596,l),
(386,626,l),
(317,584,l),
(298,605,o),
(275,627,o),
(249,647,c)
);
},
{
closed = 1;
nodes = (
(116,288,o),
(161,370,o),
(249,370,cs),
(290,370,o),
(331,355,o),
(361,332,c),
(360,307,o),
(356,279,o),
(350,249,cs),
(322,111,o),
(272,36,o),
(183,36,cs),
(101,36,o),
(78,100,o),
(98,199,cs)
);
}
);
width = 448;
},
{
background = {
shapes = (
{
closed = 1;
nodes = (
(208,598,l),
(342,493,o),
(361,392,o),
(333,253,cs),
(310,138,o),
(271,56,o),
(185,56,cs),
(109,56,o),
(100,118,o),
(116,197,cs),
(132,277,o),
(168,350,o),
(253,350,cs),
(291,350,o),
(329,336,o),
(355,313,c),
(386,349,l),
(351,389,o),
(304,414,o),
(248,414,cs),
(157,414,o),
(70,341,o),
(44,209,cs),
(18,77,o),
(71,-8,o),
(180,-8,cs),
(292,-8,o),
(371,77,o),
(404,246,cs),
(436,409,o),
(391,540,o),
(250,646,c)
);
},
{
closed = 1;
nodes = (
(203,461,l),
(414,591,l),
(388,633,l),
(176,503,l)
);
}
);
};
layerId = "BA106321-29DE-4FD0-898D-B7B08A4D4215";
shapes = (
{
closed = 1;
nodes = (
(208,598,l),
(226,584,o),
(243,569,o),
(258,553,c),
(176,503,l),
(203,461,l),
(291,515,l),
(321,474,o),
(337,432,o),
(342,387,c),
(315,404,o),
(283,414,o),
(248,414,cs),
(157,414,o),
(70,341,o),
(44,209,cs),
(18,77,o),
(71,-8,o),
(180,-8,cs),
(292,-8,o),
(371,77,o),
(404,246,cs),
(427,363,o),
(410,464,o),
(347,550,c),
(414,591,l),
(388,633,l),
(315,588,l),
(296,608,o),
(274,628,o),
(250,646,c)
);
},
{
closed = 1;
nodes = (
(132,277,o),
(168,350,o),
(253,350,cs),
(286,350,o),
(317,340,o),
(343,322,c),
(341,299,o),
(338,278,o),
(333,253,cs),
(310,138,o),
(271,56,o),
(185,56,cs),
(109,56,o),
(100,118,o),
(116,197,cs)
);
}
);
width = 448;
},
{
background = {
shapes = (
{
closed = 1;
nodes = (
(185,571,l),
(312,475,o),
(329,384,o),
(304,260,cs),
(282,150,o),
(249,72,o),
(187,72,cs),
(134,72,o),
(131,126,o),
(145,194,cs),
(160,268,o),
(191,334,o),
(262,334,cs),
(293,334,o),
(325,323,o),
(347,304,c),
(386,348,l),
(350,388,o),
(304,414,o),
(247,414,cs),
(151,414,o),
(61,342,o),
(35,212,cs),
(8,78,o),
(66,-8,o),
(181,-8,cs),
(299,-8,o),
(380,76,o),
(414,243,cs),
(448,408,o),
(398,540,o),
(254,646,c)
);
},
{
closed = 1;
nodes = (
(178,435,l),
(427,588,l),
(393,644,l),
(144,491,l)
);
}
);
};
layerId = "EBAB10B0-9FDE-44C7-9B16-DD2313400F4E";
shapes = (
{
closed = 1;
nodes = (
(185,571,l),
(198,561,o),
(211,551,o),
(223,540,c),
(144,491,l),
(178,435,l),
(268,490,l),
(289,461,o),
(301,434,o),
(308,403,c),
(289,410,o),
(269,414,o),
(247,414,cs),
(151,414,o),
(61,342,o),
(35,212,cs),
(8,78,o),
(66,-8,o),
(181,-8,cs),
(299,-8,o),
(380,76,o),
(414,243,cs),
(438,359,o),
(420,459,o),
(357,545,c),
(427,588,l),
(393,644,l),
(314,595,l),
(297,612,o),
(277,629,o),
(254,646,c)
);
},
{
closed = 1;
nodes = (
(160,268,o),
(191,334,o),
(262,334,cs),
(279,334,o),
(298,330,o),
(313,324,c),
(312,305,o),
(309,283,o),
(304,260,cs),
(282,150,o),
(249,72,o),
(187,72,cs),
(134,72,o),
(131,126,o),
(145,194,cs)
);
}
);
width = 448;
}
);
unicode = 240;
}
{
glyphname = divide;
layers = (
{
layerId = "C21910D5-47BB-472B-A83D-89B2B42B8F2A";
shapes = (
{
closed = 1;
nodes = (
(433,268,l),
(441,308,l),
(41,308,l),
(33,268,l)
);
},
{
closed = 1;
nodes = (
(224,74,o),
(249,90,o),
(255,122,cs),
(262,157,o),
(241,178,o),
(211,178,cs),
(185,178,o),
(159,161,o),
(153,130,cs),
(146,94,o),
(168,74,o),
(197,74,cs)
);
},
{
closed = 1;
nodes = (
(288,398,o),
(314,414,o),
(320,446,cs),
(327,481,o),
(306,502,o),
(276,502,cs),
(250,502,o),
(224,485,o),
(218,454,cs),
(211,418,o),
(232,398,o),
(262,398,cs)
);
}
);
width = 448;
},
{
layerId = "BA106321-29DE-4FD0-898D-B7B08A4D4215";
shapes = (
{
closed = 1;
nodes = (
(430,256,l),
(443,320,l),
(43,320,l),
(30,256,l)
);
},
{
closed = 1;
nodes = (
(229,62,o),
(259,81,o),
(267,120,cs),
(276,164,o),
(250,190,o),
(212,190,cs),
(180,190,o),
(149,170,o),
(142,132,cs),
(133,87,o),
(159,62,o),
(197,62,cs)
);
},
{
closed = 1;
nodes = (
(294,386,o),
(324,405,o),
(332,444,cs),
(341,488,o),
(314,514,o),
(277,514,cs),
(244,514,o),
(214,494,o),
(206,456,cs),
(197,411,o),
(224,386,o),
(261,386,cs)
);
}
);
width = 448;
},
{
layerId = "EBAB10B0-9FDE-44C7-9B16-DD2313400F4E";
shapes = (
{
closed = 1;
nodes = (
(427,240,l),
(446,336,l),
(46,336,l),
(27,240,l)
);
},
{
closed = 1;
nodes = (
(235,32,o),
(274,57,o),
(284,107,cs),
(296,166,o),
(262,200,o),
(213,200,cs),
(170,200,o),
(130,174,o),
(120,125,cs),
(108,65,o),
(143,32,o),
(192,32,cs)
);
},
{
closed = 1;
nodes = (
(303,376,o),
(343,401,o),
(353,451,cs),
(365,510,o),
(331,544,o),
(281,544,cs),
(239,544,o),
(199,518,o),
(189,469,cs),
(177,409,o),
(211,376,o),
(261,376,cs)
);
}
);
width = 448;
}
);
unicode = 247;
}
{
color = 7;
glyphname = Hbar;
layers = (
{
layerId = "BA106321-29DE-4FD0-898D-B7B08A4D4215";
shapes = (
{
ref = H;
},
{
closed = 1;
nodes = (
(53,440,l),
(512,440,l),
(525,500,l),
(66,500,l)
);
}
);
width = 480;
},
{
layerId = "EBAB10B0-9FDE-44C7-9B16-DD2313400F4E";
shapes = (
{
ref = H;
},
{
closed = 1;
nodes = (
(43,440,l),
(522,440,l),
(538,516,l),
(59,516,l)
);
}
);
width = 480;
},
{
layerId = "C21910D5-47BB-472B-A83D-89B2B42B8F2A";
shapes = (
{
ref = H;
},
{
closed = 1;
nodes = (
(56,452,l),
(515,452,l),
(524,496,l),
(65,496,l)
);
}
);
width = 480;
}
);
metricWidth = H.ss20;
unicode = 294;
}
{
color = 8;
glyphname = idotless;
kernLeft = idotless;
kernRight = u;
layers = (
{
anchors = (
{
name = "#center";
pos = (140,224);
},
{
name = bottom;
pos = (101,0);
},
{
name = bottomAttach;
pos = (125,0);
},
{
name = center;
pos = (134,192);
},
{
name = top;
pos = (187,448);
}
);
layerId = "C21910D5-47BB-472B-A83D-89B2B42B8F2A";
shapes = (
{
closed = 1;
nodes = (
(125,0,l),
(215,448,l),
(75,448,l),
(67,410,l),
(158,404,l),
(77,0,l)
);
}
);
width = 288;
},
{
anchors = (
{
name = "#center";
pos = (140,224);
},
{
name = bottom;
pos = (101,0);
},
{
name = bottomAttach;
pos = (137,0);
},
{
name = center;
pos = (130,192);
},
{
name = top;
pos = (187,448);
}
);
layerId = "BA106321-29DE-4FD0-898D-B7B08A4D4215";
shapes = (
{
closed = 1;
nodes = (
(137,0,l),
(227,448,l),
(75,448,l),
(63,390,l),
(142,384,l),
(65,0,l)
);
}
);
width = 288;
},
{
anchors = (
{
name = "#center";
pos = (146,224);
},
{
name = bottom;
pos = (103,0);
},
{
name = bottomAttach;
pos = (159,0);
},
{
name = center;
pos = (126,192);
},
{
name = top;
pos = (189,448);
}
);
layerId = "EBAB10B0-9FDE-44C7-9B16-DD2313400F4E";
shapes = (
{
closed = 1;
nodes = (
(160,0,l),
(250,448,l),
(64,448,l),
(49,372,l),
(119,366,l),
(46,0,l)
);
}
);
width = 288;
}
);
metricWidth = "=_pixel*4.5";
unicode = 305;
}
{
color = 8;
glyphname = OE;
kernLeft = O;
kernRight = E;
layers = (
{
anchors = (
{
name = bottom;
pos = (295,0);
},
{
name = top;
pos = (423,640);
}
);
layerId = "BA106321-29DE-4FD0-898D-B7B08A4D4215";
shapes = (
{
closed = 1;
nodes = (
(595,0,l),
(608,64,l),
(368,64,l),
(406,256,l),
(582,256,l),
(595,320,l),
(419,320,l),
(470,576,l),
(700,576,l),
(713,640,l),
(354,640,ls),
(194,640,o),
(100,537,o),
(57,325,cs),
(14,112,o),
(72,0,o),
(232,0,cs)
);
},
{
closed = 1;
nodes = (
(122,64,o),
(94,131,o),
(131,313,cs),
(170,503,o),
(230,576,o),
(347,576,cs),
(398,576,l),
(296,64,l),
(239,64,ls)
);
}
);
width = 680;
},
{
anchors = (
{
name = bottom;
pos = (295,0);
},
{
name = top;
pos = (423,640);
}
);
layerId = "EBAB10B0-9FDE-44C7-9B16-DD2313400F4E";
shapes = (
{
closed = 1;
nodes = (
(611,0,l),
(627,80,l),
(407,80,l),
(441,248,l),
(597,248,l),
(613,328,l),
(457,328,l),
(503,560,l),
(713,560,l),
(729,640,l),
(354,640,ls),
(193,640,o),
(90,538,o),
(48,328,cs),
(5,113,o),
(71,0,o),
(232,0,cs)
);
},
{
closed = 1;
nodes = (
(147,82,o),
(127,143,o),
(160,310,cs),
(195,489,o),
(249,558,o),
(344,558,cs),
(391,558,l),
(295,82,l),
(242,82,ls)
);
}
);
width = 680;
},
{
anchors = (
{
name = bottom;
pos = (295,0);
},
{
name = top;
pos = (423,640);
}
);
layerId = "C21910D5-47BB-472B-A83D-89B2B42B8F2A";
shapes = (
{
closed = 1;
nodes = (
(587,0,l),
(596,44,l),
(342,44,l),
(386,266,l),
(576,266,l),
(585,310,l),
(395,310,l),
(452,596,l),
(696,596,l),
(705,640,l),
(355,640,ls),
(196,640,o),
(106,536,o),
(63,323,cs),
(20,111,o),
(72,0,o),
(231,0,cs)
);
},
{
closed = 1;
nodes = (
(106,44,o),
(73,117,o),
(113,315,cs),
(154,519,o),
(220,596,o),
(350,596,cs),
(404,596,l),
(294,44,l),
(236,44,ls)
);
}
);
width = 680;
}
);
metricLeft = O;
metricRight = E.ss20;
unicode = 338;
}
{
color = 8;
glyphname = oe;
kernLeft = o;
kernRight = e;
layers = (
{
anchors = (
{
name = bottom;
pos = (307,0);
},
{
name = top;
pos = (397,448);
}
);
background = {
anchors = (
{
name = bottom;
pos = (307,0);
},
{
name = top;
pos = (397,448);
}
);
shapes = (
{
closed = 1;
nodes = (
(301,-9,o),
(362,92,o),
(387,218,cs),
(413,350,o),
(392,457,o),
(261,457,cs),
(138,457,o),
(76,356,o),
(51,230,cs),
(25,98,o),
(50,-9,o),
(177,-9,cs)
);
},
{
closed = 1;
nodes = (
(119,55,o),
(100,95,o),
(125,218,cs),
(150,345,o),
(191,393,o),
(263,393,cs),
(329,393,o),
(347,351,o),
(323,230,cs),
(297,101,o),
(257,55,o),
(185,55,cs)
);
},
{
closed = 1;
nodes = (
(306,98,o),
(325,-9,o),
(468,-9,cs),
(506,-9,o),
(550,-1,o),
(597,19,c),
(590,79,l),
(551,66,o),
(512,55,o),
(470,55,cs),
(389,55,o),
(371,95,o),
(396,218,cs),
(421,345,o),
(460,393,o),
(526,393,cs),
(588,393,o),
(606,343,o),
(576,227,c),
(625,263,l),
(371,263,l),
(358,201,l),
(646,201,l),
(688,356,o),
(650,457,o),
(534,457,cs),
(413,457,o),
(357,356,o),
(332,230,cs)
);
}
);
};
layerId = "BA106321-29DE-4FD0-898D-B7B08A4D4215";
shapes = (
{
closed = 1;
nodes = (
(247,-9,o),
(297,23,o),
(332,74,c),
(349,23,o),
(390,-9,o),
(468,-9,cs),
(506,-9,o),
(550,-1,o),
(597,19,c),
(590,79,l),
(551,66,o),
(512,55,o),
(470,55,cs),
(393,55,o),
(373,91,o),
(393,201,c),
(646,201,l),
(688,356,o),
(650,457,o),
(534,457,cs),
(467,457,o),
(419,425,o),
(387,377,c),
(370,427,o),
(332,457,o),
(261,457,cs),
(138,457,o),
(76,356,o),
(51,230,cs),
(25,98,o),
(50,-9,o),
(177,-9,cs)
);
},
{
closed = 1;
nodes = (
(119,55,o),
(100,95,o),
(125,218,cs),
(150,345,o),
(191,393,o),
(263,393,cs),
(329,393,o),
(347,351,o),
(323,230,cs),
(297,101,o),
(257,55,o),
(185,55,cs)
);
},
{
closed = 1;
nodes = (
(431,356,o),
(468,393,o),
(526,393,cs),
(581,393,o),
(601,353,o),
(584,263,c),
(406,263,l)
);
}
);
width = 704;
},
{
anchors = (
{
name = bottom;
pos = (307,0);
},
{
name = top;
pos = (397,448);
}
);
background = {
anchors = (
{
name = bottom;
pos = (307,0);
},
{
name = top;
pos = (397,448);
}
);
shapes = (
{
closed = 1;
nodes = (
(309,-9,o),
(373,91,o),
(398,215,cs),
(425,349,o),
(400,457,o),
(257,457,cs),
(125,457,o),
(60,357,o),
(36,233,cs),
(9,99,o),
(38,-9,o),
(177,-9,cs)
);
},
{
closed = 1;
nodes = (
(139,71,o),
(128,106,o),
(150,215,cs),
(173,332,o),
(207,377,o),
(259,377,cs),
(305,377,o),
(314,340,o),
(293,233,cs),
(269,114,o),
(237,71,o),
(185,71,cs)
);
},
{
closed = 1;
nodes = (
(294,99,o),
(316,-9,o),
(473,-9,cs),
(514,-9,o),
(565,-1,o),
(618,20,c),
(608,97,l),
(570,84,o),
(534,71,o),
(494,71,cs),
(416,71,o),
(399,106,o),
(421,215,cs),
(444,332,o),
(477,377,o),
(527,377,cs),
(574,377,o),
(585,333,o),
(559,228,c),
(625,266,l),
(371,266,l),
(356,187,l),
(664,187,l),
(710,351,o),
(666,457,o),
(535,457,cs),
(404,457,o),
(345,357,o),
(321,233,cs)
);
}
);
};
layerId = "EBAB10B0-9FDE-44C7-9B16-DD2313400F4E";
shapes = (
{
closed = 1;
nodes = (
(244,-9,o),
(294,17,o),
(330,59,c),
(352,17,o),
(396,-9,o),
(473,-9,cs),
(514,-9,o),
(565,-1,o),
(618,20,c),
(608,97,l),
(570,84,o),
(534,71,o),
(494,71,cs),
(423,71,o),
(403,101,o),
(416,187,c),
(664,187,l),
(710,351,o),
(666,457,o),
(535,457,cs),
(470,457,o),
(422,432,o),
(388,392,c),
(366,433,o),
(325,457,o),
(257,457,cs),
(125,457,o),
(60,357,o),
(36,233,cs),
(9,99,o),
(38,-9,o),
(177,-9,cs)
);
},
{
closed = 1;
nodes = (
(139,71,o),
(128,106,o),
(150,215,cs),
(173,332,o),
(207,377,o),
(259,377,cs),
(305,377,o),
(314,340,o),
(293,233,cs),
(269,114,o),
(237,71,o),
(185,71,cs)
);
},
{
closed = 1;
nodes = (
(455,345,o),
(485,377,o),
(527,377,cs),
(568,377,o),
(581,343,o),
(567,266,c),
(433,266,l)
);
}
);
width = 704;
},
{
anchors = (
{
name = bottom;
pos = (307,0);
},
{
name = top;
pos = (397,448);
}
);
background = {
anchors = (
{
name = bottom;
pos = (307,0);
},
{
name = top;
pos = (397,448);
}
);
shapes = (
{
closed = 1;
nodes = (
(296,-9,o),
(362,93,o),
(387,220,cs),
(413,351,o),
(391,457,o),
(264,457,cs),
(141,457,o),
(80,355,o),
(55,228,cs),
(28,97,o),
(51,-9,o),
(178,-9,cs)
);
},
{
closed = 1;
nodes = (
(104,33,o),
(76,81,o),
(104,220,cs),
(132,361,o),
(181,415,o),
(262,415,cs),
(341,415,o),
(365,365,o),
(338,228,cs),
(309,85,o),
(258,33,o),
(179,33,cs)
);
},
{
closed = 1;
nodes = (
(312,97,o),
(334,-9,o),
(467,-9,cs),
(508,-9,o),
(549,-2,o),
(587,13,c),
(582,52,l),
(546,41,o),
(510,33,o),
(477,33,cs),
(377,33,o),
(364,103,o),
(387,220,cs),
(413,351,o),
(457,413,o),
(533,413,cs),
(606,413,o),
(624,345,o),
(594,226,c),
(641,257,l),
(356,257,l),
(348,213,l),
(644,213,l),
(682,368,o),
(641,457,o),
(535,457,cs),
(423,457,o),
(364,355,o),
(339,228,cs)
);
}
);
};
layerId = "C21910D5-47BB-472B-A83D-89B2B42B8F2A";
shapes = (
{
closed = 1;
nodes = (
(248,-9,o),
(300,28,o),
(335,83,c),
(350,26,o),
(390,-9,o),
(467,-9,cs),
(508,-9,o),
(549,-2,o),
(587,13,c),
(582,52,l),
(546,41,o),
(510,33,o),
(477,33,cs),
(379,33,o),
(365,101,o),
(386,213,c),
(644,213,l),
(682,368,o),
(641,457,o),
(535,457,cs),
(470,457,o),
(422,422,o),
(389,368,c),
(375,422,o),
(337,457,o),
(264,457,cs),
(141,457,o),
(80,355,o),
(55,228,cs),
(28,97,o),
(51,-9,o),
(178,-9,cs)
);
},
{
closed = 1;
nodes = (
(104,33,o),
(76,81,o),
(104,220,cs),
(132,361,o),
(181,415,o),
(262,415,cs),
(341,415,o),
(365,365,o),
(338,228,cs),
(309,85,o),
(258,33,o),
(179,33,cs)
);
},
{
closed = 1;
nodes = (
(422,363,o),
(465,413,o),
(533,413,cs),
(599,413,o),
(620,356,o),
(601,257,c),
(395,257,l)
);
}
);
width = 704;
}
);
unicode = 339;
}
{
color = 9;
glyphname = longs;
layers = (
{
anchors = (
{
name = bottom;
pos = (101,-192);
},
{
name = top;
pos = (353,640);
}
);
background = {
anchors = (
{
name = bottom;
pos = (101,-192);
},
{
name = top;
pos = (353,640);
}
);
shapes = (
{
closed = 1;
nodes = (
(194,448,l),
(104,448,l),
(91,386,l),
(182,382,l)
);
},
{
closed = 1;
nodes = (
(116,-159,o),
(154,-113,o),
(171,-14,cs),
(261,499,ls),
(269,546,o),
(296,584,o),
(351,584,cs),
(379,584,o),
(408,580,o),
(440,575,c),
(459,637,l),
(422,644,o),
(386,648,o),
(350,648,cs),
(274,648,o),
(207,608,o),
(189,501,cs),
(101,-9,ls),
(86,-95,o),
(55,-131,o),
(20,-168,c),
(68,-204,l)
);
}
);
};
layerId = "BA106321-29DE-4FD0-898D-B7B08A4D4215";
shapes = (
{
closed = 1;
nodes = (
(116,-159,o),
(154,-113,o),
(171,-14,cs),
(261,499,ls),
(269,546,o),
(296,584,o),
(351,584,cs),
(379,584,o),
(408,580,o),
(440,575,c),
(459,637,l),
(422,644,o),
(386,648,o),
(350,648,cs),
(274,648,o),
(207,608,o),
(189,501,cs),
(180,448,l),
(104,448,l),
(91,386,l),
(169,383,l),
(101,-9,ls),
(86,-95,o),
(55,-131,o),
(20,-168,c),
(68,-204,l)
);
}
);
width = 448;
},
{
anchors = (
{
name = bottom;
pos = (101,-192);
},
{
name = top;
pos = (371,640);
}
);
background = {
anchors = (
{
name = bottom;
pos = (101,-192);
},
{
name = top;
pos = (371,640);
}
);
shapes = (
{
closed = 1;
nodes = (
(194,448,l),
(104,448,l),
(87,366,l),
(178,362,l)
);
},
{
closed = 1;
nodes = (
(167,-153,o),
(194,-102,o),
(211,-8,cs),
(300,496,ls),
(307,536,o),
(333,568,o),
(393,568,cs),
(415,568,o),
(442,566,o),
(466,562,c),
(486,632,l),
(455,640,o),
(405,648,o),
(366,648,cs),
(274,648,o),
(209,609,o),
(190,502,cs),
(101,0,ls),
(87,-80,o),
(63,-123,o),
(28,-170,c),
(118,-205,l)
);
}
);
};
layerId = "EBAB10B0-9FDE-44C7-9B16-DD2313400F4E";
shapes = (
{
closed = 1;
nodes = (
(167,-153,o),
(194,-102,o),
(211,-8,cs),
(300,496,ls),
(307,536,o),
(333,568,o),
(393,568,cs),
(415,568,o),
(442,566,o),
(466,562,c),
(486,632,l),
(455,640,o),
(405,648,o),
(366,648,cs),
(274,648,o),
(209,609,o),
(190,502,cs),
(180,448,l),
(104,448,l),
(87,366,l),
(165,363,l),
(101,0,ls),
(87,-80,o),
(63,-123,o),
(28,-170,c),
(118,-205,l)
);
}
);
width = 448;
},
{
anchors = (
{
name = bottom;
pos = (101,-192);
},
{
name = top;
pos = (347,640);
}
);
background = {
anchors = (
{
name = bottom;
pos = (101,-192);
},
{
name = top;
pos = (347,640);
}
);
shapes = (
{
closed = 1;
nodes = (
(190,448,l),
(104,448,l),
(96,408,l),
(182,405,l)
);
},
{
closed = 1;
nodes = (
(102,-150,o),
(129,-114,o),
(147,-14,cs),
(238,503,ls),
(247,555,o),
(280,604,o),
(347,604,cs),
(373,604,o),
(406,600,o),
(436,593,c),
(450,635,l),
(420,642,o),
(386,648,o),
(345,648,cs),
(272,648,o),
(208,605,o),
(190,502,cs),
(100,-10,ls),
(85,-96,o),
(57,-133,o),
(23,-170,c),
(56,-195,l)
);
}
);
};
layerId = "C21910D5-47BB-472B-A83D-89B2B42B8F2A";
shapes = (
{
closed = 1;
nodes = (
(102,-150,o),
(129,-114,o),
(147,-14,cs),
(238,503,ls),
(247,555,o),
(280,604,o),
(347,604,cs),
(373,604,o),
(406,600,o),
(436,593,c),
(450,635,l),
(420,642,o),
(386,648,o),
(345,648,cs),
(272,648,o),
(208,605,o),
(190,502,cs),
(181,448,l),
(104,448,l),
(96,408,l),
(173,405,l),
(100,-10,ls),
(85,-96,o),
(57,-133,o),
(23,-170,c),
(56,-195,l)
);
}
);
width = 448;
},
{
anchors = (
{
name = bottom;
pos = (139,0);
},
{
name = top;
pos = (353,640);
}
);
associatedMasterId = "BA106321-29DE-4FD0-898D-B7B08A4D4215";
attr = {
coordinates = (
400,
-64,
1
);
};
background = {
anchors = (
{
name = bottom;
pos = (139,0);
},
{
name = top;
pos = (353,640);
}
);
shapes = (
{
closed = 1;
nodes = (
(194,448,l),
(104,448,l),
(91,386,l),
(182,382,l)
);
},
{
closed = 1;
nodes = (
(138,-31,o),
(176,15,o),
(193,114,cs),
(261,499,ls),
(269,547,o),
(296,584,o),
(351,584,cs),
(379,584,o),
(408,580,o),
(440,575,c),
(459,637,l),
(422,644,o),
(386,648,o),
(350,648,cs),
(274,648,o),
(208,609,o),
(189,501,cs),
(123,119,ls),
(108,33,o),
(77,-3,o),
(42,-40,c),
(90,-76,l)
);
}
);
};
layerId = "0C28F781-3A6C-4C36-B8DA-2F78CC61A5CC";
name = "{400, 1, -64}";
shapes = (
{
closed = 1;
nodes = (
(138,-31,o),
(176,15,o),
(193,114,cs),
(261,499,ls),
(269,547,o),
(296,584,o),
(351,584,cs),
(379,584,o),
(408,580,o),
(440,575,c),
(459,637,l),
(422,644,o),
(386,648,o),
(350,648,cs),
(274,648,o),
(208,609,o),
(189,501,cs),
(180,448,l),
(104,448,l),
(91,386,l),
(169,383,l),
(123,119,ls),
(108,33,o),
(77,-3,o),
(42,-40,c),
(90,-76,l)
);
}
);
width = 448;
},
{
anchors = (
{
name = bottom;
pos = (157,0);
},
{
name = top;
pos = (371,640);
}
);
associatedMasterId = "EBAB10B0-9FDE-44C7-9B16-DD2313400F4E";
attr = {
coordinates = (
700,
-64,
1
);
};
background = {
anchors = (
{
name = bottom;
pos = (157,0);
},
{
name = top;
pos = (371,640);
}
);
shapes = (
{
closed = 1;
nodes = (
(194,448,l),
(104,448,l),
(87,366,l),
(178,362,l)
);
},
{
closed = 1;
nodes = (
(190,-25,o),
(217,25,o),
(234,120,cs),
(300,496,ls),
(307,536,o),
(333,568,o),
(393,568,cs),
(415,568,o),
(442,566,o),
(466,562,c),
(486,632,l),
(455,640,o),
(405,648,o),
(366,648,cs),
(274,648,o),
(209,609,o),
(190,502,cs),
(124,128,ls),
(110,49,o),
(86,5,o),
(51,-42,c),
(141,-77,l)
);
}
);
};
layerId = "53CDF180-9F05-4781-875E-9CC1054E5608";
name = "{700, 1, -64}";
shapes = (
{
closed = 1;
nodes = (
(190,-25,o),
(217,25,o),
(234,120,cs),
(300,496,ls),
(307,536,o),
(333,568,o),
(393,568,cs),
(415,568,o),
(442,566,o),
(466,562,c),
(486,632,l),
(455,640,o),
(405,648,o),
(366,648,cs),
(274,648,o),
(209,609,o),
(190,502,cs),
(180,448,l),
(104,448,l),
(87,366,l),
(165,363,l),
(124,128,ls),
(110,49,o),
(86,5,o),
(51,-42,c),
(141,-77,l)
);
}
);
width = 448;
},
{
anchors = (
{
name = bottom;
pos = (126,0);
},
{
name = top;
pos = (347,640);
}
);
associatedMasterId = "C21910D5-47BB-472B-A83D-89B2B42B8F2A";
attr = {
coordinates = (
200,
-64,
1
);
};
background = {
anchors = (
{
name = bottom;
pos = (126,0);
},
{
name = top;
pos = (347,640);
}
);
shapes = (
{
closed = 1;
nodes = (
(190,448,l),
(104,448,l),
(96,408,l),
(182,405,l)
);
},
{
closed = 1;
nodes = (
(124,-22,o),
(151,13,o),
(169,114,cs),
(238,503,ls),
(247,555,o),
(280,604,o),
(347,604,cs),
(373,604,o),
(406,600,o),
(436,593,c),
(450,635,l),
(420,642,o),
(386,648,o),
(345,648,cs),
(272,648,o),
(208,605,o),
(190,502,cs),
(122,118,ls),
(107,33,o),
(79,-5,o),
(45,-42,c),
(78,-67,l)
);
}
);
};
layerId = "35279966-AF01-43D0-B4CB-EE55AA031C22";
name = "{200, 1, -64}";
shapes = (
{
closed = 1;
nodes = (
(124,-22,o),
(151,13,o),
(169,114,cs),
(238,503,ls),
(247,555,o),
(280,604,o),
(347,604,cs),
(373,604,o),
(406,600,o),
(436,593,c),
(450,635,l),
(420,642,o),
(386,648,o),
(345,648,cs),
(272,648,o),
(208,605,o),
(190,502,cs),
(180,448,l),
(104,448,l),
(96,408,l),
(173,405,l),
(122,118,ls),
(107,33,o),
(79,-5,o),
(45,-42,c),
(78,-67,l)
);
}
);
width = 448;
}
);
unicode = 383;
}
{
color = 6;
glyphname = bstroke;
kernLeft = h;
kernRight = o;
layers = (
{
anchors = (
{
name = "#center";
pos = (200,534);
},
{
name = bottom;
pos = (179,0);
},
{
name = center;
pos = (194,502);
},
{
name = top;
pos = (285,448);
}
);
layerId = "BA106321-29DE-4FD0-898D-B7B08A4D4215";
shapes = (
{
ref = _part.asc.left;
},
{
ref = _part.bowl;
},
{
closed = 1;
nodes = (
(334,564,l),
(78,564,l),
(66,504,l),
(322,504,l)
);
}
);
width = 448;
},
{
anchors = (
{
name = "#center";
pos = (200,534);
},
{
name = bottom;
pos = (179,0);
},
{
name = center;
pos = (194,502);
},
{
name = top;
pos = (301,448);
}
);
layerId = "EBAB10B0-9FDE-44C7-9B16-DD2313400F4E";
shapes = (
{
ref = _part.asc.left;
},
{
ref = _part.bowl;
},
{
closed = 1;
nodes = (
(346,573,l),
(70,573,l),
(54,495,l),
(330,495,l)
);
}
);
width = 448;
},
{
anchors = (
{
name = "#center";
pos = (200,534);
},
{
name = bottom;
pos = (179,0);
},
{
name = center;
pos = (194,502);
},
{
name = top;
pos = (268,448);
}
);
layerId = "C21910D5-47BB-472B-A83D-89B2B42B8F2A";
shapes = (
{
ref = _part.asc.left;
},
{
ref = _part.bowl;
},
{
closed = 1;
nodes = (
(328,556,l),
(80,556,l),
(72,512,l),
(320,512,l)
);
}
);
width = 448;
}
);
unicode = 384;
}
{
color = 8;
glyphname = Chook;
kernLeft = O;
kernRight = C;
layers = (
{
anchors = (
{
name = bottom;
pos = (179,0);
},
{
name = bottomAttach;
pos = (231,0);
},
{
name = top;
pos = (307,640);
}
);
background = {
anchors = (
{
name = bottom;
pos = (179,0);
},
{
name = bottomAttach;
pos = (231,0);
},
{
name = top;
pos = (307,640);
}
);
shapes = (
{
closed = 1;
nodes = (
(240,-9,o),
(280,-5,o),
(312,4,c),
(306,67,l),
(275,59,o),
(246,55,o),
(219,55,cs),
(98,55,o),
(105,128,o),
(142,313,cs),
(180,504,o),
(208,583,o),
(335,583,cs),
(355,583,o),
(382,581,o),
(407,575,c),
(428,634,l),
(399,642,o),
(363,647,o),
(332,647,cs),
(184,647,o),
(114,563,o),
(66,325,cs),
(17,81,o),
(58,-9,o),
(210,-9,cs)
);
},
{
closed = 1;
nodes = (
(435,631,l),
(393,661,o),
(384,687,o),
(391,721,cs),
(397,752,o),
(421,772,o),
(458,772,cs),
(469,772,o),
(487,771,o),
(497,769,c),
(513,823,l),
(501,827,o),
(481,832,o),
(460,832,cs),
(391,832,o),
(340,797,o),
(327,731,cs),
(317,682,o),
(338,627,o),
(397,600,c),
(407,575,l)
);
}
);
};
layerId = "BA106321-29DE-4FD0-898D-B7B08A4D4215";
shapes = (
{
closed = 1;
nodes = (
(240,-9,o),
(280,-5,o),
(312,4,c),
(306,67,l),
(275,59,o),
(246,55,o),
(219,55,cs),
(98,55,o),
(105,128,o),
(142,313,cs),
(180,504,o),
(208,583,o),
(335,583,cs),
(355,583,o),
(382,581,o),
(407,575,c),
(435,631,l),
(393,661,o),
(384,687,o),
(391,721,cs),
(397,752,o),
(421,772,o),
(458,772,cs),
(469,772,o),
(487,771,o),
(497,769,c),
(513,823,l),
(501,827,o),
(481,832,o),
(460,832,cs),
(391,832,o),
(340,797,o),
(327,731,cs),
(321,702,o),
(326,672,o),
(342,647,c),
(339,647,o),
(335,647,o),
(332,647,cs),
(184,647,o),
(114,563,o),
(66,325,cs),
(17,81,o),
(58,-9,o),
(210,-9,cs)
);
}
);
width = 384;
},
{
anchors = (
{
name = bottom;
pos = (179,0);
},
{
name = bottomAttach;
pos = (231,0);
},
{
name = top;
pos = (307,640);
}
);
background = {
anchors = (
{
name = bottom;
pos = (179,0);
},
{
name = bottomAttach;
pos = (231,0);
},
{
name = top;
pos = (307,640);
}
);
shapes = (
{
closed = 1;
nodes = (
(239,-9,o),
(284,-4,o),
(322,7,c),
(316,83,l),
(285,75,o),
(256,71,o),
(229,71,cs),
(127,71,o),
(135,138,o),
(169,310,cs),
(206,492,o),
(233,567,o),
(340,567,cs),
(360,567,o),
(387,565,o),
(412,559,c),
(436,621,l),
(402,637,o),
(359,647,o),
(323,647,cs),
(173,647,o),
(102,564,o),
(55,328,cs),
(6,82,o),
(49,-9,o),
(205,-9,cs)
);
},
{
closed = 1;
nodes = (
(436,621,l),
(398,647,o),
(390,671,o),
(397,704,cs),
(402,732,o),
(424,756,o),
(457,756,cs),
(469,756,o),
(483,755,o),
(492,752,c),
(512,823,l),
(495,828,o),
(467,832,o),
(438,832,cs),
(363,832,o),
(310,800,o),
(297,735,cs),
(287,683,o),
(312,621,o),
(383,593,c),
(412,559,l)
);
}
);
};
layerId = "EBAB10B0-9FDE-44C7-9B16-DD2313400F4E";
shapes = (
{
closed = 1;
nodes = (
(239,-9,o),
(284,-4,o),
(322,7,c),
(316,83,l),
(285,75,o),
(256,71,o),
(229,71,cs),
(127,71,o),
(135,138,o),
(169,310,cs),
(206,492,o),
(233,567,o),
(340,567,cs),
(360,567,o),
(387,565,o),
(412,559,c),
(436,621,l),
(398,647,o),
(390,671,o),
(397,704,cs),
(402,732,o),
(424,756,o),
(457,756,cs),
(469,756,o),
(483,755,o),
(492,752,c),
(512,823,l),
(495,828,o),
(467,832,o),
(438,832,cs),
(363,832,o),
(310,800,o),
(297,735,cs),
(291,705,o),
(296,675,o),
(314,647,c),
(314,647,o),
(314,647,o),
(314,647,c),
(171,644,o),
(101,559,o),
(55,328,cs),
(6,82,o),
(49,-9,o),
(205,-9,cs)
);
}
);
width = 384;
},
{
anchors = (
{
name = bottom;
pos = (179,0);
},
{
name = bottomAttach;
pos = (231,0);
},
{
name = top;
pos = (307,640);
}
);
background = {
anchors = (
{
name = bottom;
pos = (179,0);
},
{
name = bottomAttach;
pos = (231,0);
},
{
name = top;
pos = (307,640);
}
);
shapes = (
{
closed = 1;
nodes = (
(229,-9,o),
(268,-3,o),
(302,4,c),
(300,44,l),
(264,38,o),
(231,35,o),
(204,35,cs),
(91,35,o),
(82,115,o),
(122,315,cs),
(163,519,o),
(206,603,o),
(322,603,cs),
(347,603,o),
(379,601,o),
(410,596,c),
(425,632,l),
(395,642,o),
(354,647,o),
(321,647,cs),
(185,647,o),
(118,562,o),
(70,323,cs),
(21,80,o),
(57,-9,o),
(197,-9,cs)
);
},
{
closed = 1;
nodes = (
(425,632,l),
(375,656,o),
(363,687,o),
(371,724,cs),
(378,762,o),
(401,788,o),
(443,788,cs),
(459,788,o),
(476,785,o),
(487,782,c),
(501,819,l),
(485,825,o),
(464,830,o),
(443,830,cs),
(383,830,o),
(338,791,o),
(326,731,cs),
(316,680,o),
(340,641,o),
(394,614,c),
(410,596,l)
);
}
);
};
layerId = "C21910D5-47BB-472B-A83D-89B2B42B8F2A";
shapes = (
{
closed = 1;
nodes = (
(229,-9,o),
(268,-3,o),
(302,4,c),
(300,44,l),
(264,38,o),
(231,35,o),
(204,35,cs),
(91,35,o),
(82,115,o),
(122,315,cs),
(163,519,o),
(206,603,o),
(322,603,cs),
(347,603,o),
(379,601,o),
(410,596,c),
(425,632,l),
(375,656,o),
(363,687,o),
(371,724,cs),
(378,762,o),
(401,788,o),
(443,788,cs),
(459,788,o),
(476,785,o),
(487,782,c),
(501,819,l),
(485,825,o),
(464,830,o),
(443,830,cs),
(383,830,o),
(338,791,o),
(326,731,cs),
(319,697,o),
(328,668,o),
(349,646,c),
(339,647,o),
(330,647,o),
(321,647,cs),
(185,647,o),
(118,562,o),
(70,323,cs),
(21,80,o),
(57,-9,o),
(197,-9,cs)
);
}
);
width = 384;
}
);
metricWidth = C.ss20;
unicode = 391;
}
{
color = 8;
glyphname = chook;
kernLeft = o;
kernRight = c;
layers = (
{
anchors = (
{
name = bottom;
pos = (145,0);
},
{
name = bottomAttach;
pos = (247,0);
},
{
name = top;
pos = (273,448);
}
);
background = {
anchors = (
{
name = bottom;
pos = (145,0);
},
{
name = bottomAttach;
pos = (247,0);
},
{
name = top;
pos = (273,448);
}
);
shapes = (
{
closed = 1;
nodes = (
(216,-7,o),
(254,-3,o),
(294,11,c),
(288,73,l),
(254,63,o),
(226,57,o),
(194,57,cs),
(116,57,o),
(100,96,o),
(125,221,cs),
(150,346,o),
(193,391,o),
(259,391,cs),
(293,391,o),
(313,385,o),
(336,368,c),
(363,418,l),
(334,442,o),
(297,452,o),
(263,452,cs),
(132,452,o),
(76,353,o),
(51,227,cs),
(26,99,o),
(47,-7,o),
(182,-7,cs)
);
},
{
closed = 1;
nodes = (
(377,418,l),
(346,455,o),
(341,483,o),
(349,524,cs),
(355,557,o),
(380,580,o),
(417,580,cs),
(428,580,o),
(445,579,o),
(456,577,c),
(472,631,l),
(460,635,o),
(440,640,o),
(419,640,cs),
(350,640,o),
(299,605,o),
(285,535,cs),
(275,483,o),
(297,431,o),
(342,391,c),
(336,368,l)
);
}
);
};
layerId = "BA106321-29DE-4FD0-898D-B7B08A4D4215";
shapes = (
{
closed = 1;
nodes = (
(216,-7,o),
(254,-3,o),
(294,11,c),
(288,73,l),
(254,63,o),
(226,57,o),
(194,57,cs),
(116,57,o),
(100,96,o),
(125,221,cs),
(150,346,o),
(193,391,o),
(259,391,cs),
(293,391,o),
(313,385,o),
(336,368,c),
(377,418,l),
(346,455,o),
(341,483,o),
(349,524,cs),
(355,557,o),
(380,580,o),
(417,580,cs),
(428,580,o),
(445,579,o),
(456,577,c),
(472,631,l),
(460,635,o),
(440,640,o),
(419,640,cs),
(350,640,o),
(299,605,o),
(285,535,cs),
(279,505,o),
(284,476,o),
(297,449,c),
(287,451,o),
(274,452,o),
(263,452,cs),
(132,452,o),
(76,353,o),
(51,227,cs),
(26,99,o),
(47,-7,o),
(182,-7,cs)
);
}
);
width = 384;
},
{
anchors = (
{
name = bottom;
pos = (145,0);
},
{
name = bottomAttach;
pos = (247,0);
},
{
name = top;
pos = (273,448);
}
);
background = {
anchors = (
{
name = bottom;
pos = (145,0);
},
{
name = bottomAttach;
pos = (247,0);
},
{
name = top;
pos = (273,448);
}
);
shapes = (
{
closed = 1;
nodes = (
(224,-7,o),
(265,-3,o),
(309,15,c),
(302,92,l),
(274,84,o),
(245,77,o),
(218,77,cs),
(146,77,o),
(133,110,o),
(155,220,cs),
(177,328,o),
(212,371,o),
(274,371,cs),
(302,371,o),
(329,365,o),
(348,355,c),
(384,413,l),
(348,439,o),
(293,452,o),
(250,452,cs),
(126,452,o),
(67,356,o),
(41,228,cs),
(15,100,o),
(38,-7,o),
(186,-7,cs)
);
},
{
closed = 1;
nodes = (
(384,413,l),
(357,447,o),
(353,473,o),
(360,508,cs),
(366,540,o),
(388,564,o),
(421,564,cs),
(433,564,o),
(447,563,o),
(456,560,c),
(475,631,l),
(458,636,o),
(431,640,o),
(402,640,cs),
(327,640,o),
(274,608,o),
(260,541,cs),
(249,487,o),
(279,432,o),
(337,391,c),
(327,366,l)
);
}
);
};
layerId = "EBAB10B0-9FDE-44C7-9B16-DD2313400F4E";
shapes = (
{
closed = 1;
nodes = (
(224,-7,o),
(265,-3,o),
(309,15,c),
(302,92,l),
(274,84,o),
(245,77,o),
(218,77,cs),
(146,77,o),
(133,110,o),
(155,220,cs),
(177,328,o),
(212,371,o),
(274,371,cs),
(302,371,o),
(329,365,o),
(348,355,c),
(384,413,l),
(357,447,o),
(353,473,o),
(360,508,cs),
(366,540,o),
(388,564,o),
(421,564,cs),
(433,564,o),
(447,563,o),
(456,560,c),
(475,631,l),
(458,636,o),
(431,640,o),
(402,640,cs),
(327,640,o),
(274,608,o),
(260,541,cs),
(254,511,o),
(260,480,o),
(279,450,c),
(270,451,o),
(259,452,o),
(250,452,cs),
(126,452,o),
(67,356,o),
(41,228,cs),
(15,100,o),
(38,-7,o),
(186,-7,cs)
);
}
);
width = 384;
},
{
anchors = (
{
name = bottom;
pos = (145,0);
},
{
name = bottomAttach;
pos = (247,0);
},
{
name = top;
pos = (273,448);
}
);
background = {
anchors = (
{
name = bottom;
pos = (145,0);
},
{
name = bottomAttach;
pos = (247,0);
},
{
name = top;
pos = (273,448);
}
);
shapes = (
{
closed = 1;
nodes = (
(216,-7,o),
(253,0,o),
(290,12,c),
(286,54,l),
(248,42,o),
(215,36,o),
(189,36,cs),
(104,36,o),
(83,97,o),
(108,222,cs),
(133,346,o),
(178,413,o),
(255,413,cs),
(284,413,o),
(313,406,o),
(347,380,c),
(371,409,l),
(339,436,o),
(303,454,o),
(256,454,cs),
(142,454,o),
(81,354,o),
(56,226,cs),
(31,98,o),
(54,-7,o),
(178,-7,cs)
);
},
{
closed = 1;
nodes = (
(371,409,l),
(339,449,o),
(334,483,o),
(342,526,cs),
(350,570,o),
(374,596,o),
(416,596,cs),
(432,596,o),
(449,593,o),
(460,590,c),
(474,627,l),
(458,633,o),
(437,638,o),
(416,638,cs),
(356,638,o),
(311,599,o),
(298,535,cs),
(288,485,o),
(303,439,o),
(334,404,c),
(347,380,l)
);
}
);
};
layerId = "C21910D5-47BB-472B-A83D-89B2B42B8F2A";
shapes = (
{
closed = 1;
nodes = (
(216,-7,o),
(253,0,o),
(290,12,c),
(286,54,l),
(248,42,o),
(215,36,o),
(189,36,cs),
(104,36,o),
(83,97,o),
(108,222,cs),
(133,346,o),
(178,413,o),
(255,413,cs),
(284,413,o),
(313,406,o),
(347,380,c),
(371,409,l),
(339,449,o),
(334,483,o),
(342,526,cs),
(350,570,o),
(374,596,o),
(416,596,cs),
(432,596,o),
(449,593,o),
(460,590,c),
(474,627,l),
(458,633,o),
(437,638,o),
(416,638,cs),
(356,638,o),
(311,599,o),
(298,535,cs),
(292,504,o),
(295,474,o),
(307,446,c),
(292,451,o),
(275,454,o),
(256,454,cs),
(142,454,o),
(81,354,o),
(56,226,cs),
(31,98,o),
(54,-7,o),
(178,-7,cs)
);
}
);
width = 384;
}
);
unicode = 392;
}
{
color = 8;
glyphname = Eturned;
kernLeft = Eturned;
layers = (
{
anchors = (
{
name = bottom;
pos = (163,0);
},
{
name = top;
pos = (291,640);
}
);
layerId = "BA106321-29DE-4FD0-898D-B7B08A4D4215";
shapes = (
{
closed = 1;
nodes = (
(439,640,l),
(133,640,l),
(120,576,l),
(354,576,l),
(303,320,l),
(123,320,l),
(110,256,l),
(290,256,l),
(252,64,l),
(8,64,l),
(-5,0,l),
(311,0,l)
);
}
);
width = 416;
},
{
anchors = (
{
name = bottom;
pos = (163,0);
},
{
name = top;
pos = (291,640);
}
);
layerId = "EBAB10B0-9FDE-44C7-9B16-DD2313400F4E";
shapes = (
{
closed = 1;
nodes = (
(449,640,l),
(117,640,l),
(101,560,l),
(321,560,l),
(275,328,l),
(109,328,l),
(93,248,l),
(259,248,l),
(225,80,l),
(-5,80,l),
(-21,0,l),
(321,0,l)
);
}
);
width = 416;
},
{
anchors = (
{
name = bottom;
pos = (163,0);
},
{
name = top;
pos = (291,640);
}
);
layerId = "C21910D5-47BB-472B-A83D-89B2B42B8F2A";
shapes = (
{
closed = 1;
nodes = (
(433,640,l),
(141,640,l),
(132,596,l),
(376,596,l),
(319,310,l),
(129,310,l),
(120,266,l),
(310,266,l),
(266,44,l),
(12,44,l),
(3,0,l),
(305,0,l)
);
}
);
width = 416;
}
);
unicode = 398;
}
{
glyphname = florin;
layers = (
{
layerId = "C21910D5-47BB-472B-A83D-89B2B42B8F2A";
shapes = (
{
closed = 1;
nodes = (
(86,-155,o),
(118,-98,o),
(136,-7,cs),
(218,406,l),
(374,406,l),
(383,448,l),
(227,448,l),
(239,509,ls),
(248,557,o),
(280,604,o),
(347,604,cs),
(373,604,o),
(406,600,o),
(436,593,c),
(450,635,l),
(420,642,o),
(386,648,o),
(340,648,cs),
(272,648,o),
(209,607,o),
(190,506,cs),
(179,448,l),
(104,448,l),
(96,408,l),
(170,405,l),
(87,-11,ls),
(71,-89,o),
(38,-129,o),
(-28,-156,c),
(-13,-197,l)
);
}
);
width = 448;
},
{
layerId = "BA106321-29DE-4FD0-898D-B7B08A4D4215";
shapes = (
{
closed = 1;
nodes = (
(122,-156,o),
(161,-104,o),
(180,-8,cs),
(258,384,l),
(402,384,l),
(415,448,l),
(271,448,l),
(282,506,ls),
(290,546,o),
(316,584,o),
(371,584,cs),
(399,584,o),
(428,580,o),
(460,575,c),
(479,637,l),
(442,644,o),
(406,648,o),
(370,648,cs),
(294,648,o),
(232,608,o),
(211,507,cs),
(199,448,l),
(124,448,l),
(111,386,l),
(186,383,l),
(107,-10,ls),
(94,-76,o),
(65,-107,o),
(3,-135,c),
(25,-197,l)
);
}
);
width = 448;
},
{
layerId = "EBAB10B0-9FDE-44C7-9B16-DD2313400F4E";
shapes = (
{
closed = 1;
nodes = (
(138,-163,o),
(179,-111,o),
(199,-9,cs),
(274,364,l),
(398,364,l),
(415,448,l),
(291,448,l),
(302,502,ls),
(309,536,o),
(333,568,o),
(391,568,cs),
(415,568,o),
(442,566,o),
(466,562,c),
(486,632,l),
(455,640,o),
(405,648,o),
(366,648,cs),
(279,648,o),
(211,609,o),
(191,508,cs),
(179,448,l),
(104,448,l),
(87,366,l),
(162,363,l),
(87,-9,ls),
(75,-68,o),
(54,-93,o),
(6,-114,c),
(34,-198,l)
);
}
);
width = 448;
}
);
unicode = 402;
}
{
glyphname = Khook;
kernRight = K;
layers = (
{
anchors = (
{
name = bottom;
pos = (179,0);
},
{
name = top;
pos = (307,640);
},
{
name = topright;
pos = (419,640);
}
);
background = {
anchors = (
{
name = bottom;
pos = (179,0);
},
{
name = top;
pos = (307,640);
},
{
name = topright;
pos = (419,640);
}
);
shapes = (
{
closed = 1;
nodes = (
(69,0,l),
(123,271,l),
(211,271,ls),
(304,271,o),
(329,232,o),
(318,151,cs),
(298,0,l),
(351,0,l),
(370,147,ls),
(383,248,o),
(341,315,o),
(218,315,cs),
(132,315,l),
(197,640,l),
(149,640,l),
(21,0,l)
);
},
{
closed = 1;
nodes = (
(397,419,o),
(356,606,o),
(461,606,cs),
(477,606,o),
(494,603,o),
(505,600,c),
(519,637,l),
(503,643,o),
(482,648,o),
(461,648,cs),
(302,648,o),
(361,438,o),
(181,305,c),
(230,303,l)
);
}
);
};
layerId = "C21910D5-47BB-472B-A83D-89B2B42B8F2A";
shapes = (
{
closed = 1;
nodes = (
(69,0,l),
(123,271,l),
(211,271,ls),
(304,271,o),
(329,232,o),
(318,151,cs),
(298,0,l),
(351,0,l),
(370,147,ls),
(382,240,o),
(346,305,o),
(245,314,c),
(394,430,o),
(359,606,o),
(461,606,cs),
(477,606,o),
(494,603,o),
(505,600,c),
(519,637,l),
(503,643,o),
(482,648,o),
(461,648,cs),
(306,648,o),
(358,448,o),
(194,315,c),
(132,315,l),
(197,640,l),
(149,640,l),
(21,0,l)
);
}
);
width = 448;
},
{
anchors = (
{
name = bottom;
pos = (179,0);
},
{
name = top;
pos = (307,640);
},
{
name = topright;
pos = (419,640);
}
);
background = {
anchors = (
{
name = bottom;
pos = (179,0);
},
{
name = top;
pos = (307,640);
},
{
name = topright;
pos = (419,640);
}
);
shapes = (
{
closed = 1;
nodes = (
(87,0,l),
(139,261,l),
(209,261,ls),
(293,261,o),
(314,234,o),
(301,149,cs),
(279,0,l),
(354,0,l),
(373,148,ls),
(388,263,o),
(341,325,o),
(220,325,cs),
(152,325,l),
(215,640,l),
(143,640,l),
(15,0,l)
);
},
{
closed = 1;
nodes = (
(410,410,o),
(388,588,o),
(476,588,cs),
(487,588,o),
(501,587,o),
(511,585,c),
(527,639,l),
(514,643,o),
(490,648,o),
(468,648,cs),
(311,648,o),
(360,447,o),
(193,324,c),
(252,300,l)
);
}
);
};
layerId = "BA106321-29DE-4FD0-898D-B7B08A4D4215";
shapes = (
{
closed = 1;
nodes = (
(87,0,l),
(139,261,l),
(209,261,ls),
(293,261,o),
(314,234,o),
(301,149,cs),
(279,0,l),
(354,0,l),
(373,148,ls),
(385,242,o),
(356,301,o),
(277,319,c),
(407,429,o),
(393,588,o),
(476,588,cs),
(487,588,o),
(501,587,o),
(511,585,c),
(527,639,l),
(514,643,o),
(490,648,o),
(468,648,cs),
(311,648,o),
(359,448,o),
(194,325,c),
(152,325,l),
(215,640,l),
(143,640,l),
(15,0,l)
);
}
);
width = 448;
},
{
anchors = (
{
name = bottom;
pos = (179,0);
},
{
name = top;
pos = (307,640);
},
{
name = topright;
pos = (419,640);
}
);
background = {
anchors = (
{
name = bottom;
pos = (179,0);
},
{
name = top;
pos = (307,640);
},
{
name = topright;
pos = (419,640);
}
);
shapes = (
{
closed = 1;
nodes = (
(117,0,l),
(168,253,l),
(208,253,ls),
(268,253,o),
(285,227,o),
(272,145,cs),
(250,0,l),
(367,0,l),
(383,145,ls),
(396,260,o),
(357,333,o),
(221,333,cs),
(184,333,l),
(245,640,l),
(133,640,l),
(5,0,l)
);
},
{
closed = 1;
nodes = (
(463,429,o),
(402,572,o),
(499,572,cs),
(508,572,o),
(521,571,o),
(531,568,c),
(550,639,l),
(533,643,o),
(504,648,o),
(478,648,cs),
(286,648,o),
(361,452,o),
(187,329,c),
(245,293,l)
);
}
);
};
layerId = "EBAB10B0-9FDE-44C7-9B16-DD2313400F4E";
shapes = (
{
closed = 1;
nodes = (
(117,0,l),
(168,253,l),
(208,253,ls),
(268,253,o),
(285,227,o),
(272,145,cs),
(250,0,l),
(367,0,l),
(383,145,ls),
(393,236,o),
(370,303,o),
(291,325,c),
(454,450,o),
(410,572,o),
(499,572,cs),
(508,572,o),
(521,571,o),
(531,568,c),
(550,639,l),
(533,643,o),
(504,648,o),
(478,648,cs),
(288,648,o),
(359,456,o),
(193,333,c),
(184,333,l),
(245,640,l),
(133,640,l),
(5,0,l)
);
}
);
width = 448;
}
);
unicode = 408;
}
{
color = 7;
glyphname = Nhookleft;
layers = (
{
layerId = "BA106321-29DE-4FD0-898D-B7B08A4D4215";
shapes = (
{
ref = N;
},
{
closed = 1;
nodes = (
(28,-159,o),
(66,-103,o),
(85,-10,cs),
(87,0,l),
(15,0,l),
(13,-10,ls),
(-1,-80,o),
(-26,-110,o),
(-91,-135,c),
(-70,-197,l)
);
}
);
width = 480;
},
{
layerId = "EBAB10B0-9FDE-44C7-9B16-DD2313400F4E";
shapes = (
{
ref = N;
},
{
closed = 1;
nodes = (
(26,-166,o),
(71,-121,o),
(93,-10,cs),
(95,0,l),
(7,0,l),
(5,-9,ls),
(-8,-74,o),
(-32,-101,o),
(-86,-125,c),
(-61,-198,l)
);
}
);
width = 480;
},
{
layerId = "C21910D5-47BB-472B-A83D-89B2B42B8F2A";
shapes = (
{
ref = N;
},
{
closed = 1;
nodes = (
(18,-155,o),
(49,-101,o),
(67,-10,cs),
(69,0,l),
(21,0,l),
(19,-11,ls),
(3,-89,o),
(-30,-129,o),
(-96,-156,c),
(-82,-197,l)
);
}
);
width = 480;
}
);
unicode = 413;
}
{
color = 8;
glyphname = Ohorn;
kernLeft = O;
kernRight = O;
layers = (
{
anchors = (
{
name = bottom;
pos = (195,0);
},
{
name = bottomAttach;
pos = (260,0);
},
{
name = top;
pos = (323,640);
}
);
layerId = "BA106321-29DE-4FD0-898D-B7B08A4D4215";
shapes = (
{
closed = 1;
nodes = (
(335,-10,o),
(417,99,o),
(460,313,cs),
(485,440,o),
(482,525,o),
(453,582,c),
(504,595,o),
(529,622,o),
(540,673,cs),
(547,709,o),
(545,740,o),
(541,768,c),
(477,768,l),
(477,739,o),
(475,709,o),
(472,693,cs),
(465,659,o),
(446,640,o),
(413,640,cs),
(383,640,o),
(366,650,o),
(320,650,cs),
(186,650,o),
(102,544,o),
(58,325,cs),
(14,105,o),
(60,-10,o),
(198,-10,cs)
);
},
{
closed = 1;
nodes = (
(112,56,o),
(94,125,o),
(132,313,cs),
(171,509,o),
(222,584,o),
(317,584,cs),
(406,584,o),
(424,515,o),
(386,325,cs),
(347,131,o),
(296,56,o),
(201,56,cs)
);
}
);
width = 480;
},
{
anchors = (
{
name = bottom;
pos = (195,0);
},
{
name = bottomAttach;
pos = (258,0);
},
{
name = top;
pos = (323,640);
}
);
layerId = "EBAB10B0-9FDE-44C7-9B16-DD2313400F4E";
shapes = (
{
closed = 1;
nodes = (
(348,-10,o),
(428,98,o),
(470,310,cs),
(494,430,o),
(491,515,o),
(468,568,c),
(537,583,o),
(567,617,o),
(580,678,cs),
(587,713,o),
(585,748,o),
(584,776,c),
(485,776,l),
(483,751,o),
(479,722,o),
(476,705,cs),
(466,657,o),
(445,640,o),
(409,640,cs),
(387,640,o),
(373,650,o),
(319,650,cs),
(179,650,o),
(91,545,o),
(48,328,cs),
(3,106,o),
(53,-10,o),
(199,-10,cs)
);
},
{
closed = 1;
nodes = (
(135,72,o),
(125,136,o),
(160,310,cs),
(197,496,o),
(241,568,o),
(315,568,cs),
(383,568,o),
(393,504,o),
(358,328,cs),
(321,144,o),
(277,72,o),
(203,72,cs)
);
}
);
width = 480;
},
{
anchors = (
{
name = bottom;
pos = (195,0);
},
{
name = bottomAttach;
pos = (253,0);
},
{
name = top;
pos = (323,640);
}
);
layerId = "C21910D5-47BB-472B-A83D-89B2B42B8F2A";
shapes = (
{
closed = 1;
nodes = (
(331,-10,o),
(412,100,o),
(455,315,cs),
(482,451,o),
(478,545,o),
(442,596,c),
(494,602,o),
(526,627,o),
(538,685,cs),
(544,714,o),
(544,745,o),
(544,768,c),
(499,768,l),
(498,739,o),
(495,711,o),
(492,697,cs),
(484,657,o),
(466,640,o),
(433,640,cs),
(392,640,o),
(364,650,o),
(322,650,cs),
(190,650,o),
(107,543,o),
(63,323,cs),
(19,104,o),
(62,-10,o),
(196,-10,cs)
);
},
{
closed = 1;
nodes = (
(97,34,o),
(74,119,o),
(113,315,cs),
(153,517,o),
(215,606,o),
(320,606,cs),
(421,606,o),
(444,521,o),
(405,323,cs),
(365,123,o),
(303,34,o),
(198,34,cs)
);
}
);
width = 480;
}
);
metricLeft = O.ss20;
metricWidth = O.ss20;
unicode = 416;
}
{
glyphname = Yhook;
kernLeft = Y;
kernRight = Y;
layers = (
{
anchors = (
{
name = bottom;
pos = (179,0);
},
{
name = top;
pos = (307,640);
}
);
background = {
anchors = (
{
name = bottom;
pos = (179,0);
},
{
name = top;
pos = (307,640);
}
);
shapes = (
{
closed = 1;
nodes = (
(244,202,l),
(334,278,o),
(376,369,o),
(416,496,cs),
(442,578,o),
(468,606,o),
(514,606,cs),
(530,606,o),
(547,603,o),
(558,600,c),
(572,637,l),
(556,643,o),
(535,648,o),
(514,648,cs),
(440,648,o),
(397,611,o),
(363,491,cs),
(330,374,o),
(280,276,o),
(197,202,c)
);
},
{
closed = 1;
nodes = (
(203,0,l),
(244,202,l),
(196,202,l),
(155,0,l)
);
},
{
closed = 1;
nodes = (
(237,200,l),
(177,334,o),
(159,457,o),
(173,640,c),
(126,640,l),
(110,450,o),
(134,313,o),
(196,202,c)
);
}
);
};
layerId = "C21910D5-47BB-472B-A83D-89B2B42B8F2A";
shapes = (
{
closed = 1;
nodes = (
(203,0,l),
(244,202,l),
(334,278,o),
(376,369,o),
(416,496,cs),
(442,578,o),
(468,606,o),
(514,606,cs),
(530,606,o),
(547,603,o),
(558,600,c),
(572,637,l),
(556,643,o),
(535,648,o),
(514,648,cs),
(440,648,o),
(397,611,o),
(363,491,cs),
(334,388,o),
(292,300,o),
(225,229,c),
(175,352,o),
(160,470,o),
(173,640,c),
(126,640,l),
(110,450,o),
(134,313,o),
(196,202,c),
(155,0,l)
);
}
);
width = 448;
},
{
anchors = (
{
name = bottom;
pos = (179,0);
},
{
name = top;
pos = (307,640);
}
);
background = {
anchors = (
{
name = bottom;
pos = (179,0);
},
{
name = top;
pos = (307,640);
}
);
shapes = (
{
closed = 1;
nodes = (
(256,202,l),
(336,280,o),
(390,370,o),
(429,486,cs),
(448,543,o),
(470,588,o),
(519,588,cs),
(533,588,o),
(548,587,o),
(558,585,c),
(574,639,l),
(561,643,o),
(540,648,o),
(516,648,cs),
(437,648,o),
(401,621,o),
(362,502,cs),
(320,373,o),
(273,302,o),
(185,202,c)
);
},
{
closed = 1;
nodes = (
(215,0,l),
(256,202,l),
(184,202,l),
(143,0,l)
);
},
{
closed = 1;
nodes = (
(250,200,l),
(189,347,o),
(176,455,o),
(190,640,c),
(120,640,l),
(103,450,o),
(126,314,o),
(184,202,c)
);
}
);
};
layerId = "BA106321-29DE-4FD0-898D-B7B08A4D4215";
shapes = (
{
closed = 1;
nodes = (
(215,0,l),
(256,202,l),
(336,280,o),
(390,370,o),
(429,486,cs),
(448,543,o),
(470,588,o),
(519,588,cs),
(533,588,o),
(548,587,o),
(558,585,c),
(574,639,l),
(561,643,o),
(540,648,o),
(516,648,cs),
(437,648,o),
(401,621,o),
(362,502,cs),
(328,397,o),
(290,330,o),
(229,254,c),
(186,375,o),
(178,479,o),
(190,640,c),
(120,640,l),
(103,450,o),
(126,314,o),
(184,202,c),
(143,0,l)
);
}
);
width = 448;
},
{
anchors = (
{
name = bottom;
pos = (179,0);
},
{
name = top;
pos = (307,640);
}
);
background = {
anchors = (
{
name = bottom;
pos = (179,0);
},
{
name = top;
pos = (307,640);
}
);
shapes = (
{
closed = 1;
nodes = (
(276,202,l),
(337,259,o),
(391,334,o),
(432,454,cs),
(455,522,o),
(478,572,o),
(524,572,cs),
(533,572,o),
(545,571,o),
(555,568,c),
(574,639,l),
(557,643,o),
(528,648,o),
(508,648,cs),
(425,648,o),
(379,617,o),
(337,480,cs),
(312,398,o),
(271,296,o),
(175,202,c)
);
},
{
closed = 1;
nodes = (
(235,0,l),
(276,202,l),
(164,202,l),
(123,0,l)
);
},
{
closed = 1;
nodes = (
(256,198,l),
(203,356,o),
(193,447,o),
(221,640,c),
(110,640,l),
(92,451,o),
(111,315,o),
(164,202,c)
);
}
);
};
layerId = "EBAB10B0-9FDE-44C7-9B16-DD2313400F4E";
shapes = (
{
closed = 1;
nodes = (
(235,0,l),
(276,202,l),
(337,259,o),
(391,334,o),
(432,454,cs),
(455,522,o),
(478,572,o),
(524,572,cs),
(533,572,o),
(545,571,o),
(555,568,c),
(574,639,l),
(557,643,o),
(528,648,o),
(508,648,cs),
(425,648,o),
(379,617,o),
(337,480,cs),
(318,418,o),
(290,342,o),
(236,269,c),
(201,387,o),
(197,477,o),
(221,640,c),
(110,640,l),
(92,451,o),
(111,315,o),
(164,202,c),
(123,0,l)
);
}
);
width = 448;
}
);
unicode = 435;
}
{
color = 8;
glyphname = jdotless;
kernLeft = j;
layers = (
{
anchors = (
{
name = bottom;
pos = (5,-192);
},
{
name = top;
pos = (183,448);
},
{
name = topright;
pos = (167,448);
}
);
layerId = "C21910D5-47BB-472B-A83D-89B2B42B8F2A";
shapes = (
{
closed = 1;
nodes = (
(215,448,l),
(75,448,l),
(67,410,l),
(158,404,l),
(64,-67,ls),
(50,-135,o),
(19,-160,o),
(-35,-160,cs),
(-51,-160,o),
(-68,-158,o),
(-85,-155,c),
(-93,-191,l),
(-73,-197,o),
(-55,-200,o),
(-32,-200,cs),
(38,-200,o),
(92,-169,o),
(112,-67,cs)
);
}
);
width = 288;
},
{
anchors = (
{
name = bottom;
pos = (13,-192);
},
{
name = top;
pos = (187,448);
},
{
name = topright;
pos = (227,448);
}
);
layerId = "BA106321-29DE-4FD0-898D-B7B08A4D4215";
shapes = (
{
closed = 1;
nodes = (
(227,448,l),
(75,448,l),
(63,390,l),
(142,384,l),
(52,-66,ls),
(42,-115,o),
(22,-140,o),
(-34,-140,cs),
(-51,-140,o),
(-65,-139,o),
(-80,-137,c),
(-92,-193,l),
(-73,-197,o),
(-55,-200,o),
(-30,-200,cs),
(46,-200,o),
(104,-168,o),
(124,-68,cs)
);
}
);
width = 288;
},
{
anchors = (
{
name = bottom;
pos = (25,-192);
},
{
name = top;
pos = (195,448);
},
{
name = topright;
pos = (249,448);
}
);
layerId = "EBAB10B0-9FDE-44C7-9B16-DD2313400F4E";
shapes = (
{
closed = 1;
nodes = (
(249,448,l),
(65,448,l),
(50,372,l),
(120,366,l),
(34,-65,ls),
(27,-101,o),
(6,-124,o),
(-40,-124,cs),
(-55,-124,o),
(-68,-124,o),
(-81,-122,c),
(-95,-192,l),
(-73,-197,o),
(-51,-200,o),
(-20,-200,cs),
(63,-200,o),
(125,-171,o),
(145,-69,cs)
);
}
);
width = 288;
},
{
anchors = (
{
name = bottom;
pos = (58,-64);
},
{
name = top;
pos = (207,448);
},
{
name = topright;
pos = (247,448);
}
);
associatedMasterId = "BA106321-29DE-4FD0-898D-B7B08A4D4215";
attr = {
coordinates = (
400,
-64,
1
);
};
layerId = "7B8B3030-04BF-4162-A81B-EE55513BE96D";
name = "{400, 1, -64}";
shapes = (
{
closed = 1;
nodes = (
(247,448,l),
(95,448,l),
(83,390,l),
(162,384,l),
(98,62,ls),
(88,13,o),
(67,-12,o),
(12,-12,cs),
(-6,-12,o),
(-20,-11,o),
(-34,-9,c),
(-47,-65,l),
(-27,-69,o),
(-10,-72,o),
(16,-72,cs),
(91,-72,o),
(149,-40,o),
(169,60,cs)
);
}
);
width = 288;
},
{
anchors = (
{
name = bottom;
pos = (70,-64);
},
{
name = top;
pos = (215,448);
},
{
name = topright;
pos = (269,448);
}
);
associatedMasterId = "EBAB10B0-9FDE-44C7-9B16-DD2313400F4E";
attr = {
coordinates = (
700,
-64,
1
);
};
layerId = "6EEA2CB7-A4AD-4975-9EC3-83A35C2FEAC5";
name = "5. Mar 25 at 19:28";
shapes = (
{
closed = 1;
nodes = (
(269,448,l),
(85,448,l),
(70,372,l),
(140,366,l),
(79,63,ls),
(72,28,o),
(51,4,o),
(5,4,cs),
(-10,4,o),
(-23,4,o),
(-36,6,c),
(-50,-64,l),
(-28,-69,o),
(-6,-72,o),
(25,-72,cs),
(108,-72,o),
(169,-44,o),
(190,59,cs)
);
}
);
width = 288;
},
{
anchors = (
{
name = bottom;
pos = (50,-64);
},
{
name = top;
pos = (203,448);
},
{
name = topright;
pos = (187,448);
}
);
associatedMasterId = "C21910D5-47BB-472B-A83D-89B2B42B8F2A";
attr = {
coordinates = (
200,
-64,
1
);
};
layerId = "55BFCE98-8FAB-4E5A-BA2A-E01624F60EDE";
name = "5. Mar 25 at 19:28";
shapes = (
{
closed = 1;
nodes = (
(235,448,l),
(95,448,l),
(87,410,l),
(178,404,l),
(109,61,ls),
(95,-7,o),
(64,-32,o),
(10,-32,cs),
(-6,-32,o),
(-23,-30,o),
(-40,-27,c),
(-48,-63,l),
(-28,-69,o),
(-10,-72,o),
(13,-72,cs),
(83,-72,o),
(136,-41,o),
(157,61,cs)
);
}
);
width = 288;
}
);
metricWidth = "=_pixel*4.5";
unicode = 567;
}
